<svg width="100" height="100" viewBox="0 0 100 100" fill="none" xmlns="http://www.w3.org/2000/svg">
<circle cx="50" cy="50" r="50" fill="#008DFF"/>
<g clip-path="url(#clip0_774_8657)">
<path d="M66.2913 55.0397C64.6183 55.0544 62.987 55.564 61.6031 56.5042C60.2191 57.4444 59.1444 58.7732 58.5143 60.3231C57.8843 61.8731 57.727 63.5748 58.0624 65.2139C58.3978 66.8531 59.2109 68.3563 60.3991 69.5342C61.5874 70.712 63.0976 71.5119 64.7397 71.8329C66.3817 72.1539 68.082 71.9818 69.6263 71.3382C71.1707 70.6946 72.49 69.6082 73.4181 68.2161C74.3461 66.824 74.8414 65.1883 74.8414 63.5152C74.8378 62.3969 74.6136 61.2904 74.1817 60.2589C73.7498 59.2273 73.1187 58.2912 72.3245 57.5039C71.5303 56.7166 70.5886 56.0937 69.5533 55.6709C68.5181 55.248 67.4096 55.0335 66.2913 55.0397ZM70.0769 64.6994H67.3916V67.422C67.3655 67.7119 67.232 67.9816 67.0172 68.178C66.8023 68.3744 66.5218 68.4833 66.2307 68.4833C65.9396 68.4833 65.6591 68.3744 65.4443 68.178C65.2294 67.9816 65.0959 67.7119 65.0699 67.422V64.7087H62.5058C62.3512 64.7114 62.1978 64.6824 62.0549 64.6234C61.912 64.5643 61.7828 64.4766 61.6753 64.3655C61.5678 64.2545 61.4842 64.1226 61.4298 63.9779C61.3753 63.8332 61.3512 63.6789 61.3589 63.5245C61.3589 63.2204 61.4797 62.9287 61.6948 62.7136C61.9099 62.4985 62.2016 62.3777 62.5058 62.3777H65.0699V59.5805C65.0959 59.2906 65.2294 59.0209 65.4443 58.8244C65.6591 58.628 65.9396 58.5191 66.2307 58.5191C66.5218 58.5191 66.8023 58.628 67.0172 58.8244C67.232 59.0209 67.3655 59.2906 67.3916 59.5805V62.3777H70.0769C70.2308 62.3699 70.3847 62.394 70.5289 62.4486C70.6731 62.5031 70.8045 62.5868 70.9148 62.6945C71.0251 62.8022 71.1119 62.9315 71.1699 63.0743C71.2279 63.2172 71.2557 63.3704 71.2517 63.5245C71.2554 63.6771 71.2289 63.829 71.1736 63.9713C71.1183 64.1136 71.0354 64.2435 70.9296 64.3536C70.8239 64.4637 70.6974 64.5518 70.5574 64.6127C70.4174 64.6736 70.2668 64.7063 70.1142 64.7087L70.0769 64.6994Z" fill="white"/>
<path d="M55.9603 63.5245C55.975 61.1109 56.8404 58.7798 58.4043 56.9413C59.9682 55.1028 62.1304 53.8748 64.5104 53.4733C62.1242 50.7358 59.0058 48.7366 55.5221 47.711C57.1826 46.8251 58.5616 45.4915 59.5026 43.8616C60.4437 42.2316 60.9091 40.3706 60.8461 38.4896C60.7643 35.7311 59.611 33.113 57.6309 31.1908C55.6508 29.2685 52.9997 28.1934 50.24 28.1934C47.4804 28.1934 44.8292 29.2685 42.8491 31.1908C40.8691 33.113 39.7158 35.7311 39.634 38.4896C39.5504 40.3553 39.9898 42.2072 40.9025 43.8365C41.8151 45.4658 43.1649 46.8078 44.7995 47.711C40.8627 48.9185 37.4153 51.3533 34.9611 54.6598C32.5068 57.9662 31.1744 61.9709 31.1584 66.0887C31.1584 69.5572 31.2797 69.753 35.1025 69.8183H58.0862C56.7126 68.007 55.9663 65.7977 55.9603 63.5245Z" fill="white"/>
</g>
<defs>
<clipPath id="clip0_774_8657">
<rect width="44" height="44" fill="white" transform="translate(31 28)"/>
</clipPath>
</defs>
</svg>
