<svg width="50" height="50" viewBox="0 0 50 50" fill="none" xmlns="http://www.w3.org/2000/svg">
<g id="Group 39976">
<path id="Subtract" fill-rule="evenodd" clip-rule="evenodd" d="M12 4H38C39.1046 4 40 4.89543 40 6V20H44V6C44 2.68629 41.3137 0 38 0H12C8.68629 0 6 2.68629 6 6V20H10V6C10 4.89543 10.8954 4 12 4Z" fill="white"/>
<path id="Subtract_2" fill-rule="evenodd" clip-rule="evenodd" d="M34.1652 22L44 22C45.1046 22 46 22.8954 46 24V44C46 45.1046 45.1046 46 44 46H6C4.89543 46 4 45.1046 4 44V24C4 22.8954 4.89543 22 6 22L15.8348 22C15.2894 20.7502 15 19.39 15 18H6C2.68629 18 0 20.6863 0 24V44C0 47.3137 2.68629 50 6 50H44C47.3137 50 50 47.3137 50 44V24C50 20.6863 47.3137 18 44 18H31L35 18C35 19.39 34.7106 20.7502 34.1652 22Z" fill="white"/>
<g id="Ellipse 194">
<mask id="path-3-inside-1_610_8497" fill="white">
<path d="M15 18C15 20.6522 16.0536 23.1957 17.9289 25.0711C19.8043 26.9464 22.3478 28 25 28C27.6522 28 30.1957 26.9464 32.0711 25.0711C33.9464 23.1957 35 20.6522 35 18L31.4147 18C31.4147 19.7013 30.7389 21.3329 29.5359 22.5359C28.3329 23.7389 26.7013 24.4147 25 24.4147C23.2987 24.4147 21.6671 23.7389 20.4641 22.5359C19.2611 21.3329 18.5853 19.7013 18.5853 18L15 18Z"/>
</mask>
<path d="M15 18C15 20.6522 16.0536 23.1957 17.9289 25.0711C19.8043 26.9464 22.3478 28 25 28C27.6522 28 30.1957 26.9464 32.0711 25.0711C33.9464 23.1957 35 20.6522 35 18L31.4147 18C31.4147 19.7013 30.7389 21.3329 29.5359 22.5359C28.3329 23.7389 26.7013 24.4147 25 24.4147C23.2987 24.4147 21.6671 23.7389 20.4641 22.5359C19.2611 21.3329 18.5853 19.7013 18.5853 18L15 18Z" stroke="white" stroke-width="8" mask="url(#path-3-inside-1_610_8497)"/>
</g>
<rect id="Rectangle 3687" x="16" y="34" width="18" height="4" rx="2" fill="white"/>
</g>
</svg>
