<svg width="50" height="50" viewBox="0 0 50 50" fill="none" xmlns="http://www.w3.org/2000/svg">
<g id="Group 39977">
<g id="Group 39976">
<path id="Subtract" fill-rule="evenodd" clip-rule="evenodd" d="M34.1652 22L44 22C45.1046 22 46 22.8954 46 24V44C46 45.1046 45.1046 46 44 46H6C4.89543 46 4 45.1046 4 44V24C4 22.8954 4.89543 22 6 22L15.8348 22C15.2894 20.7502 15 19.39 15 18H6C2.68629 18 0 20.6863 0 24V44C0 47.3137 2.68629 50 6 50H44C47.3137 50 50 47.3137 50 44V24C50 20.6863 47.3137 18 44 18H31L35 18C35 19.39 34.7106 20.7502 34.1652 22Z" fill="white"/>
<g id="Ellipse 194">
<mask id="path-2-inside-1_610_8509" fill="white">
<path d="M15 18C15 20.6522 16.0536 23.1957 17.9289 25.0711C19.8043 26.9464 22.3478 28 25 28C27.6522 28 30.1957 26.9464 32.0711 25.0711C33.9464 23.1957 35 20.6522 35 18L31.4147 18C31.4147 19.7013 30.7389 21.3329 29.5359 22.5359C28.3329 23.7389 26.7013 24.4147 25 24.4147C23.2987 24.4147 21.6671 23.7389 20.4641 22.5359C19.2611 21.3329 18.5853 19.7013 18.5853 18L15 18Z"/>
</mask>
<path d="M15 18C15 20.6522 16.0536 23.1957 17.9289 25.0711C19.8043 26.9464 22.3478 28 25 28C27.6522 28 30.1957 26.9464 32.0711 25.0711C33.9464 23.1957 35 20.6522 35 18L31.4147 18C31.4147 19.7013 30.7389 21.3329 29.5359 22.5359C28.3329 23.7389 26.7013 24.4147 25 24.4147C23.2987 24.4147 21.6671 23.7389 20.4641 22.5359C19.2611 21.3329 18.5853 19.7013 18.5853 18L15 18Z" stroke="white" stroke-width="8" mask="url(#path-2-inside-1_610_8509)"/>
</g>
<rect id="Rectangle 3687" x="16" y="34" width="18" height="4" rx="2" fill="white"/>
</g>
<path id="Arrow 1 (Stroke)" fill-rule="evenodd" clip-rule="evenodd" d="M11.5568 11.4773L23.6557 0.504991C24.3981 -0.168328 25.6019 -0.168328 26.3443 0.504991L38.4432 11.4773C39.1856 12.1507 39.1856 13.2423 38.4432 13.9156C37.7007 14.5889 36.497 14.5889 35.7545 13.9156L26.9012 5.88658L26.9012 18.0988C26.9012 19.1488 26.05 20 25 20V20C23.95 20 23.0989 19.1488 23.0989 18.0989L23.0988 5.88658L14.2455 13.9156C13.503 14.589 12.2993 14.589 11.5568 13.9156C10.8144 13.2423 10.8144 12.1507 11.5568 11.4773Z" fill="white"/>
</g>
</svg>
