<svg width="110" height="110" viewBox="0 0 110 110" fill="none" xmlns="http://www.w3.org/2000/svg">
<g id="Group 39993">
<rect id="Rectangle 3425" width="110" height="110" rx="30" fill="#379FEC"/>
<g id="Group 39976">
<path id="Subtract" fill-rule="evenodd" clip-rule="evenodd" d="M42 34H68C69.1046 34 70 34.8954 70 36V50H74V36C74 32.6863 71.3137 30 68 30H42C38.6863 30 36 32.6863 36 36V50H40V36C40 34.8954 40.8954 34 42 34Z" fill="white"/>
<path id="Subtract_2" fill-rule="evenodd" clip-rule="evenodd" d="M64.1652 52L74 52C75.1046 52 76 52.8954 76 54V74C76 75.1046 75.1046 76 74 76H36C34.8954 76 34 75.1046 34 74V54C34 52.8954 34.8954 52 36 52L45.8348 52C45.2894 50.7502 45 49.39 45 48H36C32.6863 48 30 50.6863 30 54V74C30 77.3137 32.6863 80 36 80H74C77.3137 80 80 77.3137 80 74V54C80 50.6863 77.3137 48 74 48H61L65 48C65 49.39 64.7106 50.7502 64.1652 52Z" fill="white"/>
<g id="Ellipse 194">
<mask id="path-4-inside-1_1045_8994" fill="white">
<path d="M45 48C45 50.6522 46.0536 53.1957 47.9289 55.0711C49.8043 56.9464 52.3478 58 55 58C57.6522 58 60.1957 56.9464 62.0711 55.0711C63.9464 53.1957 65 50.6522 65 48L61.4147 48C61.4147 49.7013 60.7389 51.3329 59.5359 52.5359C58.3329 53.7389 56.7013 54.4147 55 54.4147C53.2987 54.4147 51.6671 53.7389 50.4641 52.5359C49.2611 51.3329 48.5853 49.7013 48.5853 48L45 48Z"/>
</mask>
<path d="M45 48C45 50.6522 46.0536 53.1957 47.9289 55.0711C49.8043 56.9464 52.3478 58 55 58C57.6522 58 60.1957 56.9464 62.0711 55.0711C63.9464 53.1957 65 50.6522 65 48L61.4147 48C61.4147 49.7013 60.7389 51.3329 59.5359 52.5359C58.3329 53.7389 56.7013 54.4147 55 54.4147C53.2987 54.4147 51.6671 53.7389 50.4641 52.5359C49.2611 51.3329 48.5853 49.7013 48.5853 48L45 48Z" stroke="white" stroke-width="8" mask="url(#path-4-inside-1_1045_8994)"/>
</g>
<rect id="Rectangle 3687" x="46" y="64" width="18" height="4" rx="2" fill="white"/>
</g>
</g>
</svg>
