<?xml version="1.0" standalone="no"?><!DOCTYPE svg PUBLIC "-//W3C//DTD SVG 1.1//EN" "http://www.w3.org/Graphics/SVG/1.1/DTD/svg11.dtd"><svg t="1700714291123" class="icon" viewBox="0 0 1024 1024" version="1.1" xmlns="http://www.w3.org/2000/svg" p-id="1640" xmlns:xlink="http://www.w3.org/1999/xlink" width="86" height="86"><path d="M807.936 605.184c50.176 0 91.136-40.96 91.136-91.136s-40.96-91.136-91.136-91.136-91.136 40.96-91.136 91.136 40.96 91.136 91.136 91.136zM608.768 208.896c21.504 0 42.496 8.704 57.344 25.6 27.648 31.744 24.064 79.36-7.168 107.52-50.176 43.52-78.848 106.496-78.848 172.032 0 64.512 27.648 125.952 75.776 168.96 31.232 28.16 33.792 76.288 5.63199999 107.52s-76.288 33.792-107.51999999 5.632c-79.36-71.68-125.44-174.592-125.44-281.6 0-109.568 47.616-214.016 130.56-286.208 14.336-13.31200001 31.744-19.456 49.664-19.456z" p-id="1641"></path><path d="M422.912 38.912c30.208 29.184 31.232 77.312 2.048 107.52-95.744 99.328-148.48 229.888-148.48 367.616 0 136.192 51.2 265.216 144.896 364.544 28.672 30.72 27.648 78.848-3.072 107.52s-78.848 27.648-107.52-3.072c-120.32-126.976-186.36800001-293.888-186.368-468.48 0-177.664 67.584-345.6 190.464-473.088 14.848-15.36 35.328-23.03999999 54.784-23.04 19.456-1.024 38.4 6.144 53.248 20.48z" p-id="1642"></path></svg>