<svg width="40" height="40" viewBox="0 0 40 40" fill="none" xmlns="http://www.w3.org/2000/svg">
<path d="M10.3988 11.7884C9.62184 11.1571 8.42029 11.2102 7.7155 11.9079C7.01146 12.6055 7.07045 13.6837 7.84823 14.3165C9.62807 15.7649 10.6496 17.8384 10.6496 20.0041C10.6496 22.1666 9.62573 24.2416 7.83892 25.6948C7.42441 26.0315 7.21484 26.494 7.21484 26.9588C7.21484 27.3666 7.37708 27.7776 7.70777 28.1041C8.41256 28.8011 9.61412 28.8542 10.3911 28.2213C12.9697 26.1221 14.4491 23.1276 14.4491 20.0041C14.449 16.8767 12.9727 13.8822 10.3988 11.7884ZM17.6004 6.16954C16.8607 5.50158 15.6584 5.49767 14.9148 6.16252C14.1704 6.82505 14.1681 7.90705 14.907 8.57425C18.2859 11.6251 20.1479 15.6837 20.1479 20.004C20.1479 24.3165 18.2835 28.3744 14.8977 31.4307C14.5298 31.7628 14.345 32.1979 14.345 32.6323C14.345 33.0698 14.5313 33.5089 14.9047 33.8409C15.649 34.5057 16.8506 34.5026 17.5911 33.8346C21.6903 30.1361 23.9475 25.2236 23.9475 20.004C23.9475 14.7759 21.6926 9.86256 17.6004 6.16954ZM24.74 0.524213C24.0142 -0.154719 22.8119 -0.177386 22.0543 0.475013C21.296 1.12737 21.2719 2.20706 21.9984 2.88599C26.9304 7.50167 29.6456 13.5806 29.6456 20.0033C29.6456 26.4135 26.9258 32.4901 21.9891 37.1152C21.6368 37.4449 21.4605 37.8699 21.4605 38.2949C21.4605 38.7426 21.6561 39.191 22.0458 39.5262C22.8026 40.1777 24.0057 40.1543 24.7322 39.4746C30.3504 34.212 33.4444 27.2979 33.4444 20.0041C33.4459 12.6962 30.3535 5.77892 24.74 0.524213Z" fill="#008DFF"/>
</svg>
