<svg width="38" height="38" viewBox="0 0 38 38" fill="none" xmlns="http://www.w3.org/2000/svg">
<g id="Group 39819">
<path id="Subtract" fill-rule="evenodd" clip-rule="evenodd" d="M10.849 29.3059C11.445 28.7096 11.445 27.7429 10.849 27.1466L10.8489 27.1467C10.2529 26.5504 9.28666 26.5504 8.69061 27.1467L0.447008 35.3936C-0.149003 35.9898 -0.149003 36.9566 0.447008 37.5528C1.04302 38.1491 2.0093 38.1491 2.60535 37.5528L10.849 29.3059ZM37.4682 12.5514C38.1421 11.9724 38.1812 10.942 37.553 10.3136L27.6718 0.428407C27.0419 -0.180399 26.0267 -0.135444 25.4537 0.532102L17.1776 10.1723L17.0508 10.1376C15.8821 9.82413 14.6908 9.65676 13.5026 9.63136L17.2744 13.4031C17.5377 13.4757 17.8164 13.4763 18.081 13.4041C18.3752 13.3239 18.6387 13.1573 18.8373 12.9258L26.6965 3.7711L34.2304 11.3081L24.9411 19.2894C24.7159 19.4829 24.5519 19.738 24.4694 20.0233C24.4206 20.1921 24.4015 20.3672 24.4121 20.5408L28.1024 24.2311C28.0794 23.1798 27.9454 22.1257 27.6975 21.0865L27.6692 20.9706L37.4682 12.5514ZM27.0901 29.9751C26.3953 31.7611 25.3499 33.4287 23.9717 34.8709L23.8553 34.9913L23.7398 35.1083C23.1448 35.7104 22.1738 35.7131 21.5753 35.1144L2.63006 16.1615C2.03401 15.5652 2.03401 14.5985 2.63006 14.0022C4.12532 12.5064 5.87787 11.3812 7.76174 10.6468L10.1818 13.0669C8.69938 13.4539 7.28629 14.1295 6.02999 15.0797L5.93672 15.151L22.5854 31.8065L22.6224 31.7585C23.591 30.4896 24.2786 29.0583 24.67 27.5551L27.0901 29.9751Z" fill="white"/>
<rect id="Rectangle 3536" x="2.69043" y="1.30176" width="48.3373" height="3.04" rx="1.52" transform="rotate(45 2.69043 1.30176)" fill="white"/>
</g>
</svg>
