<svg width="38" height="38" viewBox="0 0 38 38" fill="none" xmlns="http://www.w3.org/2000/svg">
<g id="GIF 1">
<path id="Vector" d="M31.825 1C33.4627 1 35.0333 1.72498 36.1914 3.01544C37.3494 4.3059 38 6.05615 38 7.88114V30.1189C38 31.9439 37.3494 33.6941 36.1914 34.9846C35.0333 36.275 33.4627 37 31.825 37H6.175C4.53729 37 2.96665 36.275 1.80862 34.9846C0.650579 33.6941 2.92339e-07 31.9439 2.92339e-07 30.1189V7.88326C-0.00024927 6.97943 0.159288 6.08441 0.469499 5.24931C0.77971 4.41421 1.23452 3.65538 1.80794 3.01619C2.38137 2.37699 3.06218 1.86994 3.81149 1.524C4.5608 1.17806 5.36393 1 6.175 1H31.825ZM31.825 4.17591H6.175C5.29316 4.17591 4.44743 4.56628 3.82387 5.26115C3.20031 5.95601 2.85 6.89845 2.85 7.88114V30.1189C2.85 32.1663 4.3396 33.8241 6.175 33.8241H31.825C32.7068 33.8241 33.5526 33.4337 34.1761 32.7389C34.7997 32.044 35.15 31.1015 35.15 30.1189V7.88326C35.1503 7.3965 35.0644 6.91446 34.8974 6.46468C34.7305 6.01489 34.4856 5.60618 34.1768 5.26189C33.868 4.91761 33.5014 4.64449 33.0979 4.45816C32.6943 4.27182 32.2618 4.17591 31.825 4.17591ZM11.4285 12.3761C12.5609 12.3761 13.3646 12.5476 14.2823 13.0388C14.4229 13.114 14.5488 13.2194 14.6529 13.3488C14.757 13.4783 14.8371 13.6293 14.8888 13.7932C14.9405 13.9572 14.9627 14.1309 14.9542 14.3045C14.9456 14.478 14.9065 14.6479 14.839 14.8046C14.7715 14.9613 14.677 15.1016 14.5608 15.2176C14.4447 15.3336 14.3091 15.4229 14.162 15.4805C14.0149 15.5381 13.859 15.5629 13.7032 15.5533C13.5475 15.5438 13.395 15.5002 13.2544 15.425C12.6844 15.1201 12.2284 15.0227 11.4285 15.0227C9.7812 15.0227 8.5709 16.7081 8.5709 18.9862C8.5709 21.2665 9.7831 22.9582 11.4285 22.9582C12.2417 22.9582 12.9314 22.5771 13.2905 21.8996L13.3 21.8636V20.3074L12.5856 20.3095C12.3013 20.3095 12.0264 20.1958 11.8109 19.9891C11.5955 19.7824 11.4537 19.4964 11.4114 19.1831L11.4 18.9884C11.4 18.3235 11.8389 17.7752 12.4127 17.6799L12.5875 17.6651H14.4913C15.0879 17.6651 15.58 18.1541 15.6655 18.7936L15.6788 18.9884L15.675 22.2659L15.6636 22.3823L15.6237 22.5729L15.5857 22.6893C14.8694 24.5737 13.2278 25.6027 11.4285 25.6027C8.3391 25.6027 6.1959 22.6131 6.1959 18.9841C6.1959 15.3593 8.3372 12.374 11.4285 12.374V12.3761ZM20.1951 12.6344C20.7917 12.6344 21.2857 13.1235 21.3693 13.7629L21.3826 13.9577V24.0402C21.382 24.3738 21.2683 24.6948 21.0644 24.939C20.8605 25.1832 20.5813 25.3325 20.2828 25.3572C19.9842 25.3818 19.6883 25.2799 19.4544 25.0718C19.2204 24.8637 19.0656 24.5648 19.0209 24.235L19.0076 24.0402V13.9577C19.0076 13.2273 19.5396 12.6344 20.1951 12.6344ZM25.8875 12.6344L29.6818 12.645C29.9805 12.6477 30.2674 12.7758 30.4851 13.0038C30.7028 13.2317 30.8355 13.5427 30.8566 13.8748C30.8777 14.2069 30.7857 14.5356 30.5989 14.7955C30.4122 15.0553 30.1444 15.2272 29.849 15.2768L29.6742 15.2916L27.0693 15.281V18.9926L29.203 18.9968C29.7996 18.9968 30.2936 19.488 30.3772 20.1253L30.3905 20.3201C30.3909 20.6376 30.2888 20.9447 30.1029 21.1853C29.917 21.4259 29.6596 21.584 29.3778 21.6307L29.203 21.6434H27.0693V24.0042C27.0693 24.321 26.9673 24.6273 26.7818 24.8674C26.5963 25.1075 26.3396 25.2655 26.0585 25.3127L25.8837 25.3275C25.5988 25.3279 25.3232 25.2141 25.1073 25.007C24.8914 24.7998 24.7495 24.513 24.7076 24.199L24.6962 24.0042V13.9514C24.6968 13.6343 24.7996 13.328 24.9858 13.0882C25.172 12.8484 25.4293 12.6912 25.7108 12.645L25.8875 12.6323V12.6344Z" fill="white"/>
</g>
</svg>
