<svg width="38" height="38" viewBox="0 0 38 38" fill="none" xmlns="http://www.w3.org/2000/svg">
<g id="&#229;&#155;&#158;&#229;&#164;&#141; 2">
<path id="Vector" d="M14.1846 2.88965C14.8166 2.88981 15.4257 3.12622 15.8924 3.55246C16.3591 3.9787 16.6495 4.56398 16.7068 5.1934L16.7163 5.42298V9.66473L17.1644 9.6869C27.4735 10.3028 34.8946 15.7701 37.4754 28.888L37.5546 29.3123L37.6068 29.4627C37.6227 29.5237 37.6349 29.5855 37.6432 29.648L37.6622 29.8586C37.6701 30.0742 37.6344 30.2892 37.5572 30.4907C37.4801 30.6923 37.363 30.8761 37.2131 31.0313C37.0632 31.1866 36.8836 31.3099 36.6849 31.3941C36.4862 31.4782 36.2725 31.5214 36.0567 31.5211C35.7737 31.53 35.4931 31.4668 35.2413 31.3374L34.9199 31.1727L34.5589 30.9669L33.8227 30.5125L31.9638 29.3551L30.9869 28.7597L30.1066 28.2404L29.5287 27.9111L28.6135 27.4044C26.2274 26.1076 23.9933 25.1054 21.9128 24.4594C20.1078 23.9005 18.4881 23.6329 17.0868 23.6788L16.7163 23.6978V28.9703C16.7166 29.5472 16.52 30.1069 16.159 30.5568L15.9943 30.7421C15.5542 31.1922 14.9622 31.4623 14.3337 31.4998C13.7053 31.5373 13.0854 31.3394 12.5949 30.9447L12.4128 30.7832L1.31365 19.9311C-0.345684 18.5187 -0.416934 16.1469 1.03498 14.7171L1.2329 14.5366L12.4112 3.61165C12.8851 3.14827 13.5218 2.88907 14.1846 2.88965ZM13.5512 12.7839L13.5496 6.92557L3.36565 16.8752C3.14873 17.0589 3.12182 17.2536 3.33873 17.4896L13.5496 27.4662V21.1075L14.7546 20.8114C17.1106 20.2319 19.8228 20.4947 22.8517 21.4368C25.1571 22.1509 27.5732 23.2339 30.1271 24.6241L30.6402 24.9059L31.5997 25.4458C31.9116 25.6263 32.2235 25.81 32.5528 26.0063L33.7055 26.7093L33.6801 26.6143C30.8507 16.6726 24.5158 12.9296 15.6206 12.7981L15.133 12.795V12.7823H13.5496L13.5512 12.7839Z" fill="white"/>
</g>
</svg>
