<svg width="38" height="38" viewBox="0 0 38 38" fill="none" xmlns="http://www.w3.org/2000/svg">
<path d="M37 30.0833V9.38917C37 8.48139 36.6594 7.71506 35.9781 7.09017L29.1896 0.867666C28.5585 0.289222 27.8085 0 26.9396 0H9.18182C8.07291 0 7.01118 0.20768 5.99664 0.623042C5.01755 1.02362 4.15082 1.58887 3.39645 2.31879C2.64209 3.04871 2.05791 3.88735 1.64391 4.83471C1.21464 5.81638 1 6.8437 1 7.91667V30.0833C1 31.1563 1.21464 32.1836 1.64391 33.1653C2.05791 34.1127 2.64209 34.9513 3.39645 35.6812C4.15082 36.4111 5.01755 36.9764 5.99664 37.377C7.01118 37.7923 8.07291 38 9.18182 38H28.8182C29.9271 38 30.9888 37.7923 32.0034 37.377C32.9825 36.9764 33.8492 36.4111 34.6035 35.6812C35.3579 34.9513 35.9421 34.1127 36.3561 33.1653C36.7854 32.1836 37 31.1563 37 30.0833ZM9.18182 19V34.8333C7.82636 34.8333 6.66918 34.3697 5.71027 33.4424C4.75191 32.5145 4.27273 31.3949 4.27273 30.0833V7.91667C4.27273 6.60514 4.75191 5.48546 5.71027 4.55763C6.66918 3.63032 7.82636 3.16667 9.18182 3.16667H26.9388L33.7273 9.38917V30.0833C33.7273 31.3949 33.2481 32.5145 32.2897 33.4424C31.3308 34.3697 30.1736 34.8333 28.8182 34.8333V19C28.8182 18.1255 28.4985 17.3792 27.8593 16.7612C27.2205 16.1426 26.4493 15.8333 25.5455 15.8333H12.4545C11.5507 15.8333 10.7795 16.1426 10.1407 16.7612C9.50145 17.3792 9.18182 18.1255 9.18182 19ZM9.18182 7.91667C9.12836 7.91667 9.07491 7.91931 9.02145 7.92458C8.968 7.92986 8.91509 7.93725 8.86273 7.94675C8.80982 7.95731 8.758 7.96997 8.70727 7.98475C8.65546 8.00006 8.605 8.01747 8.55591 8.037C8.50627 8.05706 8.45773 8.07922 8.41027 8.1035C8.36336 8.12778 8.31755 8.15443 8.27282 8.18346C8.22809 8.21249 8.185 8.24336 8.14355 8.27608C8.10209 8.30881 8.06255 8.34364 8.02491 8.38058C7.98673 8.41753 7.95073 8.45579 7.91691 8.49538C7.88309 8.53549 7.85118 8.57718 7.82118 8.62046C7.79118 8.66374 7.76391 8.70807 7.73936 8.75346C7.71373 8.79938 7.69054 8.84635 7.66982 8.89438C7.64964 8.94188 7.63164 8.99043 7.61582 9.04004C7.60055 9.09018 7.58745 9.14032 7.57655 9.19046C7.56618 9.24165 7.55855 9.29311 7.55364 9.34483C7.54818 9.39656 7.54545 9.44828 7.54545 9.5C7.54545 9.55172 7.54818 9.60345 7.55364 9.65517C7.55909 9.70689 7.56673 9.75808 7.57655 9.80875C7.58745 9.85942 7.60055 9.90956 7.61582 9.95917C7.63164 10.0093 7.64964 10.0581 7.66982 10.1056C7.69054 10.1537 7.71345 10.2006 7.73855 10.2465C7.76364 10.2919 7.79118 10.3363 7.82118 10.3795C7.85118 10.4228 7.88309 10.4645 7.91691 10.5046C7.95073 10.5447 7.98673 10.583 8.02491 10.6194C8.06309 10.6564 8.10264 10.6912 8.14355 10.7239C8.185 10.7566 8.22809 10.7875 8.27282 10.8165C8.31755 10.8456 8.36336 10.872 8.41027 10.8957C8.45773 10.9205 8.50627 10.9429 8.55591 10.963C8.605 10.9825 8.65518 10.9999 8.70645 11.0153C8.75773 11.03 8.80955 11.0427 8.86191 11.0533C8.91482 11.0633 8.968 11.0707 9.02145 11.0754C9.07491 11.0807 9.12836 11.0833 9.18182 11.0833H17.3636C17.4171 11.0833 17.4705 11.0807 17.524 11.0754C17.5775 11.0701 17.6304 11.0628 17.6827 11.0533C17.7351 11.0427 17.7869 11.03 17.8382 11.0153C17.89 10.9999 17.9405 10.9825 17.9895 10.963C18.0392 10.9429 18.0877 10.9208 18.1352 10.8965C18.1821 10.8722 18.2279 10.8456 18.2726 10.8165C18.3174 10.7875 18.3605 10.7566 18.4019 10.7239C18.4434 10.6912 18.4829 10.6564 18.5205 10.6194C18.5587 10.5825 18.5947 10.5442 18.6285 10.5046C18.6624 10.4645 18.6943 10.4228 18.7243 10.3795C18.7543 10.3363 18.7815 10.2919 18.8061 10.2465C18.8317 10.2006 18.8549 10.1537 18.8756 10.1056C18.8958 10.0581 18.9138 10.0096 18.9296 9.95996C18.9449 9.90982 18.958 9.85968 18.9689 9.80954C18.9793 9.75835 18.9869 9.70689 18.9918 9.65517C18.9973 9.60345 19 9.55172 19 9.5C19 9.44828 18.9973 9.39656 18.9918 9.34483C18.9864 9.29311 18.9787 9.24192 18.9689 9.19125C18.958 9.14058 18.9449 9.09045 18.9296 9.04083C18.9138 8.9907 18.8958 8.94188 18.8756 8.89438C18.8549 8.84635 18.832 8.79938 18.8069 8.75346C18.7818 8.70807 18.7543 8.66374 18.7243 8.62046C18.6943 8.57718 18.6624 8.53549 18.6285 8.49538C18.5947 8.45526 18.5587 8.417 18.5205 8.38058C18.4824 8.34364 18.4428 8.30881 18.4019 8.27608C18.3605 8.24336 18.3174 8.21249 18.2726 8.18346C18.2279 8.15496 18.1821 8.12857 18.1352 8.10429C18.0877 8.07949 18.0392 8.05706 17.9895 8.037C17.9405 8.01747 17.8903 8.00006 17.839 7.98475C17.7872 7.96997 17.7354 7.95731 17.6835 7.94675C17.6306 7.93672 17.5775 7.92933 17.524 7.92458C17.4705 7.91931 17.4171 7.91667 17.3636 7.91667H9.18182ZM25.5455 34.8333H12.4545V19H25.5455V34.8333Z" fill="white"/>
</svg>
