<svg width="38" height="38" viewBox="0 0 38 38" fill="none" xmlns="http://www.w3.org/2000/svg">
<g id="&#229;&#155;&#158;&#229;&#164;&#141; 1">
<path id="Vector" d="M23.8154 2.88965C23.1834 2.88981 22.5743 3.12622 22.1076 3.55246C21.6409 3.9787 21.3505 4.56398 21.2932 5.1934L21.2837 5.42298V9.66473L20.8356 9.6869C10.5265 10.3028 3.10543 15.7701 0.524597 28.888L0.445435 29.3123L0.393181 29.4627C0.377254 29.5237 0.365093 29.5855 0.356766 29.648L0.337765 29.8586C0.329884 30.0742 0.365597 30.2892 0.442764 30.4907C0.519932 30.6923 0.636971 30.8761 0.786869 31.0313C0.936768 31.1866 1.11644 31.3099 1.31514 31.3941C1.51384 31.4782 1.72748 31.5214 1.94327 31.5211C2.22625 31.53 2.50686 31.4668 2.75868 31.3374L3.0801 31.1727L3.4411 30.9669L4.17735 30.5125L6.03618 29.3551L7.0131 28.7597L7.89343 28.2404L8.47135 27.9111L9.38652 27.4044C11.7726 26.1076 14.0067 25.1054 16.0872 24.4594C17.8922 23.9005 19.5119 23.6329 20.9132 23.6788L21.2837 23.6978V28.9703C21.2834 29.5472 21.48 30.1069 21.841 30.5568L22.0057 30.7421C22.4458 31.1922 23.0378 31.4623 23.6663 31.4998C24.2947 31.5373 24.9146 31.3394 25.4051 30.9447L25.5872 30.7832L36.6864 19.9311C38.3457 18.5187 38.4169 16.1469 36.965 14.7171L36.7671 14.5366L25.5888 3.61165C25.1149 3.14827 24.4782 2.88907 23.8154 2.88965ZM24.4488 12.7839L24.4504 6.92557L34.6344 16.8752C34.8513 17.0589 34.8782 17.2536 34.6613 17.4896L24.4504 27.4662V21.1075L23.2454 20.8114C20.8894 20.2319 18.1772 20.4947 15.1483 21.4368C12.8429 22.1509 10.4268 23.2339 7.87285 24.6241L7.35985 24.9059L6.40035 25.4458C6.08843 25.6263 5.77652 25.81 5.44718 26.0063L4.29452 26.7093L4.31985 26.6143C7.14927 16.6726 13.4842 12.9296 22.3794 12.7981L22.867 12.795V12.7823H24.4504L24.4488 12.7839Z" fill="white"/>
</g>
</svg>
