<svg width="46" height="46" viewBox="0 0 46 46" fill="none" xmlns="http://www.w3.org/2000/svg">
<g id="Group 39908">
<path id="Vector" d="M34.0493 45C33.4497 44.9992 32.86 44.8417 32.3345 44.5421L23.6982 39.6442C23.3869 39.4677 23.0389 39.3725 22.6843 39.3667C22.3296 39.3608 21.9789 39.4445 21.6624 39.6106L12.881 44.2216C12.2863 44.5339 11.6192 44.6672 10.9553 44.6065C10.2913 44.5458 9.657 44.2935 9.12395 43.8781C8.5909 43.4628 8.1804 42.9009 7.93884 42.256C7.69729 41.6111 7.63431 40.9089 7.75703 40.2287L9.57392 30.1874C9.63989 29.8251 9.61987 29.4515 9.5156 29.099C9.41133 28.7465 9.22595 28.4257 8.97547 28.1643L2.03869 20.9201C1.56872 20.4292 1.24043 19.8115 1.09095 19.137C0.941479 18.4625 0.97678 17.758 1.19287 17.1032C1.40895 16.4484 1.7972 15.8695 2.3137 15.4318C2.83021 14.9942 3.45436 14.7153 4.11557 14.6267L13.8728 13.3181C14.2247 13.2711 14.5602 13.1358 14.8505 12.9241C15.1407 12.7123 15.377 12.4304 15.5389 12.1027L20.0332 3.01484C20.3377 2.39912 20.8021 1.88414 21.3739 1.52816C21.9457 1.17218 22.602 0.989397 23.2686 1.00048C23.9352 1.01155 24.5855 1.21606 25.146 1.59085C25.7065 1.96565 26.1548 2.49579 26.4402 3.12131L30.6565 12.3524C30.8083 12.6848 31.0356 12.9739 31.3189 13.1949C31.6022 13.4159 31.9329 13.5622 32.2827 13.6211L41.9968 15.2502C42.655 15.3605 43.2703 15.6599 43.7732 16.1143C44.276 16.5688 44.6463 17.1603 44.8423 17.8219C45.0382 18.4835 45.0519 19.1888 44.8818 19.8581C44.7117 20.5274 44.3646 21.1339 43.8798 21.609L36.7277 28.6227C36.4698 28.8755 36.2749 29.1896 36.16 29.5379C36.045 29.8863 36.0133 30.2585 36.0677 30.6223L37.5774 40.7175C37.6559 41.2463 37.6235 41.7864 37.4824 42.301C37.3413 42.8156 37.0948 43.2925 36.7598 43.6991C36.4248 44.1057 36.0092 44.4325 35.5414 44.657C35.0736 44.8815 34.5647 44.9985 34.0493 45ZM33.659 42.0234C33.7915 42.0988 33.9416 42.1341 34.0925 42.1254C34.2433 42.1167 34.3887 42.0644 34.5123 41.9743C34.636 41.8842 34.7328 41.7599 34.7919 41.6156C34.851 41.4713 34.87 41.3127 34.8467 41.1578L33.336 31.0626C33.2131 30.2391 33.2848 29.3969 33.545 28.6086C33.8053 27.8203 34.2462 27.1095 34.8298 26.5373L41.984 19.5221C42.0934 19.4145 42.1716 19.2774 42.2099 19.1261C42.2482 18.9748 42.2451 18.8155 42.2007 18.666C42.1564 18.5165 42.0727 18.3829 41.9591 18.2801C41.8455 18.1774 41.7065 18.1097 41.5578 18.0846L31.8437 16.4518C31.0508 16.3189 30.301 15.9877 29.6589 15.4869C29.0168 14.986 28.5018 14.3305 28.1581 13.5769L23.9439 4.34527C23.8793 4.2037 23.7778 4.08373 23.651 3.99893C23.5241 3.91413 23.3769 3.86789 23.226 3.86546C23.0752 3.86302 22.9266 3.90448 22.7973 3.98513C22.668 4.06579 22.5629 4.18243 22.4942 4.32185L17.9999 13.4097C17.6333 14.1513 17.0984 14.7892 16.4414 15.2685C15.7844 15.7477 15.025 16.0539 14.2287 16.1606L4.46941 17.4729C4.31974 17.4929 4.17845 17.5559 4.06153 17.655C3.94461 17.754 3.85673 17.8851 3.80785 18.0333C3.75896 18.1815 3.75102 18.3409 3.78492 18.4936C3.81883 18.6462 3.89322 18.786 3.99968 18.897L10.9364 26.1412C11.5025 26.7324 11.9216 27.4577 12.1575 28.2545C12.3934 29.0513 12.4392 29.8957 12.2908 30.715L10.4739 40.7569C10.4459 40.9109 10.46 41.0699 10.5145 41.216C10.5691 41.3622 10.6619 41.4895 10.7826 41.5837C10.9032 41.6779 11.0468 41.7351 11.1972 41.7489C11.3476 41.7628 11.4986 41.7326 11.6334 41.6619L20.4147 37.052C21.1311 36.6756 21.925 36.4858 22.7278 36.499C23.5306 36.5122 24.3182 36.7279 25.0228 37.1276L33.659 42.0255V42.0234Z" fill="#008DFF" stroke="#008DFF" stroke-width="0.5"/>
<path id="Vector_2" d="M23.0003 31.8971C19.3419 31.8971 16.3656 29.0648 16.3656 25.5835C16.3547 25.3881 16.3824 25.1924 16.4469 25.0084C16.5115 24.8245 16.6115 24.6562 16.741 24.5139C16.8704 24.3715 17.0265 24.2581 17.1996 24.1806C17.3727 24.1031 17.5593 24.0631 17.7479 24.0631C17.9364 24.0631 18.123 24.1031 18.2961 24.1806C18.4693 24.2581 18.6253 24.3715 18.7548 24.5139C18.8842 24.6562 18.9843 24.8245 19.0488 25.0084C19.1133 25.1924 19.141 25.3881 19.1301 25.5835C19.1301 27.482 20.8665 29.027 23.0003 29.027C25.1341 29.027 26.8705 27.483 26.8705 25.5835C26.859 25.3877 26.8862 25.1916 26.9505 25.0071C27.0147 24.8227 27.1147 24.6539 27.2441 24.511C27.3736 24.3682 27.5298 24.2543 27.7033 24.1765C27.8767 24.0987 28.0636 24.0586 28.2525 24.0586C28.4414 24.0586 28.6284 24.0987 28.8018 24.1765C28.9752 24.2543 29.1314 24.3682 29.2609 24.511C29.3904 24.6539 29.4903 24.8227 29.5546 25.0071C29.6188 25.1916 29.646 25.3877 29.6345 25.5835C29.6345 29.0648 26.6587 31.8971 23.0003 31.8971Z" fill="#008DFF" stroke="#008DFF" stroke-width="0.5"/>
</g>
</svg>
