<svg width="38" height="38" viewBox="0 0 38 38" fill="none" xmlns="http://www.w3.org/2000/svg">
<g id="&#232;&#189;&#172;&#229;&#143;&#145; 1">
<path id="Vector" d="M36.2633 21.9129C35.3022 21.9129 34.5266 22.6922 34.5266 23.6496V24.3621C34.5266 28.2994 31.3203 31.5057 27.383 31.5057H10.617C6.67969 31.5057 3.47344 28.2994 3.47344 24.3621V13.6375C3.47344 9.7002 6.67969 6.49395 10.617 6.49395H17.3672C18.3283 6.49395 19.1039 5.71465 19.1039 4.75723C19.1039 3.7998 18.3246 3.02051 17.3672 3.02051H10.617C4.76484 3.02051 0 7.78164 0 13.6375V24.3621C0 30.218 4.76484 34.9791 10.617 34.9791H27.3793C33.2352 34.9791 37.9963 30.2143 37.9963 24.3621V23.6496C38 22.6885 37.2207 21.9129 36.2633 21.9129Z" fill="white"/>
<path id="Vector_2" d="M34.1627 3.02051H25.7648C24.8037 3.02051 24.0281 3.7998 24.0281 4.75723C24.0281 5.71465 24.8074 6.49395 25.7648 6.49395H32.0697L26.2695 12.2941C24.4846 14.0791 22.1096 15.0625 19.5824 15.0625H12.4945C11.5334 15.0625 10.7578 15.8418 10.7578 16.7992C10.7578 17.7604 11.5371 18.5359 12.4945 18.5359H19.5824C23.0373 18.5359 26.2844 17.1926 28.7262 14.7508L34.5227 8.9543V15.2518C34.5227 16.2129 35.302 16.9885 36.2594 16.9885C37.2205 16.9885 37.9961 16.2092 37.9961 15.2518V6.85762C37.9998 4.73867 36.2779 3.02051 34.1627 3.02051Z" fill="white"/>
</g>
</svg>
