<svg width="44" height="44" viewBox="0 0 44 44" fill="none" xmlns="http://www.w3.org/2000/svg">
<g id="Mask group">
<mask id="mask0_274_1396" style="mask-type:alpha" maskUnits="userSpaceOnUse" x="0" y="0" width="44" height="44">
<rect id="Rectangle 3501" width="44" height="44" fill="#D9D9D9"/>
</mask>
<g mask="url(#mask0_274_1396)">
<path id="Vector" d="M5.69532 8.8H3.44643C2.9991 8.8 2.57009 8.62616 2.25378 8.31672C1.93747 8.00729 1.75977 7.58761 1.75977 7.15C1.75977 6.71239 1.93747 6.29271 2.25378 5.98327C2.57009 5.67384 2.9991 5.5 3.44643 5.5H40.5531C41.0004 5.5 41.4294 5.67384 41.7458 5.98327C42.0621 6.29271 42.2398 6.71239 42.2398 7.15C42.2398 7.58761 42.0621 8.00729 41.7458 8.31672C41.4294 8.62616 41.0004 8.8 40.5531 8.8H9.06865V37.95C9.06865 38.3111 9.14137 38.6687 9.28264 39.0024C9.42391 39.336 9.63097 39.6392 9.89201 39.8945C10.153 40.1499 10.4629 40.3525 10.804 40.4907C11.1451 40.6289 11.5106 40.7 11.8798 40.7H32.1198C32.4889 40.7 32.8545 40.6289 33.1955 40.4907C33.5366 40.3525 33.8465 40.1499 34.1075 39.8945C34.3686 39.6392 34.5756 39.336 34.7169 39.0024C34.8582 38.6687 34.9309 38.3111 34.9309 37.95V13.75C34.9309 13.3124 35.1086 12.8927 35.4249 12.5833C35.7412 12.2738 36.1702 12.1 36.6175 12.1C37.0649 12.1 37.4939 12.2738 37.8102 12.5833C38.1265 12.8927 38.3042 13.3124 38.3042 13.75V37.95C38.3042 41.2912 35.5353 44 32.1198 44H11.8798C8.46427 44 5.69532 41.2912 5.69532 37.95V8.8ZM17.502 3.3C17.0547 3.3 16.6256 3.12616 16.3093 2.81673C15.993 2.50729 15.8153 2.08761 15.8153 1.65C15.8153 1.21239 15.993 0.792709 16.3093 0.483274C16.6256 0.173839 17.0547 0 17.502 0H26.4975C26.9449 0 27.3739 0.173839 27.6902 0.483274C28.0065 0.792709 28.1842 1.21239 28.1842 1.65C28.1842 2.08761 28.0065 2.50729 27.6902 2.81673C27.3739 3.12616 26.9449 3.3 26.4975 3.3H17.502ZM15.8153 18.15C15.8153 17.7124 15.993 17.2927 16.3093 16.9833C16.6256 16.6738 17.0547 16.5 17.502 16.5C17.9493 16.5 18.3783 16.6738 18.6946 16.9833C19.011 17.2927 19.1887 17.7124 19.1887 18.15V31.35C19.1887 31.7876 19.011 32.2073 18.6946 32.5167C18.3783 32.8262 17.9493 33 17.502 33C17.0547 33 16.6256 32.8262 16.3093 32.5167C15.993 32.2073 15.8153 31.7876 15.8153 31.35V18.15ZM24.8109 18.15C24.8109 17.7124 24.9886 17.2927 25.3049 16.9833C25.6212 16.6738 26.0502 16.5 26.4975 16.5C26.9449 16.5 27.3739 16.6738 27.6902 16.9833C28.0065 17.2927 28.1842 17.7124 28.1842 18.15V31.35C28.1842 31.7876 28.0065 32.2073 27.6902 32.5167C27.3739 32.8262 26.9449 33 26.4975 33C26.0502 33 25.6212 32.8262 25.3049 32.5167C24.9886 32.2073 24.8109 31.7876 24.8109 31.35V18.15Z" fill="#999999"/>
</g>
</g>
</svg>
