<svg width="48" height="48" viewBox="0 0 48 48" fill="none" xmlns="http://www.w3.org/2000/svg">
<path d="M0 24C-4.69644e-08 27.1517 0.620779 30.2726 1.82689 33.1844C3.033 36.0962 4.80083 38.742 7.02944 40.9706C9.25804 43.1992 11.9038 44.967 14.8156 46.1731C17.7274 47.3792 20.8483 48 24 48C27.1517 48 30.2726 47.3792 33.1844 46.1731C36.0962 44.967 38.742 43.1992 40.9706 40.9706C43.1992 38.742 44.967 36.0962 46.1731 33.1844C47.3792 30.2726 48 27.1517 48 24C48 17.6348 45.4714 11.5303 40.9706 7.02944C36.4697 2.52856 30.3652 0 24 0C17.6348 0 11.5303 2.52856 7.02944 7.02944C2.52856 11.5303 0 17.6348 0 24Z" fill="#008DFF"/>
<path d="M33.2738 33.8181C33.7078 33.8181 34.124 33.9905 34.4309 34.2974C34.7378 34.6042 34.9102 35.0205 34.9102 35.4545C34.9102 35.8884 34.7378 36.3047 34.4309 36.6115C34.124 36.9184 33.7078 37.0908 33.2738 37.0908H14.7283C14.2943 37.0908 13.8781 36.9184 13.5713 36.6115C13.2644 36.3047 13.092 35.8884 13.092 35.4545C13.092 35.0205 13.2644 34.6042 13.5713 34.2974C13.8781 33.9905 14.2943 33.8181 14.7283 33.8181H33.2738ZM14.1829 22.909C15.0509 22.909 15.8833 23.2538 16.4971 23.8676C17.1108 24.4813 17.4556 25.3137 17.4556 26.1817C17.4556 27.0497 17.1108 27.8821 16.4971 28.4959C15.8833 29.1097 15.0509 29.4545 14.1829 29.4545C13.3149 29.4545 12.4825 29.1097 11.8687 28.4959C11.255 27.8821 10.9102 27.0497 10.9102 26.1817C10.9102 25.3137 11.255 24.4813 11.8687 23.8676C12.4825 23.2538 13.3149 22.909 14.1829 22.909ZM24.0011 22.909C24.869 22.909 25.7015 23.2538 26.3152 23.8676C26.929 24.4813 27.2738 25.3137 27.2738 26.1817C27.2738 27.0497 26.929 27.8821 26.3152 28.4959C25.7015 29.1097 24.869 29.4545 24.0011 29.4545C23.1331 29.4545 22.3007 29.1097 21.6869 28.4959C21.0731 27.8821 20.7283 27.0497 20.7283 26.1817C20.7283 25.3137 21.0731 24.4813 21.6869 23.8676C22.3007 23.2538 23.1331 22.909 24.0011 22.909ZM33.8192 22.909C34.6872 22.909 35.5197 23.2538 36.1334 23.8676C36.7472 24.4813 37.092 25.3137 37.092 26.1817C37.092 27.0497 36.7472 27.8821 36.1334 28.4959C35.5197 29.1097 34.6872 29.4545 33.8192 29.4545C32.9513 29.4545 32.1188 29.1097 31.5051 28.4959C30.8913 27.8821 30.5465 27.0497 30.5465 26.1817C30.5465 25.3137 30.8913 24.4813 31.5051 23.8676C32.1188 23.2538 32.9513 22.909 33.8192 22.909ZM14.1829 13.0908C15.0509 13.0908 15.8833 13.4356 16.4971 14.0494C17.1108 14.6631 17.4556 15.4956 17.4556 16.3635C17.4556 17.2315 17.1108 18.064 16.4971 18.6777C15.8833 19.2915 15.0509 19.6363 14.1829 19.6363C13.3149 19.6363 12.4825 19.2915 11.8687 18.6777C11.255 18.064 10.9102 17.2315 10.9102 16.3635C10.9102 15.4956 11.255 14.6631 11.8687 14.0494C12.4825 13.4356 13.3149 13.0908 14.1829 13.0908ZM24.0011 13.0908C24.869 13.0908 25.7015 13.4356 26.3152 14.0494C26.929 14.6631 27.2738 15.4956 27.2738 16.3635C27.2738 17.2315 26.929 18.064 26.3152 18.6777C25.7015 19.2915 24.869 19.6363 24.0011 19.6363C23.1331 19.6363 22.3007 19.2915 21.6869 18.6777C21.0731 18.064 20.7283 17.2315 20.7283 16.3635C20.7283 15.4956 21.0731 14.6631 21.6869 14.0494C22.3007 13.4356 23.1331 13.0908 24.0011 13.0908ZM33.8192 13.0908C34.6872 13.0908 35.5197 13.4356 36.1334 14.0494C36.7472 14.6631 37.092 15.4956 37.092 16.3635C37.092 17.2315 36.7472 18.064 36.1334 18.6777C35.5197 19.2915 34.6872 19.6363 33.8192 19.6363C32.9513 19.6363 32.1188 19.2915 31.5051 18.6777C30.8913 18.064 30.5465 17.2315 30.5465 16.3635C30.5465 15.4956 30.8913 14.6631 31.5051 14.0494C32.1188 13.4356 32.9513 13.0908 33.8192 13.0908Z" fill="white"/>
</svg>
