<svg width="48" height="48" viewBox="0 0 48 48" fill="none" xmlns="http://www.w3.org/2000/svg">
<g id="&#232;&#161;&#168;&#230;&#131;&#133;2">
<path id="&#229;&#189;&#162;&#231;&#138;&#182;" fill-rule="evenodd" clip-rule="evenodd" d="M0 24C0 10.7451 10.7451 0 24 0C37.2549 0 48 10.7451 48 24C48 37.2549 37.2549 48 24 48C10.7451 48 0 37.2549 0 24ZM14.3849 13.822C12.6148 13.822 11.1797 15.2568 11.1797 17.0269C11.1797 18.7973 12.6148 20.2321 14.3849 20.2321C16.1553 20.2321 17.5898 18.797 17.5898 17.0269C17.5898 15.2568 16.155 13.822 14.3849 13.822ZM23.9263 35.6552C19.4739 35.6552 15.827 32.2055 15.5144 27.8319C18.8382 27.7776 22.5138 27.7996 25.8818 27.8197H25.8821C28.2663 27.8339 30.4964 27.8472 32.3385 27.8319C32.0259 32.205 28.379 35.6552 23.9263 35.6552ZM30.4095 17.0269C30.4095 18.7973 31.8443 20.2321 33.6147 20.2321C35.3851 20.2321 36.8194 18.797 36.8194 17.0269C36.8194 15.2568 35.3851 13.822 33.6147 13.822C31.8443 13.822 30.4095 15.2568 30.4095 17.0269Z" fill="#C8CDD1"/>
</g>
</svg>
