<svg width="48" height="48" viewBox="0 0 48 48" fill="none" xmlns="http://www.w3.org/2000/svg">
<path id="Vector" d="M24.0272 0C27.325 0 30.4326 0.62585 33.3499 1.87755C36.2673 3.12925 38.8131 4.84354 40.9875 7.02041C43.1619 9.19728 44.8743 11.746 46.1246 14.6667C47.3749 17.5873 48 20.6984 48 24C48 27.3379 47.3749 30.4581 46.1246 33.3605C44.8743 36.263 43.1619 38.8027 40.9875 40.9796C38.8131 43.1565 36.2673 44.8708 33.3499 46.1225C30.4326 47.3741 27.325 48 24.0272 48C20.6931 48 17.5674 47.3741 14.6501 46.1225C11.7327 44.8708 9.18686 43.1565 7.01246 40.9796C4.83805 38.8027 3.12571 36.263 1.87542 33.3605C0.625142 30.4581 0 27.3379 0 24C0 20.6984 0.625142 17.5873 1.87542 14.6667C3.12571 11.746 4.83805 9.19728 7.01246 7.02041C9.18686 4.84354 11.7327 3.12925 14.6501 1.87755C17.5674 0.62585 20.6931 0 24.0272 0ZM37.7259 27.3197C38.6682 27.3197 39.4655 26.9841 40.1178 26.3129C40.7701 25.6417 41.0963 24.8345 41.0963 23.8912C41.0963 22.9478 40.7701 22.1497 40.1178 21.4966C39.4655 20.8435 38.6682 20.517 37.7259 20.517H27.5062V10.2857C27.5062 9.3424 27.171 8.53515 26.5006 7.86395C25.8301 7.19274 25.0238 6.85714 24.0815 6.85714C23.1393 6.85714 22.342 7.19274 21.6897 7.86395C21.0374 8.53515 20.7112 9.3424 20.7112 10.2857V20.517H10.4915C9.54926 20.517 8.75198 20.8435 8.09966 21.4966C7.44734 22.1497 7.12118 22.9478 7.12118 23.8912C7.12118 24.8345 7.44734 25.6417 8.09966 26.3129C8.75198 26.9841 9.54926 27.3197 10.4915 27.3197H20.7112V37.4966C20.7112 38.4399 21.0374 39.2472 21.6897 39.9184C22.342 40.5896 23.1393 40.9252 24.0815 40.9252C25.0238 40.9252 25.8301 40.5896 26.5006 39.9184C27.171 39.2472 27.5062 38.4399 27.5062 37.4966V27.3197H37.7259Z" fill="#C8CDD1"/>
</svg>
