<svg width="38" height="38" viewBox="0 0 38 38" fill="none" xmlns="http://www.w3.org/2000/svg">
<g id="Mask group">
<mask id="mask0_396_6434" style="mask-type:alpha" maskUnits="userSpaceOnUse" x="0" y="0" width="38" height="38">
<rect id="Rectangle 3501" width="38" height="38" fill="#D9D9D9"/>
</mask>
<g mask="url(#mask0_396_6434)">
<path id="Vector" d="M4.91842 7.6H2.9762C2.58987 7.6 2.21936 7.44987 1.94618 7.18263C1.673 6.91539 1.51953 6.55293 1.51953 6.175C1.51953 5.79707 1.673 5.43461 1.94618 5.16737C2.21936 4.90013 2.58987 4.75 2.9762 4.75H35.0229C35.4092 4.75 35.7797 4.90013 36.0529 5.16737C36.3261 5.43461 36.4795 5.79707 36.4795 6.175C36.4795 6.55293 36.3261 6.91539 36.0529 7.18263C35.7797 7.44987 35.4092 7.6 35.0229 7.6H7.83175V32.775C7.83175 33.0869 7.89455 33.3957 8.01656 33.6839C8.13856 33.972 8.31739 34.2338 8.54283 34.4544C8.76827 34.6749 9.03591 34.8499 9.33046 34.9692C9.62501 35.0886 9.94071 35.15 10.2595 35.15H27.7395C28.0584 35.15 28.374 35.0886 28.6686 34.9692C28.9632 34.8499 29.2308 34.6749 29.4562 34.4544C29.6817 34.2338 29.8605 33.972 29.9825 33.6839C30.1045 33.3957 30.1673 33.0869 30.1673 32.775V11.875C30.1673 11.4971 30.3208 11.1346 30.594 10.8674C30.8671 10.6001 31.2376 10.45 31.624 10.45C32.0103 10.45 32.3808 10.6001 32.654 10.8674C32.9272 11.1346 33.0806 11.4971 33.0806 11.875V32.775C33.0806 35.6606 30.6893 38 27.7395 38H10.2595C7.30978 38 4.91842 35.6606 4.91842 32.775V7.6ZM15.1151 2.85C14.7288 2.85 14.3582 2.69987 14.0851 2.43263C13.8119 2.16539 13.6584 1.80293 13.6584 1.425C13.6584 1.04707 13.8119 0.684612 14.0851 0.417373C14.3582 0.150133 14.7288 0 15.1151 0H22.884C23.2703 0 23.6408 0.150133 23.914 0.417373C24.1872 0.684612 24.3406 1.04707 24.3406 1.425C24.3406 1.80293 24.1872 2.16539 23.914 2.43263C23.6408 2.69987 23.2703 2.85 22.884 2.85H15.1151ZM13.6584 15.675C13.6584 15.2971 13.8119 14.9346 14.0851 14.6674C14.3582 14.4001 14.7288 14.25 15.1151 14.25C15.5014 14.25 15.8719 14.4001 16.1451 14.6674C16.4183 14.9346 16.5718 15.2971 16.5718 15.675V27.075C16.5718 27.4529 16.4183 27.8154 16.1451 28.0826C15.8719 28.3499 15.5014 28.5 15.1151 28.5C14.7288 28.5 14.3582 28.3499 14.0851 28.0826C13.8119 27.8154 13.6584 27.4529 13.6584 27.075V15.675ZM21.4273 15.675C21.4273 15.2971 21.5808 14.9346 21.854 14.6674C22.1271 14.4001 22.4976 14.25 22.884 14.25C23.2703 14.25 23.6408 14.4001 23.914 14.6674C24.1872 14.9346 24.3406 15.2971 24.3406 15.675V27.075C24.3406 27.4529 24.1872 27.8154 23.914 28.0826C23.6408 28.3499 23.2703 28.5 22.884 28.5C22.4976 28.5 22.1271 28.3499 21.854 28.0826C21.5808 27.8154 21.4273 27.4529 21.4273 27.075V15.675Z" fill="white"/>
</g>
</g>
</svg>
