<svg width="84" height="84" viewBox="0 0 84 84" fill="none" xmlns="http://www.w3.org/2000/svg">
<g id="Group 39796">
<circle id="Ellipse 153" cx="42" cy="42" r="42" fill="#008DFF"/>
<path id="Vector" d="M55.3733 24C56.1893 24.7463 56.8391 25.3657 57.3227 25.8582C57.8062 26.3507 58.1764 26.7687 58.4333 27.1119C58.6902 27.4552 58.8489 27.7463 58.9093 27.9851C58.9698 28.2239 59 28.4328 59 28.6119V29.3284H52.2907C51.9884 29.3284 51.724 29.2164 51.4973 28.9925C51.2707 28.7687 51.0818 28.5075 50.9307 28.209C50.7796 27.9104 50.6662 27.6045 50.5907 27.291C50.5151 26.9776 50.4773 26.7313 50.4773 26.5522V21H50.6133C50.8551 21 51.1044 21.0373 51.3613 21.1119C51.6182 21.1866 51.9129 21.3284 52.2453 21.5373C52.5778 21.7463 52.9933 22.0448 53.492 22.4328C53.9907 22.8209 54.6178 23.3433 55.3733 24ZM47.6213 26.597C47.6213 27.194 47.712 27.8134 47.8933 28.4552C48.0747 29.097 48.3618 29.694 48.7547 30.2463C49.1476 30.7985 49.6462 31.2537 50.2507 31.6119C50.8551 31.9701 51.5653 32.1493 52.3813 32.1493H59V57.403C59 58.2687 58.8262 59.0448 58.4787 59.7313C58.1311 60.4179 57.6702 61 57.096 61.4776C56.5218 61.9552 55.8871 62.3284 55.192 62.597C54.4969 62.8657 53.8169 63 53.152 63H30.848C30.2738 63 29.6467 62.8358 28.9667 62.5075C28.2867 62.1791 27.652 61.7463 27.0627 61.209C26.4733 60.6716 25.9822 60.0597 25.5893 59.3731C25.1964 58.6866 25 57.9701 25 57.2239V26.7761C25 26.1493 25.1436 25.5 25.4307 24.8284C25.7178 24.1567 26.1107 23.5373 26.6093 22.9701C27.108 22.403 27.6747 21.9328 28.3093 21.5597C28.944 21.1866 29.6089 21 30.304 21H47.6213V26.597ZM50.4773 54.5373C51.2631 54.5373 51.928 54.2612 52.472 53.709C53.016 53.1567 53.288 52.4925 53.288 51.7164C53.288 50.9403 53.016 50.2836 52.472 49.7463C51.928 49.209 51.2631 48.9403 50.4773 48.9403H33.4773C32.6916 48.9403 32.0267 49.209 31.4827 49.7463C30.9387 50.2836 30.6667 50.9403 30.6667 51.7164C30.6667 52.4925 30.9387 53.1567 31.4827 53.709C32.0267 54.2612 32.6916 54.5373 33.4773 54.5373H50.4773ZM53.288 40.5672C53.288 39.791 53.016 39.1269 52.472 38.5746C51.928 38.0224 51.2631 37.7463 50.4773 37.7463H33.4773C32.6916 37.7463 32.0267 38.0224 31.4827 38.5746C30.9387 39.1269 30.6667 39.791 30.6667 40.5672C30.6667 41.3433 30.9387 42 31.4827 42.5373C32.0267 43.0746 32.6916 43.3433 33.4773 43.3433H50.4773C51.2631 43.3433 51.928 43.0746 52.472 42.5373C53.016 42 53.288 41.3433 53.288 40.5672Z" fill="#C5E3FF"/>
</g>
</svg>
