<svg width="38" height="38" viewBox="0 0 38 38" fill="none" xmlns="http://www.w3.org/2000/svg">
<path id="Vector" d="M34.183 16.2857C34.183 15.2317 35.0375 14.3772 36.0915 14.3772C37.1456 14.3772 38 15.2317 38 16.2857V34.183C38 36.2911 36.2911 38 34.183 38H3.81696C1.70889 38 0 36.2911 0 34.183V3.81696C0 1.70889 1.70889 0 3.81696 0H21.7143C22.7683 0 23.6228 0.854443 23.6228 1.90848C23.6228 2.96252 22.7683 3.81696 21.7143 3.81696H3.81696V34.183H34.183V16.2857ZM34.742 0.60145C35.4873 -0.143852 36.6957 -0.143852 37.441 0.60145C38.1863 1.34675 38.1863 2.55514 37.441 3.30044L21.4522 19.2893C20.7069 20.0345 19.4985 20.0345 18.7532 19.2893C18.0079 18.5439 18.0079 17.3356 18.7532 16.5902L34.742 0.60145Z" fill="white"/>
</svg>
