<svg width="39" height="38" viewBox="0 0 39 38" fill="none" xmlns="http://www.w3.org/2000/svg">
<g id="Group 39805">
<path id="Vector" d="M33.8301 30.762H29.6033C28.6039 30.762 27.7939 29.9525 27.7939 28.9526C27.7939 27.9527 28.6043 27.1432 29.6033 27.1432H33.8301C34.2358 27.1432 34.5651 26.8129 34.5651 26.4082V4.35422C34.5651 3.94948 34.2353 3.61925 33.8301 3.61925H11.7766C11.371 3.61925 11.0416 3.94948 11.0416 4.35422V8.53321C11.0416 9.53358 10.2312 10.3426 9.23224 10.3426C8.23326 10.3426 7.42285 9.53312 7.42285 8.53321V4.35422C7.42285 1.95289 9.3762 0 11.7771 0H33.8306C36.231 0 38.1848 1.95243 38.1848 4.35422V26.4077C38.1844 28.8091 36.2305 30.762 33.8301 30.762Z" fill="white"/>
<path id="Vector_2" d="M26.5923 38.0003H4.53879C2.13838 38.0003 0.18457 36.0478 0.18457 33.646V11.5925C0.18457 9.19117 2.13792 7.23828 4.53879 7.23828H26.5923C28.9927 7.23828 30.9465 9.19071 30.9465 11.5925V33.646C30.9461 36.0478 28.9927 38.0003 26.5923 38.0003ZM4.53879 10.8575C4.13313 10.8575 3.80382 11.1878 3.80382 11.5925V33.646C3.80382 34.0508 4.13359 34.381 4.53879 34.381H26.5923C26.998 34.381 27.3273 34.0508 27.3273 33.646V11.5925C27.3273 11.1878 26.9975 10.8575 26.5923 10.8575H4.53879Z" fill="white"/>
</g>
</svg>
