<svg width="48" height="48" viewBox="0 0 48 48" fill="none" xmlns="http://www.w3.org/2000/svg">
<path d="M0 24C-4.69644e-08 27.1517 0.620779 30.2726 1.82689 33.1844C3.033 36.0962 4.80083 38.742 7.02944 40.9706C9.25804 43.1992 11.9038 44.967 14.8156 46.1731C17.7274 47.3792 20.8483 48 24 48C27.1517 48 30.2726 47.3792 33.1844 46.1731C36.0962 44.967 38.742 43.1992 40.9706 40.9706C43.1992 38.742 44.967 36.0962 46.1731 33.1844C47.3792 30.2726 48 27.1517 48 24C48 17.6348 45.4714 11.5303 40.9706 7.02944C36.4697 2.52856 30.3652 0 24 0C17.6348 0 11.5303 2.52856 7.02944 7.02944C2.52856 11.5303 0 17.6348 0 24Z" fill="#008DFF"/>
<path d="M28.0958 10.851L28.3205 11.0692C35.658 18.2932 35.6504 29.7095 28.3031 36.9237L28.0762 37.1441L28.0576 37.1615C27.7275 37.4692 27.2925 37.6393 26.8413 37.6372C26.3744 37.6372 25.9282 37.4582 25.6031 37.1408C25.4548 36.9957 25.337 36.8225 25.2565 36.6313C25.176 36.4402 25.1344 36.2349 25.1342 36.0274C25.134 35.82 25.1752 35.6146 25.2553 35.4233C25.3355 35.232 25.4529 35.0585 25.6009 34.9132L25.6064 34.9077L25.7918 34.7288C31.8835 28.779 31.8835 19.3317 25.7951 13.3819L25.6064 13.2008L25.5856 13.1812C25.4277 13.0303 25.3024 12.8486 25.2175 12.6474C25.1325 12.4462 25.0897 12.2297 25.0918 12.0113C25.0938 11.7929 25.1406 11.5773 25.2293 11.3777C25.318 11.1781 25.4467 10.9989 25.6075 10.851C25.9463 10.5386 26.3903 10.3652 26.8511 10.3652C27.3119 10.3652 27.7559 10.5386 28.0947 10.851H28.0958ZM21.3987 15.6837L21.4249 15.7055L21.4304 15.711L21.5744 15.8484C26.2631 20.4302 26.2642 27.5757 21.5755 32.1575L21.4238 32.3037L21.4173 32.3092L21.3965 32.3255C21.061 32.5858 20.6484 32.727 20.2238 32.727C19.7992 32.727 19.3866 32.5858 19.0511 32.3255L19.0205 32.3015L19.0107 32.2928L18.9933 32.2742C18.8499 32.131 18.7365 31.9606 18.6597 31.773C18.5829 31.5855 18.5442 31.3845 18.5458 31.1819C18.5474 30.9792 18.5894 30.7789 18.6692 30.5926C18.749 30.4063 18.8651 30.2378 19.0107 30.0968L19.0184 30.0902L19.1264 29.9899C22.6315 26.6506 22.6315 21.3597 19.1264 18.0193L19.014 17.9135L19.0085 17.9092L18.9911 17.8895C18.7076 17.5982 18.5504 17.2069 18.5537 16.8005C18.557 16.394 18.7204 16.0053 19.0085 15.7186L19.0173 15.7077L19.0282 15.7001L19.0478 15.6837C19.3821 15.4183 19.7964 15.2739 20.2233 15.2739C20.6501 15.2739 21.0644 15.4183 21.3987 15.6837ZM15.0147 21.9837C15.4142 22.1484 15.7558 22.4281 15.9962 22.7872C16.2366 23.1463 16.3649 23.5687 16.3649 24.0008C16.3649 24.4329 16.2366 24.8553 15.9962 25.2144C15.7558 25.5735 15.4142 25.8532 15.0147 26.0179C14.2075 26.3517 13.2802 26.1695 12.6573 25.5553L12.6387 25.5368L12.6191 25.5172C12.2219 25.1118 11.9996 24.5668 12 23.9993C12.0004 23.4317 12.2235 22.887 12.6213 22.4822L12.6398 22.4637L12.6584 22.4452C12.9625 22.1455 13.3481 21.9419 13.7671 21.8599C14.1861 21.7778 14.62 21.8209 15.0147 21.9837Z" fill="white"/>
</svg>
