<svg width="44" height="44" viewBox="0 0 44 44" fill="none" xmlns="http://www.w3.org/2000/svg">
<g id="&#232;&#189;&#172;&#229;&#143;&#145; 1">
<path id="Vector" d="M41.9891 25.3734C40.8762 25.3734 39.9781 26.2758 39.9781 27.3844V28.2094C39.9781 32.7684 36.2656 36.4809 31.7066 36.4809H12.2934C7.73438 36.4809 4.02187 32.7684 4.02187 28.2094V15.7914C4.02187 11.2324 7.73438 7.51992 12.2934 7.51992H20.1094C21.2223 7.51992 22.1203 6.61758 22.1203 5.50898C22.1203 4.40039 21.218 3.49805 20.1094 3.49805H12.2934C5.51719 3.49805 0 9.01094 0 15.7914V28.2094C0 34.9898 5.51719 40.5027 12.2934 40.5027H31.7023C38.4828 40.5027 43.9957 34.9855 43.9957 28.2094V27.3844C44 26.2715 43.0977 25.3734 41.9891 25.3734Z" fill="#008DFF"/>
<path id="Vector_2" d="M39.5574 3.49805H29.8336C28.7207 3.49805 27.8227 4.40039 27.8227 5.50898C27.8227 6.61758 28.725 7.51992 29.8336 7.51992H37.134L30.418 14.2359C28.3512 16.3027 25.6012 17.4414 22.675 17.4414H14.468C13.3551 17.4414 12.457 18.3438 12.457 19.4523C12.457 20.5652 13.3594 21.4633 14.468 21.4633H22.675C26.6754 21.4633 30.4352 19.9078 33.2625 17.0805L39.9742 10.3687V17.6605C39.9742 18.7734 40.8766 19.6715 41.9852 19.6715C43.098 19.6715 43.9961 18.7691 43.9961 17.6605V7.94102C44.0004 5.4875 42.0066 3.49805 39.5574 3.49805Z" fill="#008DFF"/>
</g>
</svg>
