<svg width="30" height="30" viewBox="0 0 30 30" fill="none" xmlns="http://www.w3.org/2000/svg">
<path id="Vector" d="M15 0C6.85714 0 0 6.85714 0 15C0 23.1429 6.85714 30 15 30C23.1429 30 30 23.1429 30 15C30 6.85714 23.1429 0 15 0ZM21.4286 19.2857C22.0714 19.9286 22.0714 20.7857 21.4286 21.2143C20.7857 21.8571 19.9286 21.8571 19.5 21.2143L15.2143 16.9286L10.7143 21.4286C10.0714 22.0714 9.21429 22.0714 8.57143 21.4286C7.92857 20.7857 7.92857 19.7143 8.57143 19.2857L13.0714 14.7857L8.78571 10.5C8.14286 10.0714 8.14286 9.21429 8.78571 8.57143C9.42857 7.92857 10.2857 7.92857 10.7143 8.57143L15 12.8571L19.5 8.35714C20.1429 7.71429 21 7.71429 21.6429 8.35714C22.2857 9 22.2857 9.85714 21.6429 10.5L17.1429 15L21.4286 19.2857Z" fill="#787878"/>
</svg>
