<svg width="44" height="44" viewBox="0 0 44 44" fill="none" xmlns="http://www.w3.org/2000/svg">
<g id="Group 39756">
<path id="Vector" d="M41.5482 11.8955C41.2829 11.3796 40.7473 11.0209 40.1282 11.0209C39.2536 11.0209 38.5461 11.7284 38.5461 12.5981C38.5461 12.8929 38.6296 13.173 38.7721 13.4088L38.7672 13.4137C40.0889 15.9884 40.8357 18.907 40.8357 21.9975C40.8357 32.3944 32.4042 40.8259 22.0074 40.8259C11.6105 40.8259 3.17409 32.3944 3.17409 21.9975C3.17409 11.6007 11.6056 3.17409 22.0025 3.17409C25.0734 3.17409 27.9723 3.91111 30.5322 5.21318L30.542 5.19352C30.7681 5.32127 31.0334 5.39497 31.3135 5.39497C32.188 5.39497 32.8956 4.68744 32.8956 3.81776C32.8956 3.17409 32.5074 2.61887 31.9473 2.3732C28.9599 0.854942 25.5844 0 22.0025 0C9.85148 0 0 9.85148 0 21.9975C0 34.1436 9.85148 43.9951 22.0025 43.9951C34.1534 43.9951 44 34.1485 44 21.9975C44 18.3567 43.1156 14.9222 41.5482 11.8955Z" fill="#008DFF"/>
<path id="Vector_2" d="M34.7627 7.67499C34.7627 7.88214 34.8036 8.08726 34.8831 8.27863C34.9627 8.47001 35.0792 8.6439 35.2261 8.79038C35.3731 8.93685 35.5475 9.05304 35.7395 9.13231C35.9315 9.21159 36.1372 9.25239 36.345 9.25239C36.5528 9.25239 36.7586 9.21159 36.9505 9.13231C37.1425 9.05304 37.3169 8.93685 37.4639 8.79038C37.6108 8.6439 37.7273 8.47001 37.8069 8.27863C37.8864 8.08726 37.9273 7.88214 37.9273 7.67499C37.9273 7.46784 37.8864 7.26273 37.8069 7.07135C37.7273 6.87997 37.6108 6.70608 37.4639 6.5596C37.3169 6.41313 37.1425 6.29694 36.9505 6.21767C36.7586 6.1384 36.5528 6.0976 36.345 6.0976C36.1372 6.0976 35.9315 6.1384 35.7395 6.21767C35.5475 6.29694 35.3731 6.41313 35.2261 6.5596C35.0792 6.70608 34.9627 6.87997 34.8831 7.07135C34.8036 7.26273 34.7627 7.46784 34.7627 7.67499Z" fill="#008DFF"/>
<path id="Vector_3" d="M22.0715 31.4756C22.9313 31.4756 23.6389 30.773 23.6389 29.9082V23.6239H29.9183C30.7781 23.6239 31.4857 22.9213 31.4857 22.0565C31.4857 21.1966 30.783 20.4891 29.9183 20.4891H23.6389V14.2048C23.6389 13.3449 22.9362 12.6374 22.0715 12.6374C21.2116 12.6374 20.5041 13.34 20.5041 14.2048V20.4891H14.2149C13.355 20.4891 12.6475 21.1917 12.6475 22.0565C12.6475 22.9213 13.355 23.6239 14.2149 23.6239H20.5041V29.9082C20.5041 30.768 21.2067 31.4756 22.0715 31.4756Z" fill="#008DFF"/>
</g>
</svg>
