<svg width="60" height="60" viewBox="0 0 60 60" fill="none" xmlns="http://www.w3.org/2000/svg">
<g id="Group 39996">
<path id="Vector" d="M53.4146 44.0922C51.5374 42.2135 49.3439 40.68 46.9347 39.5623C48.6748 38.1574 50.0779 36.3804 51.041 34.362C52.004 32.3435 52.5024 30.1349 52.4996 27.8985C52.4996 19.5886 45.5697 12.7727 37.2599 12.8987C34.1788 12.9472 31.1874 13.943 28.6921 15.7508C26.1967 17.5587 24.3184 20.0909 23.3124 23.0035C22.3064 25.9161 22.2214 29.0677 23.069 32.0303C23.9166 34.9928 25.6557 37.6226 28.05 39.5623C25.6403 40.6792 23.4467 42.2127 21.5701 44.0922C17.4936 48.1535 15.1404 53.6304 15.0002 59.383C14.9982 59.4631 15.0122 59.5427 15.0415 59.6172C15.0707 59.6918 15.1146 59.7597 15.1705 59.817C15.2264 59.8743 15.2933 59.9199 15.3671 59.9509C15.4408 59.982 15.5201 59.998 15.6002 59.998H19.8001C19.9552 59.9981 20.1043 59.9382 20.2161 59.8308C20.328 59.7235 20.3939 59.5769 20.4001 59.422C20.5321 55.0855 22.3219 50.9646 25.401 47.9082C26.9862 46.3145 28.8717 45.0511 30.9485 44.1911C33.0253 43.3311 35.2521 42.8917 37.4999 42.8983C42.0658 42.8983 46.3647 44.6772 49.5957 47.9082C52.67 50.9682 54.4599 55.0866 54.5996 59.422C54.6058 59.5769 54.6717 59.7235 54.7836 59.8308C54.8955 59.9382 55.0445 59.9981 55.1996 59.998H59.3995C59.4796 59.998 59.5589 59.982 59.6327 59.9509C59.7064 59.9199 59.7733 59.8743 59.8292 59.817C59.8851 59.7597 59.929 59.6918 59.9582 59.6172C59.9875 59.5427 60.0015 59.4631 59.9995 59.383C59.8606 53.6272 57.5011 48.1481 53.4146 44.0922ZM37.4999 37.4983C34.9349 37.4983 32.5199 36.5023 30.711 34.6874C29.8041 33.7874 29.0878 32.7139 28.6048 31.531C28.1219 30.3481 27.8822 29.08 27.9 27.8025C27.9281 25.2911 28.9379 22.8905 30.7136 21.1143C32.4892 19.3381 34.8895 18.3275 37.4009 18.2986C39.9489 18.277 42.4022 19.2637 44.2258 21.0436C46.0857 22.8675 47.1057 25.3035 47.1057 27.8985C47.1057 30.4634 46.1097 32.8724 44.2948 34.6874C43.4042 35.5819 42.3452 36.2909 41.1788 36.7734C40.0125 37.2559 38.7621 37.5023 37.4999 37.4983Z" fill="#FFAC54"/>
<path id="Vector_2" d="M18.7109 29.8784C18.5201 28.0555 18.5929 26.2146 18.9269 24.4124C18.9523 24.2807 18.933 24.1443 18.8722 24.0248C18.8113 23.9052 18.7123 23.8094 18.5909 23.7524C17.5644 23.2936 16.6278 22.6556 15.825 21.8685C14.8702 20.9432 14.1188 19.8291 13.6188 18.5971C13.1188 17.3652 12.8811 16.0425 12.921 14.7136C12.9871 12.3067 13.96 10.0137 15.645 8.29368C16.5509 7.35933 17.6382 6.62002 18.8402 6.12116C20.0423 5.6223 21.3336 5.37441 22.6349 5.39272C24.2265 5.40764 25.7894 5.81858 27.1825 6.58847C28.5757 7.35836 29.7552 8.46297 30.6147 9.80266C30.6876 9.9143 30.7956 9.99849 30.9216 10.0419C31.0476 10.0854 31.1845 10.0857 31.3107 10.0427C32.6307 9.58366 34.0257 9.26266 35.4597 9.11267C35.5565 9.10242 35.6494 9.06875 35.7304 9.01456C35.8113 8.96037 35.8778 8.8873 35.9242 8.80165C35.9705 8.716 35.9954 8.62036 35.9965 8.52297C35.9976 8.42558 35.975 8.32938 35.9307 8.24268C34.6941 5.79868 32.813 3.73915 30.4908 2.28671C28.1686 0.834266 25.4936 0.044162 22.7549 0.00180068C14.436 -0.127197 7.50608 6.6917 7.50608 14.9926C7.50608 19.7025 9.67504 23.9024 13.071 26.6534C10.659 27.7693 8.46319 29.3029 6.58509 31.1833C2.49677 35.2416 0.137097 40.7242 0.000187544 46.4831C-0.00181422 46.5632 0.0122257 46.6428 0.0414806 46.7173C0.0707355 46.7919 0.114613 46.8598 0.170528 46.9171C0.226443 46.9744 0.293264 47.02 0.367054 47.051C0.440843 47.0821 0.520108 47.0981 0.600179 47.0981H4.80612C4.96117 47.0982 5.11025 47.0383 5.22211 46.9309C5.33396 46.8236 5.39991 46.677 5.40611 46.5221C5.53888 42.1852 7.32982 38.0643 10.41 35.0083C12.5731 32.8326 15.2868 31.2855 18.2609 30.5323C18.4027 30.4969 18.5267 30.4108 18.6095 30.2904C18.6924 30.17 18.7284 30.0235 18.7109 29.8784Z" fill="#FFAC54"/>
</g>
</svg>
