<svg width="60" height="60" viewBox="0 0 60 60" fill="none" xmlns="http://www.w3.org/2000/svg">
<g id="icon-&#230;&#137;&#171;&#228;&#184;&#128;&#230;&#137;&#171; 1">
<path id="Vector" d="M19.1111 8.22222H16.1991C13.4256 8.22222 12.4191 8.51156 11.4049 9.05289C10.4028 9.58335 9.58335 10.4028 9.05289 11.4049C8.51156 12.4191 8.22222 13.4256 8.22222 16.1991V19.1111C8.22228 19.5197 8.14185 19.9243 7.98552 20.3018C7.8292 20.6793 7.60004 21.0223 7.31114 21.3113C7.02225 21.6002 6.67926 21.8294 6.30178 21.9858C5.92429 22.1421 5.5197 22.2226 5.11111 22.2226C4.70252 22.2226 4.29793 22.1421 3.92045 21.9858C3.54296 21.8294 3.19998 21.6002 2.91108 21.3113C2.62218 21.0223 2.39302 20.6793 2.2367 20.3018C2.08038 19.9243 1.99995 19.5197 2 19.1111V17.9538C2 12.4051 2.57711 10.3938 3.66289 8.36689C4.72381 6.36273 6.36273 4.72381 8.36689 3.66289C10.3938 2.57556 12.4051 2 17.9538 2H19.1111C19.5197 1.99995 19.9243 2.08038 20.3018 2.2367C20.6793 2.39302 21.0223 2.62218 21.3113 2.91108C21.6002 3.19998 21.8294 3.54296 21.9858 3.92045C22.1421 4.29793 22.2226 4.70252 22.2226 5.11111C22.2226 5.5197 22.1421 5.92429 21.9858 6.30178C21.8294 6.67926 21.6002 7.02225 21.3113 7.31114C21.0223 7.60004 20.6793 7.8292 20.3018 7.98552C19.9243 8.14185 19.5197 8.22228 19.1111 8.22222ZM19.1111 58H17.9538C12.4051 58 10.3938 57.4229 8.36689 56.3371C6.36273 55.2762 4.72381 53.6373 3.66289 51.6331C2.57556 49.6062 2 47.5949 2 42.0462V40.8889C1.99995 40.4803 2.08038 40.0757 2.2367 39.6982C2.39302 39.3207 2.62218 38.9777 2.91108 38.6887C3.19998 38.3998 3.54296 38.1706 3.92045 38.0142C4.29793 37.8579 4.70252 37.7774 5.11111 37.7774C5.5197 37.7774 5.92429 37.8579 6.30178 38.0142C6.67926 38.1706 7.02225 38.3998 7.31114 38.6887C7.60004 38.9777 7.8292 39.3207 7.98552 39.6982C8.14185 40.0757 8.22228 40.4803 8.22222 40.8889V43.8009C8.22222 46.5744 8.51156 47.5809 9.05289 48.5951C9.59578 49.6093 10.3907 50.4042 11.4049 50.9471C12.4191 51.4884 13.4256 51.7778 16.1991 51.7778H19.1111C19.5197 51.7777 19.9243 51.8582 20.3018 52.0145C20.6793 52.1708 21.0223 52.4 21.3113 52.6889C21.6002 52.9778 21.8294 53.3207 21.9858 53.6982C22.1421 54.0757 22.2226 54.4803 22.2226 54.8889C22.2226 55.2975 22.1421 55.7021 21.9858 56.0796C21.8294 56.457 21.6002 56.8 21.3113 57.0889C21.0223 57.3778 20.6793 57.607 20.3018 57.7633C19.9243 57.9196 19.5197 58.0001 19.1111 58ZM40.8889 2H42.0462C47.5949 2 49.6062 2.57711 51.6331 3.66289C53.6373 4.72381 55.2762 6.36273 56.3371 8.36689C57.4244 10.3938 58 12.4051 58 17.9538V19.1111C58.0001 19.5197 57.9196 19.9243 57.7633 20.3018C57.607 20.6793 57.3778 21.0223 57.0889 21.3113C56.8 21.6002 56.457 21.8294 56.0796 21.9858C55.7021 22.1421 55.2975 22.2226 54.8889 22.2226C54.4803 22.2226 54.0757 22.1421 53.6982 21.9858C53.3207 21.8294 52.9778 21.6002 52.6889 21.3113C52.4 21.0223 52.1708 20.6793 52.0145 20.3018C51.8582 19.9243 51.7777 19.5197 51.7778 19.1111V16.1991C51.7778 13.4256 51.4884 12.4191 50.9471 11.4049C50.4167 10.4028 49.5972 9.58335 48.5951 9.05289C47.5809 8.51156 46.5744 8.22222 43.8009 8.22222H40.8889C40.4803 8.22228 40.0757 8.14185 39.6982 7.98552C39.3207 7.8292 38.9777 7.60004 38.6887 7.31114C38.3998 7.02225 38.1706 6.67926 38.0142 6.30178C37.8579 5.92429 37.7774 5.5197 37.7774 5.11111C37.7774 4.70252 37.8579 4.29793 38.0142 3.92045C38.1706 3.54296 38.3998 3.19998 38.6887 2.91108C38.9777 2.62218 39.3207 2.39302 39.6982 2.2367C40.0757 2.08038 40.4803 1.99995 40.8889 2ZM40.8889 51.7778H43.8009C46.5744 51.7778 47.5809 51.4884 48.5951 50.9471C49.5972 50.4167 50.4167 49.5972 50.9471 48.5951C51.4884 47.5809 51.7778 46.5744 51.7778 43.8009V40.8889C51.7777 40.4803 51.8582 40.0757 52.0145 39.6982C52.1708 39.3207 52.4 38.9777 52.6889 38.6887C52.9778 38.3998 53.3207 38.1706 53.6982 38.0142C54.0757 37.8579 54.4803 37.7774 54.8889 37.7774C55.2975 37.7774 55.7021 37.8579 56.0796 38.0142C56.457 38.1706 56.8 38.3998 57.0889 38.6887C57.3778 38.9777 57.607 39.3207 57.7633 39.6982C57.9196 40.0757 58.0001 40.4803 58 40.8889V42.0462C58 47.5949 57.4229 49.6062 56.3371 51.6331C55.2762 53.6373 53.6373 55.2762 51.6331 56.3371C49.6062 57.4244 47.5949 58 42.0462 58H40.8889C40.4803 58.0001 40.0757 57.9196 39.6982 57.7633C39.3207 57.607 38.9777 57.3778 38.6887 57.0889C38.3998 56.8 38.1706 56.457 38.0142 56.0796C37.8579 55.7021 37.7774 55.2975 37.7774 54.8889C37.7774 54.4803 37.8579 54.0757 38.0142 53.6982C38.1706 53.3207 38.3998 52.9778 38.6887 52.6889C38.9777 52.4 39.3207 52.1708 39.6982 52.0145C40.0757 51.8582 40.4803 51.7777 40.8889 51.7778ZM5.11111 26.8889H54.8889C55.714 26.8889 56.5053 27.2167 57.0888 27.8001C57.6722 28.3836 58 29.1749 58 30C58 30.8251 57.6722 31.6164 57.0888 32.1999C56.5053 32.7833 55.714 33.1111 54.8889 33.1111H5.11111C4.28599 33.1111 3.49467 32.7833 2.91122 32.1999C2.32778 31.6164 2 30.8251 2 30C2 29.1749 2.32778 28.3836 2.91122 27.8001C3.49467 27.2167 4.28599 26.8889 5.11111 26.8889Z" fill="#4280C9"/>
</g>
</svg>
