<svg width="60" height="60" viewBox="0 0 60 60" fill="none" xmlns="http://www.w3.org/2000/svg">
<g id="Frame 41">
<g id="Group 39997">
<path id="Vector" d="M57.6666 48.9298H51.8684V43.1096C51.8684 42.955 51.8073 42.8067 51.6986 42.697C51.5898 42.5874 51.4422 42.5254 51.288 42.5246H47.8084C47.6548 42.5254 47.5076 42.587 47.3989 42.696C47.2902 42.805 47.2288 42.9525 47.228 43.1066V48.9328H41.4328C41.2791 48.9336 41.132 48.9951 41.0233 49.1041C40.9146 49.2131 40.8532 49.3607 40.8524 49.5148V53.0099C40.8524 53.3309 41.1127 53.5919 41.4328 53.5919H47.231V59.418C47.231 59.739 47.4913 60 47.8114 60H51.291C51.4447 59.9992 51.5918 59.9376 51.7005 59.8287C51.8092 59.7197 51.8706 59.5721 51.8714 59.418V53.5919H57.6696C57.7458 53.5919 57.8213 53.5768 57.8917 53.5476C57.9621 53.5183 58.0261 53.4754 58.08 53.4214C58.1339 53.3674 58.1766 53.3032 58.2058 53.2326C58.235 53.162 58.25 53.0863 58.25 53.0099V49.5148C58.2492 49.3607 58.1878 49.2131 58.0791 49.1041C57.9704 48.9951 57.8233 48.9336 57.6696 48.9328L57.6666 48.9298ZM20.08 29.0094C19.8955 27.2384 19.966 25.4501 20.2894 23.6993C20.3131 23.5716 20.2939 23.4397 20.2349 23.3241C20.1759 23.2085 20.0804 23.1157 19.9633 23.0602C18.9707 22.6153 18.065 21.9966 17.2886 21.2332C16.3663 20.334 15.6407 19.2521 15.1581 18.0564C14.6755 16.8607 14.4463 15.5774 14.4853 14.2881C14.5481 11.948 15.4845 9.72797 17.1181 8.05393C17.9923 7.14685 19.0423 6.42873 20.2036 5.94375C21.3649 5.45877 22.6128 5.21719 23.8707 5.23388C25.4101 5.24874 26.9216 5.64826 28.2683 6.39628C29.6151 7.1443 30.7545 8.21722 31.5837 9.51796C31.6542 9.62695 31.7592 9.70899 31.8818 9.75089C32.0045 9.79279 32.1376 9.79211 32.2598 9.74897C33.5574 9.29618 34.9026 8.9942 36.2689 8.84895C36.3625 8.83835 36.4521 8.80518 36.5301 8.75229C36.6082 8.69939 36.6723 8.62834 36.7169 8.54521C36.7616 8.46208 36.7856 8.36933 36.7868 8.2749C36.7879 8.18047 36.7663 8.08715 36.7237 8.00293C35.5306 5.63171 33.7136 3.63281 31.4693 2.22253C29.2249 0.812244 26.6386 0.0442903 23.9904 0.00176916C15.9572 -0.124233 9.26149 6.4969 9.26149 14.5641C9.26149 19.1362 11.3558 23.2132 14.6378 25.8863C12.3341 26.9573 10.2099 28.4364 8.36992 30.2844C4.41572 34.2264 2.13357 39.5481 2.00028 45.1377C1.99787 45.2156 2.01111 45.2932 2.0392 45.366C2.06729 45.4387 2.10966 45.505 2.1638 45.5609C2.21794 45.6169 2.28274 45.6614 2.35435 45.6917C2.42597 45.7221 2.50294 45.7377 2.5807 45.7377H6.64961C6.80019 45.7378 6.94484 45.6788 7.05271 45.5735C7.16058 45.4681 7.22313 45.3246 7.22703 45.1737C7.35517 40.9659 9.08522 36.9671 12.0619 33.9985C14.1516 31.8848 16.7754 30.3811 19.6522 29.6484C19.7872 29.6096 19.9042 29.5242 19.9825 29.4072C20.0608 29.2903 20.0953 29.1494 20.08 29.0094Z" fill="#4280C9"/>
<path id="Vector_2" d="M52.7387 27.0894C52.7416 23.2691 51.2465 19.6007 48.5761 16.8758C45.9057 14.1509 42.274 12.5879 38.4646 12.5241C30.4315 12.4011 23.7417 19.0193 23.7417 27.0864C23.7417 31.6615 25.842 35.7386 29.1181 38.4117C26.7889 39.4967 24.669 40.9856 22.8561 42.8098C18.9057 46.7502 16.6258 52.0683 16.4925 57.6541C16.4901 57.732 16.5033 57.8096 16.5314 57.8823C16.5595 57.955 16.6018 58.0213 16.656 58.0773C16.7101 58.1333 16.7749 58.1778 16.8465 58.2081C16.9182 58.2385 16.9951 58.2541 17.0729 58.2541H21.1298C21.2804 58.2549 21.4254 58.1968 21.5338 58.092C21.6423 57.9872 21.7056 57.844 21.7102 57.6931C21.8376 53.4843 23.5677 49.4842 26.5451 46.5148C28.0759 44.9676 29.8981 43.7409 31.9058 42.9061C33.9135 42.0712 36.0667 41.6449 38.2402 41.6517C40.146 41.6502 42.0328 41.2722 43.7929 40.5393C45.553 39.8064 47.1519 38.7331 48.4982 37.3805C49.8446 36.028 50.912 34.4227 51.6396 32.6564C52.3672 30.8902 52.7407 28.9975 52.7387 27.0864V27.0894ZM44.7983 33.6776C43.9399 34.5453 42.9181 35.2335 41.7923 35.7022C40.6665 36.1708 39.4591 36.4106 38.2402 36.4076C37.0207 36.4112 35.8127 36.1717 34.6864 35.703C33.56 35.2343 32.5378 34.5458 31.6791 33.6776C30.8033 32.8023 30.1114 31.7597 29.6442 30.6117C29.1771 29.4636 28.9443 28.2333 28.9595 26.9934C28.9853 24.5979 29.9278 22.3038 31.5923 20.5853C32.4435 19.7032 33.4611 18.9996 34.586 18.5155C35.7108 18.0313 36.9204 17.7763 38.1445 17.7653C40.6089 17.7462 42.9807 18.7061 44.7415 20.4353C46.5396 22.2023 47.5239 24.5694 47.5239 27.0864C47.5251 28.3107 47.2852 29.5231 46.818 30.6542C46.3507 31.7853 45.6654 32.8127 44.8013 33.6776H44.7983Z" fill="#4280C9"/>
</g>
</g>
</svg>
