<svg width="80" height="80" viewBox="0 0 80 80" fill="none" xmlns="http://www.w3.org/2000/svg">
<g id="Group 39773">
<rect id="Rectangle 3435" width="80" height="80" rx="16" fill="#4580D0"/>
<g id="Group 39760">
<g id="Group 39759">
<ellipse id="Ellipse 137" cx="35.375" cy="33.3696" rx="13.125" ry="13.3696" fill="white"/>
<path id="Rectangle 3436" d="M17 59.916C17 51.6541 23.6976 44.9565 31.9595 44.9565H37.0405C45.3024 44.9565 52 51.6541 52 59.916C52 60.5147 51.5147 61 50.916 61H18.084C17.4853 61 17 60.5147 17 59.916Z" fill="white"/>
</g>
<path id="Subtract" fill-rule="evenodd" clip-rule="evenodd" d="M50.0001 33.5C49.6384 38.9253 47.223 43.304 43.6148 45.3114C49.4563 47.6438 53.4532 53.5243 53.0491 60.1925L53.0001 61L62.1805 61C62.6331 61 63.0001 60.633 63.0001 60.1804C63.0001 55.0985 59.6487 50.7994 55.0354 49.3727C58.2803 47.811 60.5473 44.2508 60.5473 40.1087C60.5473 34.5258 56.4289 30 51.3486 30C50.7728 30 50.2093 30.0581 49.6628 30.1694C49.8831 31.2347 50.0001 32.3506 50.0001 33.5Z" fill="white"/>
</g>
</g>
</svg>
