<svg width="60" height="60" viewBox="0 0 60 60" fill="none" xmlns="http://www.w3.org/2000/svg">
<g id="Frame 42">
<g id="Group 39997">
<path id="Vector" d="M54.2958 45.697H47.297V38.703C47.297 38.5172 47.2233 38.3389 47.092 38.2072C46.9607 38.0754 46.7825 38.001 46.5964 38H42.3964C42.2109 38.0009 42.0332 38.0749 41.902 38.2059C41.7709 38.3368 41.6967 38.5142 41.6958 38.6994V45.7006H34.7006C34.5151 45.7015 34.3374 45.7755 34.2062 45.9065C34.0751 46.0375 34.0009 46.2148 34 46.4V50.6C34 50.9858 34.3142 51.2994 34.7006 51.2994H41.6994V58.3006C41.6994 58.6863 42.0136 59 42.4 59H46.6C46.7855 58.9991 46.9632 58.9251 47.0943 58.7941C47.2255 58.6631 47.2997 58.4858 47.3006 58.3006V51.2994H54.2994C54.3914 51.2994 54.4825 51.2813 54.5675 51.2462C54.6525 51.211 54.7297 51.1595 54.7948 51.0945C54.8599 51.0296 54.9115 50.9525 54.9467 50.8676C54.9819 50.7828 55 50.6918 55 50.6V46.4C54.9991 46.2148 54.9249 46.0375 54.7938 45.9065C54.6626 45.7755 54.4849 45.7015 54.2994 45.7006L54.2958 45.697Z" fill="#4280C9"/>
<path id="Vector_2" d="M48 18.8378C48.0035 14.1596 46.1886 9.66751 42.947 6.33078C39.7053 2.99405 35.2968 1.08016 30.6725 1.00207C20.921 0.851445 12.8003 8.95559 12.8003 18.8341C12.8003 24.4365 15.3498 29.429 19.3267 32.7023C16.4993 34.031 13.926 35.8541 11.7252 38.0879C6.92981 42.913 4.16225 49.4253 4.00034 56.2653C3.99742 56.3607 4.01348 56.4557 4.04758 56.5448C4.08168 56.6338 4.13312 56.715 4.19884 56.7835C4.26456 56.852 4.34322 56.9065 4.43015 56.9437C4.51709 56.9809 4.61052 57 4.70491 57H9.62968C9.81249 57.001 9.98848 56.9298 10.1201 56.8015C10.2517 56.6731 10.3286 56.4978 10.3343 56.313C10.4889 51.1592 12.5891 46.261 16.2033 42.6249C18.0615 40.7303 20.2736 39.2281 22.7107 38.2058C25.1479 37.1835 27.7617 36.6614 30.4001 36.6698C32.7136 36.6679 35.004 36.205 37.1406 35.3076C39.2772 34.4102 41.2181 33.0958 42.8524 31.4396C44.4868 29.7833 45.7825 27.8176 46.6658 25.6548C47.549 23.4919 48.0024 21.1742 48 18.8341V18.8378ZM38.3611 26.9052C37.319 27.9678 36.0787 28.8105 34.7121 29.3844C33.3455 29.9583 31.8798 30.2519 30.4001 30.2482C28.9198 30.2526 27.4534 29.9593 26.0861 29.3854C24.7188 28.8115 23.4779 27.9684 22.4355 26.9052C21.3724 25.8333 20.5324 24.5567 19.9654 23.1509C19.3984 21.745 19.1157 20.2385 19.1342 18.7202C19.1655 15.7868 20.3096 12.9776 22.3302 10.8732C23.3635 9.79306 24.5987 8.93148 25.9642 8.33864C27.3297 7.7458 28.798 7.43353 30.2839 7.41999C33.2756 7.39664 36.1547 8.57214 38.2921 10.6896C40.4748 12.8534 41.6697 15.7519 41.6697 18.8341C41.6711 20.3333 41.3799 21.8179 40.8127 23.203C40.2456 24.588 39.4137 25.8461 38.3647 26.9052H38.3611Z" fill="#4280C9"/>
</g>
</g>
</svg>
