<svg width="80" height="80" viewBox="0 0 80 80" fill="none" xmlns="http://www.w3.org/2000/svg">
<g id="Group 39770">
<rect id="Rectangle 3432" width="80" height="80" rx="16" fill="#E58E3D"/>
<g id="Group 39757">
<path id="Vector" d="M58.336 54.3111H55.0082V51.0741C55.0082 50.0518 54.3426 49.3704 53.3442 49.3704C52.3459 49.3704 51.6803 50.0518 51.6803 51.0741V54.3111H48.3524C47.3541 54.3111 46.6885 54.9926 46.6885 56.0148C46.6885 57.037 47.3541 57.7185 48.3524 57.7185H51.6803V61.2963C51.6803 62.3185 52.3459 63 53.3442 63C54.3426 63 55.0082 62.3185 55.0082 61.2963V57.7185H58.336C59.3344 57.7185 60 57.037 60 56.0148C60 54.9926 59.3344 54.3111 58.336 54.3111Z" fill="white"/>
<path id="Vector_2" d="M50.0162 61.2963V59.4222H48.3522C46.5219 59.4222 45.0243 57.8889 45.0243 56.0148C45.0243 54.1407 46.5219 52.6074 48.3522 52.6074H50.0162V51.0741C50.0162 49.7111 50.6817 48.6889 51.6801 48.1778C50.5153 46.9852 48.3522 46.1333 47.1875 45.6222C51.6801 42.8963 54.8416 37.9556 54.8416 32.3333C54.8416 23.8148 48.1858 17 39.8661 17C31.5464 17 24.8907 23.8148 24.8907 32.3333C24.8907 38.1259 28.0522 43.0667 32.5448 45.6222C26.2218 48.1778 21.3964 53.8 20.0653 60.9556C19.8989 61.4667 20.0653 61.9778 20.3981 62.3185C20.7309 62.6593 21.23 63 21.7292 63H50.5153C50.3489 62.4889 50.0162 61.8074 50.0162 61.2963Z" fill="white"/>
</g>
</g>
</svg>
