<svg width="80" height="80" viewBox="0 0 80 80" fill="none" xmlns="http://www.w3.org/2000/svg">
<g id="Group 39771">
<rect id="Rectangle 3433" width="80" height="80" rx="16" fill="#58BE6B"/>
<path id="Vector" d="M39.5 53C42.5232 57.2409 44.4541 58.1656 49.8837 57.3361H49.922L56.2026 61L56.1643 55.9556C59.7784 54.243 62.4449 51.0352 62.9455 46.8723C63.547 41.8754 59.4121 34.7009 54.5 34C55.4827 48.4522 42.2278 52.5669 39.5 53ZM23.9817 30.5886H44.4845C45.0569 30.5886 45.5254 30.9483 45.5254 31.3845V32.012C45.5254 32.4482 45.0539 32.8094 44.4845 32.8094H23.9817C23.4122 32.8094 22.9408 32.4497 22.9408 32.012V31.3845C22.9408 30.9468 23.4092 30.5886 23.9817 30.5886ZM23.9817 35.8672H35.9858C36.5582 35.8672 37.0267 36.2269 37.0267 36.6646V37.2906C37.0267 37.7283 36.5567 38.0879 35.9858 38.0879H23.9817C23.4107 38.0879 22.9408 37.7298 22.9408 37.2906V36.6646C22.9408 36.2254 23.4092 35.8672 23.9817 35.8672ZM34.7367 19C44.5303 19 52.4719 26.311 52.4719 35.3301C52.4719 43.9802 45.1671 51.0571 35.9276 51.6219L28.0367 58.3559L28.3412 50.5643H28.3428C21.707 48.2028 17 42.2723 17 35.3301C17 26.311 24.9415 19 34.7367 19Z" fill="white"/>
</g>
</svg>
