<svg width="42" height="42" viewBox="0 0 42 42" fill="none" xmlns="http://www.w3.org/2000/svg">
<g id="Mask group">
<mask id="mask0_216_1454" style="mask-type:alpha" maskUnits="userSpaceOnUse" x="0" y="0" width="42" height="42">
<rect id="Rectangle 3449" width="42" height="42" fill="#D9D9D9"/>
</mask>
<g mask="url(#mask0_216_1454)">
<g id="Group 39769">
<path id="Vector" d="M19.7299 32.5238C22.3809 35.9569 24.0741 36.7055 28.8351 36.034H28.8687L34.3761 39L34.3425 34.9164C37.5116 33.5301 39.8498 30.9332 40.2888 27.5633C40.8163 23.5181 37.1904 17.7103 32.8831 17.1429C33.7448 28.8422 22.1218 32.1732 19.7299 32.5238ZM6.12215 18.6544H16.6483C17.1503 18.6544 17.561 18.9456 17.561 19.2999V19.8066C17.561 20.161 17.1489 20.4521 16.6483 20.4521H6.12215C5.62146 20.4521 5.20938 20.1622 5.20938 19.8066V19.2999C5.20942 18.9444 5.62013 18.6544 6.12215 18.6544ZM15.553 5C24.1409 5 31.1047 10.9184 31.1047 18.2196C31.1047 25.2221 24.6993 30.951 16.5973 31.4082L9.67785 36.8595L9.94494 30.5521H9.94631C4.12752 28.6403 0 23.8394 0 18.2196C0 10.9184 6.96376 5 15.553 5Z" fill="white"/>
<path id="Vector_2" d="M40.4054 7.51111H37.217V4.55556C37.217 3.62222 36.5794 3 35.6229 3C34.6663 3 34.0287 3.62222 34.0287 4.55556V7.51111H30.8403C29.8838 7.51111 29.2461 8.13334 29.2461 9.06667C29.2461 10 29.8838 10.6222 30.8403 10.6222H34.0287V13.8889C34.0287 14.8222 34.6663 15.4444 35.6229 15.4444C36.5794 15.4444 37.217 14.8222 37.217 13.8889V10.6222H40.4054C41.3619 10.6222 41.9996 10 41.9996 9.06667C41.9996 8.13334 41.3619 7.51111 40.4054 7.51111Z" fill="white"/>
</g>
</g>
</g>
</svg>
