<svg width="42" height="42" viewBox="0 0 42 42" fill="none" xmlns="http://www.w3.org/2000/svg">
<path id="Vector" d="M40.5 25.539C40.8676 25.5391 41.2224 25.6742 41.497 25.9186C41.7716 26.1631 41.9469 26.4999 41.9895 26.865L42 27.039V37.5C42.0001 38.6478 41.5615 39.7523 40.7741 40.5874C39.9866 41.4225 38.9098 41.9252 37.764 41.9925L37.5 42H27.024C26.6417 41.9996 26.274 41.8532 25.9959 41.5907C25.7179 41.3283 25.5506 40.9696 25.5282 40.5879C25.5058 40.2062 25.63 39.8304 25.8754 39.5373C26.1208 39.2441 26.4689 39.0557 26.8485 39.0105L27.024 39H37.5C37.8674 39 38.222 38.8651 38.4966 38.6209C38.7711 38.3768 38.9465 38.0404 38.9895 37.6755L39 37.5V27.039C39 26.6412 39.158 26.2596 39.4393 25.9783C39.7206 25.697 40.1022 25.539 40.5 25.539ZM1.5 25.542C1.86763 25.5421 2.22243 25.6772 2.49701 25.9216C2.7716 26.1661 2.94686 26.5029 2.9895 26.868L3 27.042V37.5C3.00005 37.8674 3.13493 38.222 3.37907 38.4966C3.62321 38.7711 3.95962 38.9465 4.3245 38.9895L4.5 39H15.033C15.4152 39.0008 15.7827 39.1475 16.0604 39.41C16.3381 39.6726 16.5051 40.0313 16.5273 40.4128C16.5495 40.7944 16.4253 41.17 16.1799 41.463C15.9345 41.7561 15.5865 41.9444 15.207 41.9895L15.033 42H4.5C3.35218 42.0001 2.24773 41.5615 1.41261 40.7741C0.57749 39.9866 0.0748387 38.9098 0.00750018 37.764L6.99067e-09 37.5V27.042C6.99067e-09 26.6442 0.158035 26.2626 0.43934 25.9813C0.720644 25.7 1.10218 25.542 1.5 25.542ZM33 6C33.7957 6 34.5587 6.31607 35.1213 6.87868C35.6839 7.44129 36 8.20435 36 9V33C36 33.7957 35.6839 34.5587 35.1213 35.1213C34.5587 35.6839 33.7957 36 33 36H9C8.20435 36 7.44129 35.6839 6.87868 35.1213C6.31607 34.5587 6 33.7957 6 33V9C6 8.20435 6.31607 7.44129 6.87868 6.87868C7.44129 6.31607 8.20435 6 9 6H33ZM31.5 19.5H10.5C10.1022 19.5 9.72064 19.658 9.43934 19.9393C9.15804 20.2206 9 20.6022 9 21C9 21.3978 9.15804 21.7794 9.43934 22.0607C9.72064 22.342 10.1022 22.5 10.5 22.5H31.5C31.8978 22.5 32.2794 22.342 32.5607 22.0607C32.842 21.7794 33 21.3978 33 21C33 20.6022 32.842 20.2206 32.5607 19.9393C32.2794 19.658 31.8978 19.5 31.5 19.5ZM37.5 6.99067e-09C38.6478 -6.39326e-05 39.7523 0.438488 40.5874 1.22593C41.4225 2.01336 41.9252 3.09016 41.9925 4.236L42 4.5V15.051C41.9992 15.4332 41.8525 15.8007 41.59 16.0784C41.3274 16.3561 40.9687 16.5231 40.5872 16.5453C40.2056 16.5675 39.83 16.4433 39.537 16.1979C39.2439 15.9525 39.0556 15.6045 39.0105 15.225L39 15.051V4.5C39 4.1326 38.8651 3.77799 38.6209 3.50344C38.3768 3.22889 38.0404 3.05349 37.6755 3.0105L37.5 3H27.045C26.6628 2.9992 26.2953 2.85254 26.0176 2.58996C25.7399 2.32739 25.5729 1.96871 25.5507 1.58716C25.5285 1.20561 25.6527 0.829978 25.8981 0.536958C26.1435 0.243938 26.4915 0.0556354 26.871 0.0105L27.0465 6.99067e-09H37.5ZM15.0885 6.99067e-09C15.4707 0.000801041 15.8382 0.147462 16.1159 0.410036C16.3936 0.67261 16.5606 1.03129 16.5828 1.41284C16.605 1.79439 16.4808 2.17002 16.2354 2.46304C15.99 2.75606 15.642 2.94436 15.2625 2.9895L15.09 3H4.5C4.1326 3.00005 3.77799 3.13493 3.50344 3.37907C3.22889 3.62321 3.05349 3.95962 3.0105 4.3245L3 4.5V15.036C2.99958 15.4183 2.85318 15.786 2.59073 16.0641C2.32827 16.3421 1.96957 16.5094 1.58791 16.5318C1.20625 16.5542 0.830431 16.43 0.537251 16.1846C0.244071 15.9392 0.0556554 15.5911 0.0105 15.2115L6.99067e-09 15.036V4.5C-6.39326e-05 3.35218 0.438488 2.24773 1.22593 1.41261C2.01336 0.57749 3.09016 0.0748387 4.236 0.00750018L4.5 6.99067e-09H15.0885Z" fill="white"/>
</svg>
