<svg width="42" height="42" viewBox="0 0 42 42" fill="none" xmlns="http://www.w3.org/2000/svg">
<g id="Mask group">
<mask id="mask0_216_1466" style="mask-type:alpha" maskUnits="userSpaceOnUse" x="0" y="0" width="42" height="42">
<rect id="Rectangle 3449" width="42" height="42" fill="#D9D9D9"/>
</mask>
<g mask="url(#mask0_216_1466)">
<path id="Vector" d="M20.5418 32.1429C23.3019 35.7779 25.0647 36.5705 30.0217 35.8595H30.0567L35.7907 39L35.7557 34.6762C39.0552 33.2083 41.4897 30.4587 41.9467 26.8905C42.4959 22.6074 38.7208 16.4579 34.2363 15.8571C35.1334 28.2447 23.0321 31.7716 20.5418 32.1429ZM6.37408 12.9331H25.0924C25.6151 12.9331 26.0427 13.2414 26.0427 13.6153V14.1531C26.0427 14.527 25.6123 14.8366 25.0924 14.8366H6.37408C5.85417 14.8366 5.42375 14.5283 5.42375 14.1531V13.6153C5.42379 13.2401 5.8514 12.9331 6.37408 12.9331ZM6.37408 17.4576H17.3334C17.856 17.4576 18.2837 17.7659 18.2837 18.1411V18.6776C18.2837 19.0528 17.8546 19.3611 17.3334 19.3611H6.37408C5.85278 19.3611 5.42375 19.0541 5.42375 18.6776V18.1411C5.42379 17.7646 5.8514 17.4576 6.37408 17.4576ZM16.193 3C25.1343 3 32.3847 9.26657 32.3847 16.9972C32.3847 24.4116 25.7157 30.4775 17.2803 30.9616L10.0761 36.7336L10.3542 30.0551H10.3556C4.29737 28.031 0 22.9476 0 16.9972C0 9.26657 7.25032 3 16.193 3Z" fill="white"/>
</g>
</g>
</svg>
