<svg width="42" height="42" viewBox="0 0 42 42" fill="none" xmlns="http://www.w3.org/2000/svg">
<g id="Mask group">
<mask id="mask0_216_1453" style="mask-type:alpha" maskUnits="userSpaceOnUse" x="0" y="0" width="42" height="42">
<rect id="Rectangle 3449" width="42" height="42" fill="#D9D9D9"/>
</mask>
<g mask="url(#mask0_216_1453)">
<g id="Group 39762">
<g id="Group 39757">
<path id="Vector" d="M38.4188 34.0668H35.2573V31.1112C35.2573 30.1779 34.625 29.5557 33.6765 29.5557C32.7281 29.5557 32.0958 30.1779 32.0958 31.1112V34.0668H28.9343C27.9858 34.0668 27.3535 34.689 27.3535 35.6223C27.3535 36.5557 27.9858 37.1779 28.9343 37.1779H32.0958V40.4446C32.0958 41.3779 32.7281 42.0001 33.6765 42.0001C34.625 42.0001 35.2573 41.3779 35.2573 40.4446V37.1779H38.4188C39.3673 37.1779 39.9996 36.5557 39.9996 35.6223C39.9996 34.689 39.3673 34.0668 38.4188 34.0668Z" fill="white"/>
<path id="Vector_2" d="M30.5156 40.4444V38.7333H28.9348C27.196 38.7333 25.7733 37.3333 25.7733 35.6222C25.7733 33.9111 27.196 32.5111 28.9348 32.5111H30.5156V31.1111C30.5156 29.8667 31.1479 28.9333 32.0964 28.4667C30.9898 27.3778 28.9348 26.6 27.8283 26.1333C32.0964 23.6444 35.0998 19.1333 35.0998 14C35.0998 6.22222 28.7768 0 20.873 0C12.9692 0 6.6462 6.22222 6.6462 14C6.6462 19.2889 9.64964 23.8 13.9177 26.1333C7.91081 28.4667 3.32662 33.6 2.06201 40.1333C1.90394 40.6 2.06201 41.0667 2.37816 41.3778C2.69432 41.6889 3.16854 42 3.64277 42H30.9898C30.8318 41.5333 30.5156 40.9111 30.5156 40.4444Z" fill="white"/>
</g>
</g>
</g>
</g>
</svg>
