<svg width="38" height="38" viewBox="0 0 38 38" fill="none" xmlns="http://www.w3.org/2000/svg">
<path id="Vector" d="M10.849 27.1466C11.445 27.7429 11.445 28.7096 10.849 29.3059L2.60535 37.5528C2.0093 38.1491 1.04302 38.1491 0.447008 37.5528C-0.149003 36.9566 -0.149003 35.9898 0.447008 35.3936L8.69061 27.1466C9.28666 26.5504 10.253 26.5504 10.849 27.1466ZM37.553 10.3136C38.1812 10.942 38.1421 11.9724 37.4682 12.5514L27.6692 20.9706L27.6975 21.0865C28.8601 25.9599 27.517 31.1609 23.9717 34.8709L23.8553 34.9913L23.7398 35.1083C23.1448 35.7104 22.1738 35.7131 21.5753 35.1144L2.63006 16.1614C2.03401 15.5652 2.03401 14.5985 2.63006 14.0022C6.45596 10.1747 11.9664 8.77409 17.0508 10.1375L17.1776 10.1723L25.4537 0.532102C26.0267 -0.135444 27.0419 -0.180399 27.6718 0.428407L37.553 10.3136ZM34.2304 11.3081L26.6965 3.7711L18.8373 12.9258C18.6387 13.1573 18.3752 13.3239 18.081 13.4041C17.7868 13.4844 17.4753 13.4746 17.1867 13.3761L17.055 13.33C13.3133 12.0413 9.17907 12.698 6.02999 15.0797L5.93672 15.151L22.5854 31.8065L22.6224 31.7585C24.9531 28.7053 25.6568 24.7112 24.5219 21.0397L24.4765 20.8958C24.3893 20.6119 24.3869 20.3086 24.4694 20.0233C24.5519 19.738 24.7159 19.4829 24.9411 19.2894L34.2304 11.3081Z" fill="white"/>
</svg>
