<svg width="54" height="54" viewBox="0 0 54 54" fill="none" xmlns="http://www.w3.org/2000/svg">
<g id="Group 39765">
<path id="Vector" d="M14.4501 49.8462C14.7213 49.8461 14.9897 49.8998 15.2402 50.0042C15.4907 50.1085 15.7183 50.2615 15.91 50.4543C16.1018 50.6472 16.2538 50.8762 16.3576 51.1282C16.4614 51.3802 16.5148 51.6503 16.5148 51.9231C16.5148 52.1958 16.4614 52.466 16.3576 52.718C16.2538 52.97 16.1018 53.1989 15.91 53.3918C15.7183 53.5847 15.4907 53.7376 15.2402 53.842C14.9897 53.9464 14.7213 54 14.4501 54H11.1472C4.9502 54 0 48.5668 0 41.9538V12.0462C0 5.43323 4.9502 0 11.1472 0H38.3961C44.5931 0 49.5433 5.43323 49.5433 12.0462C49.5434 12.3189 49.49 12.589 49.3863 12.8411C49.2826 13.0931 49.1305 13.3221 48.9388 13.515C48.7471 13.7079 48.5195 13.8609 48.2691 13.9653C48.0186 14.0697 47.7501 14.1234 47.479 14.1234C47.2079 14.1234 46.9394 14.0697 46.689 13.9653C46.4385 13.8609 46.2109 13.7079 46.0192 13.515C45.8275 13.3221 45.6755 13.0931 45.5717 12.8411C45.468 12.589 45.4147 12.3189 45.4147 12.0462C45.4147 7.64723 42.2315 4.15385 38.3961 4.15385H11.1472C7.31177 4.15385 4.12861 7.64723 4.12861 12.0462V41.9538C4.12861 46.3528 7.31177 49.8462 11.1472 49.8462H14.4501ZM8.25722 14.5385H24.7717C25.3191 14.5386 25.8441 14.7574 26.2311 15.1469C26.6182 15.5364 26.8356 16.0646 26.8356 16.6154C26.8356 17.1662 26.6182 17.6944 26.2311 18.0839C25.8441 18.4734 25.3191 18.6922 24.7717 18.6923H8.25722C7.70979 18.6922 7.18481 18.4734 6.79776 18.0839C6.4107 17.6944 6.19326 17.1662 6.19326 16.6154C6.19326 16.0646 6.4107 15.5364 6.79776 15.1469C7.18481 14.7574 7.70979 14.5386 8.25722 14.5385ZM8.25722 27H16.5144C17.0619 27.0001 17.5868 27.2189 17.9739 27.6084C18.361 27.9979 18.5784 28.5261 18.5784 29.0769C18.5784 29.6277 18.361 30.1559 17.9739 30.5454C17.5868 30.9349 17.0619 31.1538 16.5144 31.1538H8.25722C7.70979 31.1538 7.18481 30.9349 6.79776 30.5454C6.4107 30.1559 6.19326 29.6277 6.19326 29.0769C6.19326 28.5261 6.4107 27.9979 6.79776 27.6084C7.18481 27.2189 7.70979 27.0001 8.25722 27Z" fill="#222222"/>
<path id="Subtract" fill-rule="evenodd" clip-rule="evenodd" d="M43.5062 35.0251C46.3885 36.142 48.8985 38.0371 50.7521 40.496C52.6057 42.9549 53.729 45.8796 53.9949 48.9391C54.0334 49.4647 53.8622 49.9842 53.5181 50.3855C53.174 50.7869 52.6847 51.0378 52.1557 51.0842C51.6268 51.1306 51.1007 50.9686 50.6911 50.6334C50.2814 50.2982 50.021 49.8165 49.9661 49.2924C49.3917 42.8974 44.0603 37.9597 37.6611 37.9597C31.2578 37.9597 25.9224 42.8974 25.3561 49.2964C25.3366 49.5619 25.2642 49.8209 25.1429 50.0583C25.0216 50.2958 24.8539 50.5069 24.6496 50.6794C24.4453 50.8519 24.2085 50.9824 23.9529 51.0632C23.6973 51.144 23.4281 51.1736 23.1609 51.1501C22.8937 51.1267 22.6339 51.0508 22.3965 50.9267C22.1592 50.8027 21.9491 50.633 21.7785 50.4277C21.6078 50.2223 21.48 49.9852 21.4026 49.7304C21.3251 49.4755 21.2995 49.2079 21.3273 48.9431C21.5983 45.8049 22.7716 42.81 24.7076 40.3143C26.6437 37.8185 29.2612 35.927 32.2488 34.8645C31.3533 34.0568 30.6379 33.0719 30.1489 31.9733C29.6598 30.8747 29.4079 29.6867 29.4092 28.4856C29.4092 23.7446 33.2358 19.8948 37.9645 19.8948C42.6971 19.8948 46.5237 23.7446 46.5237 28.4816C46.5237 31.099 45.3507 33.4475 43.5062 35.0251ZM37.9647 33.0499C40.4524 33.0499 42.4789 31.0106 42.4789 28.4815C42.4789 25.9524 40.4524 23.9091 37.9647 23.9091C35.481 23.9091 33.4545 25.9484 33.4545 28.4815C33.4545 31.0106 35.481 33.0499 37.9647 33.0499Z" fill="#008DFF"/>
</g>
</svg>
