<svg width="38" height="38" viewBox="0 0 38 38" fill="none" xmlns="http://www.w3.org/2000/svg">
<g id="&#229;&#133;&#179;&#228;&#186;&#142;&#230;&#136;&#145;&#228;&#187;&#172; 1" clip-path="url(#clip0_118_330)">
<path id="Vector" d="M19 38C8.5234 38 0 29.4766 0 19C0 8.5234 8.5234 0 19 0C22.9577 0 26.7501 1.2046 29.9706 3.4846C30.2625 3.70944 30.4561 4.03847 30.5109 4.40282C30.5657 4.76717 30.4774 5.13859 30.2645 5.43934C30.0517 5.74008 29.7308 5.94683 29.3689 6.01631C29.0071 6.08579 28.6324 6.01262 28.3233 5.8121C25.5998 3.87789 22.3404 2.84233 19 2.85C10.0947 2.85 2.85 10.0947 2.85 19C2.85 27.9053 10.0947 35.15 19 35.15C27.9053 35.15 35.15 27.9053 35.15 19C35.15 16.2127 34.428 13.4653 33.0619 11.0542C32.891 10.7263 32.854 10.3448 32.9589 9.99021C33.0637 9.63559 33.3021 9.33552 33.6238 9.15322C33.9455 8.97093 34.3255 8.92065 34.6835 9.01299C35.0416 9.10532 35.3498 9.33306 35.5433 9.6482C37.1542 12.5017 38.0005 15.7231 38 19C38 29.4766 29.4766 38 19 38Z" fill="#222222"/>
<path id="Vector_2" d="M20.8282 7.6532C22.0974 7.9591 22.7111 9.4487 22.4261 10.7179C22.1202 11.9871 20.9384 13.0606 19.6673 12.7547C18.3981 12.4469 17.9174 10.9801 18.2024 9.7109C18.5083 8.4398 19.559 7.3454 20.8282 7.6532ZM15.3771 17.043C15.3771 17.043 19.2075 13.6933 20.6971 14.3507C21.7041 14.6129 21.1569 19.1444 21.003 19.7581C20.9593 20.3053 20.0834 27.2004 20.3019 27.5082C20.6078 28.6463 20.9593 27.7495 22.0309 26.8508C22.0309 26.8508 24.5484 25.1427 21.8561 28.69C19.6236 31.0764 17.4557 30.7705 17.127 28.975C16.8648 27.6184 17.9364 19.4085 18.2005 17.5693C18.2879 16.9556 17.5222 17.5693 17.5222 17.5693C17.5222 17.5693 15.4417 18.8613 14.9382 17.9854C14.809 17.7441 15.0047 17.3717 15.3771 17.043Z" fill="#008DFF"/>
</g>
<defs>
<clipPath id="clip0_118_330">
<rect width="38" height="38" fill="white"/>
</clipPath>
</defs>
</svg>
