<svg width="52" height="54" viewBox="0 0 52 54" fill="none" xmlns="http://www.w3.org/2000/svg">
<g id="Group 39764">
<path id="Vector" d="M25.3509 0C16.3755 0 9.10059 7.02753 9.10059 15.6977C9.10059 24.3678 16.3755 31.3953 25.3509 31.3953C34.3263 31.3953 41.6012 24.3678 41.6012 15.6977C41.6012 7.02753 34.3263 0 25.3509 0ZM25.3509 3.76744C28.6264 3.76744 31.7677 5.02437 34.0839 7.26173C36.4 9.49908 37.7012 12.5336 37.7012 15.6977C37.7012 18.8618 36.4 21.8963 34.0839 24.1336C31.7677 26.371 28.6264 27.6279 25.3509 27.6279C22.0754 27.6279 18.9341 26.371 16.618 24.1336C14.3018 21.8963 13.0007 18.8618 13.0007 15.6977C13.0007 12.5336 14.3018 9.49908 16.618 7.26173C18.9341 5.02437 22.0754 3.76744 25.3509 3.76744Z" fill="#222222"/>
<path id="Vector_2" d="M25.4649 27.6279C29.6692 27.6279 33.7305 28.61 37.368 30.4623C37.8255 30.6953 38.1685 31.0943 38.3215 31.5715C38.4745 32.0488 38.4249 32.5652 38.1837 33.0072C37.9426 33.4492 37.5295 33.7805 37.0354 33.9283C36.5414 34.0761 36.0068 34.0282 35.5492 33.7952C32.4406 32.2131 28.9786 31.3893 25.4649 31.3954C13.5528 31.3954 3.90008 40.6746 3.90008 52.1163C3.90008 52.6159 3.69463 53.095 3.32893 53.4483C2.96322 53.8016 2.46722 54 1.95004 54C1.43286 54 0.936857 53.8016 0.571154 53.4483C0.20545 53.095 0 52.6159 0 52.1163C0 38.5899 11.4038 27.6279 25.4649 27.6279Z" fill="#222222"/>
<g id="Vector_3">
<path d="M51.3951 38.8229C51.0327 38.4891 50.5512 38.3027 50.0504 38.3025H34.4501L34.2629 38.3113C33.7644 38.358 33.3036 38.5881 32.9761 38.954C32.6485 39.3199 32.4792 39.7935 32.5032 40.2767C32.5273 40.7599 32.7429 41.2157 33.1053 41.5495C33.4678 41.8833 33.9493 42.0697 34.4501 42.0699H50.0504L50.2376 42.0611C50.736 42.0145 51.1968 41.7843 51.5244 41.4184C51.852 41.0525 52.0213 40.5789 51.9972 40.0957C51.9731 39.6125 51.7575 39.1567 51.3951 38.8229Z" fill="#008DFF"/>
<path d="M51.3951 50.1252C51.0327 49.7914 50.5512 49.6051 50.0504 49.6048H34.4501L34.2629 49.6136C33.7644 49.6603 33.3036 49.8904 32.9761 50.2563C32.6485 50.6222 32.4792 51.0959 32.5032 51.5791C32.5273 52.0623 32.7429 52.518 33.1053 52.8518C33.4678 53.1857 33.9493 53.372 34.4501 53.3723H50.0504L50.2376 53.3635C50.736 53.3168 51.1968 53.0866 51.5244 52.7207C51.852 52.3548 52.0213 51.8812 51.9972 51.398C51.9731 50.9148 51.7575 50.4591 51.3951 50.1252Z" fill="#008DFF"/>
</g>
</g>
</svg>
