<svg width="40" height="40" viewBox="0 0 40 40" fill="none" xmlns="http://www.w3.org/2000/svg">
<g id="Group 39908">
<path id="Vector" d="M29.5426 39C29.0248 38.9993 28.5155 38.8633 28.0616 38.6046L20.603 34.3745C20.3341 34.2221 20.0336 34.1399 19.7273 34.1348C19.4211 34.1298 19.1182 34.2021 18.8448 34.3456L11.2609 38.3278C10.7472 38.5975 10.1711 38.7126 9.59773 38.6602C9.02434 38.6078 8.4765 38.3899 8.01614 38.0311C7.55578 37.6724 7.20125 37.1871 6.99264 36.6301C6.78402 36.0732 6.72963 35.4667 6.83562 34.8794L8.40475 26.2073C8.46172 25.8944 8.44443 25.5718 8.35438 25.2673C8.26433 24.9629 8.10423 24.6859 7.8879 24.4601L1.89705 18.2037C1.49117 17.7797 1.20764 17.2463 1.07855 16.6638C0.949459 16.0812 0.979947 15.4728 1.16657 14.9073C1.35319 14.3418 1.68849 13.8418 2.13456 13.4639C2.58063 13.0859 3.11967 12.845 3.69072 12.7686L12.1174 11.6384C12.4213 11.5977 12.7111 11.4809 12.9618 11.298C13.2124 11.1152 13.4165 10.8717 13.5563 10.5887L17.4377 2.74009C17.7008 2.20833 18.1018 1.76358 18.5956 1.45614C19.0894 1.1487 19.6562 0.990843 20.232 1.00041C20.8077 1.00998 21.3693 1.18659 21.8534 1.51028C22.3374 1.83397 22.7246 2.29182 22.9711 2.83204L26.6125 10.8043C26.7436 11.0914 26.9399 11.3411 27.1845 11.532C27.4291 11.7228 27.7148 11.8491 28.0168 11.9L36.4063 13.307C36.9748 13.4023 37.5062 13.6608 37.9405 14.0533C38.3747 14.4458 38.6946 14.9566 38.8638 15.528C39.033 16.0994 39.0448 16.7085 38.8979 17.2865C38.751 17.8645 38.4513 18.3883 38.0326 18.7987L31.8557 24.856C31.633 25.0743 31.4647 25.3456 31.3654 25.6464C31.2661 25.9473 31.2388 26.2687 31.2857 26.5829L32.5896 35.3015C32.6574 35.7581 32.6294 36.2247 32.5075 36.6691C32.3856 37.1135 32.1728 37.5254 31.8835 37.8765C31.5942 38.2277 31.2352 38.5099 30.8312 38.7038C30.4272 38.8977 29.9877 38.9987 29.5426 39ZM29.2055 36.4293C29.3199 36.4944 29.4496 36.5249 29.5798 36.5174C29.7101 36.5099 29.8357 36.4647 29.9425 36.3869C30.0492 36.3091 30.1329 36.2018 30.1839 36.0771C30.235 35.9525 30.2513 35.8155 30.2312 35.6817L28.9265 26.9632C28.8204 26.252 28.8823 25.5246 29.1071 24.8438C29.3318 24.163 29.7126 23.5491 30.2166 23.055L36.3953 16.9963C36.4897 16.9034 36.5573 16.785 36.5904 16.6544C36.6235 16.5237 36.6207 16.3861 36.5825 16.257C36.5442 16.1279 36.4719 16.0125 36.3738 15.9237C36.2757 15.835 36.1557 15.7765 36.0272 15.7549L27.6377 14.3447C26.953 14.2299 26.3054 13.9439 25.7509 13.5114C25.1964 13.0788 24.7515 12.5127 24.4548 11.8618L20.8152 3.8891C20.7594 3.76683 20.6718 3.66322 20.5622 3.58998C20.4526 3.51675 20.3255 3.47682 20.1952 3.47471C20.0649 3.47261 19.9367 3.50841 19.8249 3.57807C19.7132 3.64773 19.6225 3.74846 19.5631 3.86887L15.6817 11.7175C15.3651 12.358 14.9032 12.9089 14.3358 13.3228C13.7684 13.7367 13.1125 14.0011 12.4248 14.0932L3.99631 15.2266C3.86705 15.2438 3.74503 15.2983 3.64405 15.3838C3.54307 15.4694 3.46718 15.5825 3.42496 15.7105C3.38274 15.8385 3.37588 15.9763 3.40516 16.1081C3.43444 16.2399 3.49869 16.3606 3.59063 16.4565L9.58148 22.7129C10.0703 23.2235 10.4323 23.8498 10.636 24.538C10.8398 25.2261 10.8793 25.9554 10.7511 26.6629L9.182 35.3355C9.15782 35.4685 9.16997 35.6058 9.21708 35.732C9.26419 35.8582 9.34438 35.9682 9.44857 36.0495C9.55277 36.1309 9.67682 36.1803 9.80667 36.1923C9.93653 36.2042 10.067 36.1782 10.1834 36.1171L17.7672 32.1358C18.386 31.8108 19.0715 31.6469 19.7649 31.6582C20.4582 31.6696 21.1385 31.8559 21.747 32.2011L29.2055 36.4312V36.4293Z" fill="#222222" stroke="#222222" stroke-width="0.5"/>
<path id="Vector_2" d="M19.9996 27.6839C16.8401 27.6839 14.2696 25.2378 14.2696 22.2313C14.2602 22.0625 14.2841 21.8935 14.3398 21.7346C14.3956 21.5758 14.482 21.4304 14.5938 21.3075C14.7055 21.1845 14.8403 21.0866 14.9899 21.0197C15.1394 20.9527 15.3005 20.9182 15.4634 20.9182C15.6262 20.9182 15.7873 20.9527 15.9369 21.0197C16.0864 21.0866 16.2212 21.1845 16.333 21.3075C16.4447 21.4304 16.5311 21.5758 16.5869 21.7346C16.6426 21.8935 16.6665 22.0625 16.6571 22.2313C16.6571 23.8709 18.1567 25.2052 19.9996 25.2052C21.8424 25.2052 23.342 23.8718 23.342 22.2313C23.3321 22.0622 23.3556 21.8928 23.4111 21.7335C23.4666 21.5742 23.5529 21.4284 23.6647 21.305C23.7765 21.1817 23.9114 21.0834 24.0612 21.0162C24.211 20.949 24.3724 20.9143 24.5356 20.9143C24.6987 20.9143 24.8601 20.949 25.0099 21.0162C25.1597 21.0834 25.2946 21.1817 25.4064 21.305C25.5182 21.4284 25.6045 21.5742 25.66 21.7335C25.7155 21.8928 25.739 22.0622 25.7291 22.2313C25.7291 25.2378 23.1591 27.6839 19.9996 27.6839Z" fill="#008DFF" stroke="#008DFF" stroke-width="0.5"/>
</g>
</svg>
