<svg width="38" height="38" viewBox="0 0 38 38" fill="none" xmlns="http://www.w3.org/2000/svg">
<g id="Group 39766">
<path id="Vector" d="M34.358 6.87232C33.2117 5.25245 31.8371 3.82731 30.2723 2.63641C29.0597 1.71349 27.7525 0.94652 26.3725 0.347186C25.6862 0.0491061 24.8988 0.415705 24.6604 1.14316C24.445 1.80048 24.7595 2.51626 25.3795 2.7857C26.5716 3.3037 27.7011 3.96662 28.7492 4.76427C30.1037 5.79518 31.2937 7.02892 32.286 8.43119C34.3461 11.3425 35.435 14.7926 35.435 18.4087C35.435 20.697 35.0006 22.9162 34.144 25.0046C33.3163 27.0225 32.1311 28.8349 30.6213 30.3917C29.1115 31.9485 27.3537 33.1705 25.3969 34.024C23.3715 34.9073 21.2193 35.3552 19 35.3552C16.7807 35.3552 14.6285 34.9073 12.6031 34.024C10.6462 33.1705 8.88843 31.9484 7.37865 30.3917C5.86888 28.8349 4.68366 27.0224 3.85595 25.0046C2.99931 22.9162 2.56494 20.697 2.56494 18.4087C2.56494 14.7967 3.65162 11.3496 5.70749 8.44027C6.69781 7.03889 7.88548 5.80548 9.23761 4.77428C10.2833 3.9768 11.4103 3.31354 12.5999 2.79465C13.2196 2.52432 13.5332 1.80809 13.3169 1.15106C13.0775 0.424005 12.2897 0.0584643 11.6038 0.35748C10.2267 0.957831 8.92237 1.72525 7.71241 2.64801C6.15046 3.83919 4.77848 5.26396 3.63454 6.88285C1.25676 10.2475 0 14.2332 0 18.4087C0 21.0529 0.502522 23.6187 1.49364 26.0349C2.45066 28.368 3.82043 30.463 5.56496 32.2618C7.30948 34.0606 9.34127 35.4731 11.6039 36.4599C13.9472 37.4818 16.4356 38 19 38C21.5644 38 24.0528 37.4818 26.3961 36.4599C28.6587 35.4731 30.6905 34.0606 32.435 32.2618C34.1795 30.463 35.5493 28.368 36.5064 26.0349C37.4974 23.6187 38 21.0529 38 18.4087C37.9999 14.2285 36.7406 10.2392 34.358 6.87232Z" fill="#222222"/>
<path id="Vector_2" d="M18.8815 13.8923C19.6628 13.8923 20.3021 13.2332 20.3021 12.4276V1.46477C20.3021 0.659145 19.6628 0 18.8815 0C18.1002 0 17.4609 0.659145 17.4609 1.46477V12.4276C17.4609 13.2332 18.1002 13.8923 18.8815 13.8923Z" fill="#008DFF"/>
</g>
</svg>
