<svg width="48" height="48" viewBox="0 0 48 48" fill="none" xmlns="http://www.w3.org/2000/svg">
<path d="M48 18.8575V6.85837L44.0805 10.7718C41.8923 7.46142 38.9158 4.74462 35.4178 2.86473C31.9198 0.984835 28.0094 0.000541565 24.0369 0C10.7626 0 0 10.7444 0 24C0 37.2556 10.7626 48 24.0369 48C28.8207 48.001 33.4959 46.5768 37.4645 43.9097C41.433 41.2426 44.5143 37.454 46.3141 33.0285C46.4159 32.7783 46.4673 32.5105 46.4655 32.2405C46.4636 31.9704 46.4085 31.7034 46.3033 31.4546C46.1981 31.2058 46.0448 30.9801 45.8523 30.7905C45.6597 30.6008 45.4316 30.4509 45.181 30.3493C44.9304 30.2476 44.6622 30.1963 44.3918 30.1981C44.1213 30.2 43.8538 30.255 43.6047 30.36C43.3555 30.4651 43.1295 30.6181 42.9395 30.8104C42.7496 31.0027 42.5995 31.2304 42.4977 31.4806C41.0057 35.1475 38.4521 38.2866 35.1635 40.4964C31.8749 42.7063 28.0009 43.8865 24.0369 43.886C13.0374 43.886 4.12032 34.9826 4.12032 24C4.12032 13.0174 13.0374 4.11399 24.0369 4.11399C31.1427 4.11399 37.5533 7.86801 41.0985 13.7476L35.9824 18.8575H48Z" fill="white"/>
</svg>
