<svg width="100" height="100" viewBox="0 0 100 100" fill="none" xmlns="http://www.w3.org/2000/svg">
<circle cx="50" cy="50" r="50" fill="#008DFF"/>
<path d="M50 30C37.8679 30 28 38.4638 28 48.862C28 54.5805 31.0922 59.9612 36.5499 63.661L40.6813 66.2119C40.5038 67.3692 39.7604 69.8695 39.0422 71.9052C38.831 72.4964 39 73.1553 39.4562 73.5861C39.7519 73.8564 40.1321 74 40.5207 74C40.7404 74 40.9516 73.9578 41.1628 73.8648C42.9539 73.0708 48.4032 70.4776 50.3717 67.707C62.3349 67.5381 72 59.1419 72 48.8535C72.0084 38.4638 62.1405 30 50 30ZM53.3541 53.4149H43.765C42.8948 53.4149 42.1935 52.7138 42.1935 51.8437C42.1935 50.9737 42.8948 50.2726 43.765 50.2726H53.3541C54.2243 50.2726 54.9255 50.9737 54.9255 51.8437C54.9255 52.7138 54.2243 53.4149 53.3541 53.4149ZM56.3364 47.1304H43.765C42.8948 47.1304 42.1935 46.4293 42.1935 45.5592C42.1935 44.6892 42.8948 43.9881 43.765 43.9881H56.3364C57.2066 43.9881 57.9078 44.6892 57.9078 45.5592C57.9078 46.4293 57.2066 47.1304 56.3364 47.1304Z" fill="white"/>
</svg>
