<svg width="86" height="86" viewBox="0 0 86 86" fill="none" xmlns="http://www.w3.org/2000/svg">
<circle cx="43" cy="43" r="43" fill="#5B91F3"/>
<path d="M35.3782 27.7555H33.3398C31.3983 27.7555 30.6938 27.958 29.9838 28.3369C29.2824 28.7082 28.7087 29.2819 28.3374 29.9833C27.9585 30.6933 27.7559 31.3978 27.7559 33.3393V35.3777C27.756 35.6637 27.6997 35.9469 27.5903 36.2112C27.4808 36.4754 27.3204 36.7155 27.1182 36.9178C26.916 37.12 26.6759 37.2805 26.4116 37.3899C26.1474 37.4994 25.8642 37.5557 25.5782 37.5557C25.2922 37.5557 25.0089 37.4994 24.7447 37.3899C24.4805 37.2805 24.2404 37.12 24.0381 36.9178C23.8359 36.7155 23.6755 36.4754 23.5661 36.2112C23.4567 35.9469 23.4004 35.6637 23.4004 35.3777V34.5675C23.4004 30.6835 23.8044 29.2755 24.5644 27.8567C25.3071 26.4538 26.4543 25.3066 27.8572 24.5639C29.276 23.8028 30.684 23.3999 34.568 23.3999H35.3782C35.6642 23.3999 35.9474 23.4562 36.2117 23.5656C36.4759 23.675 36.716 23.8354 36.9183 24.0377C37.1205 24.2399 37.281 24.48 37.3904 24.7442C37.4999 25.0085 37.5562 25.2917 37.5562 25.5777C37.5562 25.8637 37.4999 26.1469 37.3904 26.4111C37.281 26.6754 37.1205 26.9155 36.9183 27.1177C36.716 27.3199 36.4759 27.4803 36.2117 27.5898C35.9474 27.6992 35.6642 27.7555 35.3782 27.7555ZM35.3782 62.5999H34.568C30.684 62.5999 29.276 62.1959 27.8572 61.4359C26.4543 60.6932 25.3071 59.546 24.5644 58.1431C23.8033 56.7243 23.4004 55.3163 23.4004 51.4323V50.6221C23.4004 50.3361 23.4567 50.0529 23.5661 49.7886C23.6755 49.5244 23.8359 49.2843 24.0381 49.082C24.2404 48.8798 24.4805 48.7193 24.7447 48.6099C25.0089 48.5004 25.2922 48.4441 25.5782 48.4441C25.8642 48.4441 26.1474 48.5004 26.4116 48.6099C26.6759 48.7193 26.916 48.8798 27.1182 49.082C27.3204 49.2843 27.4808 49.5244 27.5903 49.7886C27.6997 50.0529 27.756 50.3361 27.7559 50.6221V52.6605C27.7559 54.602 27.9585 55.3065 28.3374 56.0165C28.7174 56.7264 29.2739 57.2829 29.9838 57.6629C30.6938 58.0418 31.3983 58.2443 33.3398 58.2443H35.3782C35.6642 58.2443 35.9474 58.3006 36.2117 58.41C36.4759 58.5195 36.716 58.6799 36.9183 58.8821C37.1205 59.0843 37.281 59.3244 37.3904 59.5887C37.4999 59.8529 37.5562 60.1361 37.5562 60.4221C37.5562 60.7081 37.4999 60.9914 37.3904 61.2556C37.281 61.5198 37.1205 61.7599 36.9183 61.9621C36.716 62.1644 36.4759 62.3248 36.2117 62.4342C35.9474 62.5436 35.6642 62.5999 35.3782 62.5999ZM50.6226 23.3999H51.4327C55.3168 23.3999 56.7247 23.8039 58.1436 24.5639C59.5465 25.3066 60.6937 26.4538 61.4364 27.8567C62.1975 29.2755 62.6004 30.6835 62.6004 34.5675V35.3777C62.6004 35.6637 62.5441 35.9469 62.4347 36.2112C62.3253 36.4754 62.1649 36.7155 61.9626 36.9178C61.7604 37.12 61.5203 37.2805 61.2561 37.3899C60.9918 37.4994 60.7086 37.5557 60.4226 37.5557C60.1366 37.5557 59.8534 37.4994 59.5891 37.3899C59.3249 37.2805 59.0848 37.12 58.8826 36.9178C58.6804 36.7155 58.52 36.4754 58.4105 36.2112C58.3011 35.9469 58.2448 35.6637 58.2448 35.3777V33.3393C58.2448 31.3978 58.0423 30.6933 57.6634 29.9833C57.292 29.2819 56.7184 28.7082 56.017 28.3369C55.307 27.958 54.6025 27.7555 52.661 27.7555H50.6226C50.3366 27.7555 50.0534 27.6992 49.7891 27.5898C49.5249 27.4803 49.2848 27.3199 49.0825 27.1177C48.8802 26.9155 48.7198 26.6754 48.6103 26.4111C48.5009 26.1469 48.4445 25.8637 48.4445 25.5777C48.4445 25.2917 48.5009 25.0085 48.6103 24.7442C48.7198 24.48 48.8802 24.2399 49.0825 24.0377C49.2848 23.8354 49.5249 23.675 49.7891 23.5656C50.0534 23.4562 50.3366 23.3999 50.6226 23.3999ZM50.6226 58.2443H52.661C54.6025 58.2443 55.307 58.0418 56.017 57.6629C56.7184 57.2916 57.292 56.7179 57.6634 56.0165C58.0423 55.3065 58.2448 54.602 58.2448 52.6605V50.6221C58.2448 50.3361 58.3011 50.0529 58.4105 49.7886C58.52 49.5244 58.6804 49.2843 58.8826 49.082C59.0848 48.8798 59.3249 48.7193 59.5891 48.6099C59.8534 48.5004 60.1366 48.4441 60.4226 48.4441C60.7086 48.4441 60.9918 48.5004 61.2561 48.6099C61.5203 48.7193 61.7604 48.8798 61.9626 49.082C62.1649 49.2843 62.3253 49.5244 62.4347 49.7886C62.5441 50.0529 62.6004 50.3361 62.6004 50.6221V51.4323C62.6004 55.3163 62.1964 56.7243 61.4364 58.1431C60.6937 59.546 59.5465 60.6932 58.1436 61.4359C56.7247 62.197 55.3168 62.5999 51.4327 62.5999H50.6226C50.3366 62.5999 50.0534 62.5436 49.7891 62.4342C49.5249 62.3248 49.2848 62.1644 49.0825 61.9621C48.8802 61.7599 48.7198 61.5198 48.6103 61.2556C48.5009 60.9914 48.4445 60.7081 48.4445 60.4221C48.4445 60.1361 48.5009 59.8529 48.6103 59.5887C48.7198 59.3244 48.8802 59.0843 49.0825 58.8821C49.2848 58.6799 49.5249 58.5195 49.7891 58.41C50.0534 58.3006 50.3366 58.2443 50.6226 58.2443ZM25.5782 40.8221H60.4226C61.0002 40.8221 61.5541 41.0516 61.9625 41.46C62.3709 41.8684 62.6004 42.4223 62.6004 42.9999C62.6004 43.5775 62.3709 44.1314 61.9625 44.5398C61.5541 44.9482 61.0002 45.1777 60.4226 45.1777H25.5782C25.0006 45.1777 24.4467 44.9482 24.0382 44.5398C23.6298 44.1314 23.4004 43.5775 23.4004 42.9999C23.4004 42.4223 23.6298 41.8684 24.0382 41.46C24.4467 41.0516 25.0006 40.8221 25.5782 40.8221Z" fill="white"/>
</svg>
