<svg width="86" height="86" viewBox="0 0 86 86" fill="none" xmlns="http://www.w3.org/2000/svg">
<circle cx="43" cy="43" r="43" fill="#F3B65B"/>
<path d="M37.0332 59.466V27H47.7012C51.0612 27 53.9312 27.658 56.3112 28.974C58.7192 30.29 60.5392 32.166 61.7712 34.602C63.0312 37.038 63.6612 39.922 63.6612 43.254C63.6612 46.586 63.0032 49.47 61.6872 51.906C60.3992 54.342 58.4952 56.218 55.9752 57.534C53.4832 58.822 50.4872 59.466 46.9872 59.466H37.0332ZM46.9872 55.014C50.7672 55.014 53.6652 53.992 55.6812 51.948C57.7252 49.904 58.7472 47.006 58.7472 43.254C58.7472 39.474 57.7672 36.576 55.8072 34.56C53.8472 32.516 51.0192 31.494 47.3232 31.494H41.7792V55.014H46.9872Z" fill="white"/>
<path d="M30.746 27V59.466H26V27H30.746Z" fill="white"/>
</svg>
