<svg width="44" height="44" viewBox="0 0 44 44" fill="none" xmlns="http://www.w3.org/2000/svg">
<path id="Subtract" fill-rule="evenodd" clip-rule="evenodd" d="M42.2714 13.4349C41.1632 10.8158 39.5777 8.46174 37.5575 6.44174C35.5372 4.42174 33.1829 2.83649 30.5635 1.7284C27.8486 0.583202 24.9694 0 22 0C19.0306 0 16.1514 0.588504 13.4365 1.7337C10.8171 2.84179 8.46276 4.42704 6.44252 6.44704C4.42227 8.46704 2.83683 10.8158 1.72861 13.4402C0.583273 16.1547 0 19.0336 0 22.0027C0 24.9717 0.583273 27.8506 1.72861 30.5651C2.83683 33.1842 4.42227 35.5383 6.44252 37.5583C8.46276 39.5783 10.8171 41.1635 13.4365 42.2716C16.1514 43.4168 19.0306 44 22 44C24.9694 44 27.8486 43.4168 30.5635 42.2716C33.1829 41.1635 35.5372 39.5783 37.5575 37.5583C39.5777 35.5383 41.1632 33.1842 42.2714 30.5651C43.4167 27.8506 44 24.9717 44 22.0027C44 19.0336 43.4167 16.1494 42.2714 13.4349ZM16 17C16 18.6569 14.6569 20 13 20C11.3431 20 10 18.6569 10 17C10 15.3431 11.3431 14 13 14C14.6569 14 16 15.3431 16 17ZM31 20C32.6569 20 34 18.6569 34 17C34 15.3431 32.6569 14 31 14C29.3431 14 28 15.3431 28 17C28 18.6569 29.3431 20 31 20Z" fill="#959595"/>
</svg>
