<svg width="44" height="44" viewBox="0 0 44 44" fill="none" xmlns="http://www.w3.org/2000/svg">
<path id="Subtract" fill-rule="evenodd" clip-rule="evenodd" d="M37.5575 6.44174C39.5777 8.46174 41.1632 10.8158 42.2714 13.4349C43.4167 16.1494 44 19.0336 44 22.0027C44 24.9717 43.4167 27.8506 42.2714 30.5651C41.1632 33.1842 39.5777 35.5383 37.5575 37.5583C35.5372 39.5783 33.1829 41.1635 30.5635 42.2716C27.8486 43.4168 24.9694 44 22 44C19.0306 44 16.1514 43.4168 13.4365 42.2716C10.8171 41.1635 8.46276 39.5783 6.44252 37.5583C4.42227 35.5383 2.83683 33.1842 1.72861 30.5651C0.583273 27.8506 0 24.9717 0 22.0027C0 19.0336 0.583273 16.1547 1.72861 13.4402C2.83683 10.8158 4.42227 8.46704 6.44252 6.44704C8.46276 4.42704 10.8171 2.84179 13.4365 1.7337C16.1514 0.588504 19.0306 0 22 0C24.9694 0 27.8486 0.583202 30.5635 1.7284C33.1829 2.83649 35.5372 4.42174 37.5575 6.44174ZM13.5364 28.7196C12.8293 27.8711 11.5682 27.7564 10.7196 28.4636C9.87108 29.1707 9.75643 30.4318 10.4636 31.2804C16.4673 38.4849 27.5327 38.4849 33.5364 31.2804C34.2436 30.4318 34.1289 29.1707 33.2804 28.4636C32.4318 27.7564 31.1707 27.8711 30.4636 28.7196C26.059 34.0051 17.941 34.0051 13.5364 28.7196Z" fill="#008DFF"/>
</svg>
