<svg width="44" height="44" viewBox="0 0 44 44" fill="none" xmlns="http://www.w3.org/2000/svg">
<path id="Subtract" fill-rule="evenodd" clip-rule="evenodd" d="M39.5556 0C42 0 44 1.98 44 4.4V39.6C44 42.02 42 44 39.5556 44H8.88889C6.44444 44 4.44444 42.02 4.44444 39.6V33H6.66667C9.11111 33 11.1111 31.02 11.1111 28.6C11.1111 26.18 9.11111 24.2 6.66667 24.2H4.44444V19.8H6.66667C9.11111 19.8 11.1111 17.82 11.1111 15.4C11.1111 12.98 9.11111 11 6.66667 11H4.44444V4.4C4.44444 1.98 6.44444 0 8.88889 0H39.5556ZM6.66667 26.4C8 26.4 8.88889 27.28 8.88889 28.6C8.88889 29.92 8 30.8 6.66667 30.8H2.22222C0.888889 30.8 0 29.92 0 28.6C0 27.28 0.888889 26.4 2.22222 26.4H6.66667ZM6.66667 13.2C8 13.2 8.88889 14.08 8.88889 15.4C8.88889 16.72 8 17.6 6.66667 17.6H2.22222C0.888889 17.6 0 16.72 0 15.4C0 14.08 0.888889 13.2 2.22222 13.2H6.66667ZM17 13C17 11.8954 17.8954 11 19 11H35C36.1046 11 37 11.8954 37 13C37 14.1046 36.1046 15 35 15H19C17.8954 15 17 14.1046 17 13ZM19 21C17.8954 21 17 21.8954 17 23C17 24.1046 17.8954 25 19 25H29C30.1046 25 31 24.1046 31 23C31 21.8954 30.1046 21 29 21H19Z" fill="#008DFF"/>
</svg>
