<svg width="180" height="180" viewBox="0 0 180 180" fill="none" xmlns="http://www.w3.org/2000/svg">
<g id="Group 39783">
<rect id="Rectangle 3429" width="180" height="180" rx="90" fill="#D6D8E0"/>
<g id="&#231;&#155;&#184;&#230;&#156;&#186;" clip-path="url(#clip0_1117_9062)">
<path id="Vector" d="M106.21 64.5L102.206 59.3093C101.409 58.2831 100.388 57.4518 99.2216 56.8785C98.0552 56.3051 96.7737 56.0047 95.474 56H84.526C83.2264 56.0047 81.9448 56.3051 80.7785 56.8785C79.6121 57.4518 78.5915 58.2831 77.794 59.3093L73.7905 64.5H106.21Z" fill="#525459"/>
<path id="Vector_2" d="M89.9998 107C96.2591 107 101.333 101.926 101.333 95.6668C101.333 89.4076 96.2591 84.3335 89.9998 84.3335C83.7406 84.3335 78.6665 89.4076 78.6665 95.6668C78.6665 101.926 83.7406 107 89.9998 107Z" fill="#525459"/>
<path id="Vector_3" d="M109.833 70.1665H70.1667C66.4108 70.171 62.8101 71.665 60.1543 74.3208C57.4985 76.9766 56.0045 80.5773 56 84.3332L56 109.833C56.0045 113.589 57.4985 117.19 60.1543 119.846C62.8101 122.501 66.4108 123.995 70.1667 124H109.833C113.589 123.995 117.19 122.501 119.846 119.846C122.502 117.19 123.995 113.589 124 109.833V84.3332C123.995 80.5773 122.502 76.9766 119.846 74.3208C117.19 71.665 113.589 70.171 109.833 70.1665V70.1665ZM90 112.667C86.6377 112.667 83.3509 111.669 80.5553 109.801C77.7597 107.934 75.5807 105.278 74.294 102.172C73.0074 99.0658 72.6707 95.6476 73.3266 92.35C73.9826 89.0523 75.6017 86.0232 77.9792 83.6457C80.3567 81.2682 83.3858 79.6491 86.6835 78.9932C89.9811 78.3372 93.3993 78.6739 96.5056 79.9606C99.612 81.2472 102.267 83.4262 104.135 86.2218C106.003 89.0174 107 92.3042 107 95.6665C106.995 100.174 105.203 104.495 102.016 107.682C98.8287 110.869 94.5073 112.662 90 112.667V112.667Z" fill="#525459"/>
</g>
</g>
<defs>
<clipPath id="clip0_1117_9062">
<rect width="68" height="68" fill="white" transform="translate(56 56)"/>
</clipPath>
</defs>
</svg>
