<svg width="70" height="70" viewBox="0 0 70 70" fill="none" xmlns="http://www.w3.org/2000/svg">
<g id="Frame" clip-path="url(#clip0_744_11002)">
<g id="Group">
<g id="Group_2">
<g id="Group_3">
<g id="Group_4">
<path id="Vector" d="M59.7059 59.7281C73.3661 46.0679 73.3661 23.9204 59.7059 10.2602C46.0457 -3.40004 23.8981 -3.40004 10.2379 10.2602C-3.42231 23.9204 -3.42231 46.0679 10.2379 59.7281C23.8981 73.3883 46.0457 73.3883 59.7059 59.7281Z" fill="#FFD05D"/>
</g>
<g id="Group_5">
<path id="Vector_2" d="M53.2889 5.13184C56.7786 10.5922 58.7903 17.038 58.7903 23.9764C58.7903 43.3137 43.107 58.9559 23.8108 58.9559C17.1188 58.9559 10.8372 57.0673 5.5 53.7829C11.6994 63.472 22.6202 69.9178 34.978 69.9178C54.3152 69.9178 69.9575 54.2345 69.9575 34.9383C69.9985 22.3342 63.3065 11.2902 53.2889 5.13184Z" fill="#FDC453"/>
</g>
<g id="Group_6">
<path id="Vector_3" d="M4.76213 38.6749C4.76213 20.7335 19.2959 6.19982 37.2372 6.19982C47.7064 6.19982 57.0671 11.1676 62.9791 18.886C57.3956 9.15583 46.8853 2.58691 34.8149 2.58691C16.8736 2.58691 2.33984 17.1206 2.33984 35.062C2.33984 42.5341 4.84424 49.3904 9.07298 54.8508C6.32225 50.1294 4.76213 44.5869 4.76213 38.6749Z" fill="#FFD77F"/>
</g>
</g>
<g id="Group_7">
<g id="Group_8">
<g id="Group_9">
<path id="Vector_4" d="M24.673 26.5218C24.673 28.9031 23.5235 30.8737 22.0865 30.8737C20.6496 30.8737 19.5 28.9441 19.5 26.5218C19.5 24.1406 20.6496 22.1699 22.0865 22.1699C23.5235 22.1699 24.673 24.0995 24.673 26.5218Z" fill="#303030"/>
</g>
<g id="Group_10">
<path id="Vector_5" d="M50.4543 26.5218C50.4543 28.9031 49.3047 30.8737 47.8678 30.8737C46.4308 30.8737 45.2812 28.9441 45.2812 26.5218C45.2812 24.1406 46.4308 22.1699 47.8678 22.1699C49.3047 22.1699 50.4543 24.0995 50.4543 26.5218Z" fill="#303030"/>
</g>
</g>
</g>
</g>
<g id="Group_11">
<path id="Vector_6" d="M55.6736 19.1732C55.3041 19.05 54.9346 18.9679 54.5651 18.8448C53.785 18.6395 53.0461 18.4342 52.307 18.1879C51.2396 17.8184 50.2543 17.4078 49.351 16.9151C48.4068 16.4225 47.5035 15.8477 46.6824 15.1908C45.7792 14.4929 44.917 13.6717 44.137 12.8506C44.0959 12.8096 44.0138 12.8096 43.9727 12.8096C43.9317 12.8506 43.8906 12.8917 43.8906 12.9738C43.9317 14.1644 44.4243 15.3961 45.2455 16.5456C46.0255 17.572 47.0519 18.4342 48.2015 19.05C49.31 19.6248 50.5417 19.9943 51.7733 20.0764C51.8144 20.0764 51.8554 20.0764 51.9375 20.0764C53.3334 20.1585 54.5651 19.9122 55.6736 19.4195C55.7147 19.3785 55.7557 19.3374 55.7557 19.2553C55.7557 19.2553 55.7147 19.1732 55.6736 19.1732Z" fill="#414042"/>
<path id="Vector_7" d="M14.3287 19.1732C14.6982 19.05 15.0677 18.9679 15.4372 18.8448C16.2172 18.6395 16.9563 18.4342 17.6953 18.1879C18.7627 17.8184 19.748 17.4078 20.6513 16.9151C21.5955 16.4225 22.4988 15.8477 23.3199 15.1908C24.2231 14.4929 25.0853 13.6717 25.8653 12.8506C25.9064 12.8096 25.9885 12.8096 26.0296 12.8096C26.0706 12.8506 26.1117 12.8917 26.1117 12.9738C26.0706 14.1644 25.578 15.3961 24.7568 16.5456C23.9768 17.572 22.9504 18.4342 21.8008 19.05C20.6923 19.6248 19.4607 19.9943 18.229 20.0764C18.1879 20.0764 18.1469 20.0764 18.0648 20.0764C16.6689 20.1585 15.4372 19.9122 14.3287 19.4195C14.2876 19.3785 14.2466 19.3374 14.2466 19.2553C14.2055 19.2553 14.2466 19.1732 14.3287 19.1732Z" fill="#414042"/>
</g>
<path id="Vector_8" d="M21.7584 50.0465C21.3889 50.0875 21.1836 49.6359 21.1836 49.3075C21.1836 47.7474 21.6352 46.1462 22.4153 44.5861C23.1953 43.1491 24.2628 41.7943 25.5766 40.6858C28.1631 38.5098 31.5707 37.2782 34.9783 37.2782C38.427 37.196 41.9167 38.4688 44.4622 40.6858C47.1308 42.9438 48.732 46.1872 48.773 49.3075C48.773 49.677 48.5267 50.1286 48.1572 50.0465C47.8288 50.0054 47.5414 49.5538 47.3361 49.3485C46.9666 49.0201 46.556 48.7327 46.1865 48.4453C45.4065 47.8705 44.5443 47.3779 43.7232 46.9263C40.5619 45.243 36.99 44.3397 33.4182 44.6682C31.1191 44.8735 28.9431 45.5714 26.8903 46.5978C25.6587 47.2136 24.5091 47.9526 23.4417 48.8148C22.99 49.1022 22.2921 49.9644 21.7584 50.0465Z" fill="#5E4939"/>
</g>
</g>
<defs>
<clipPath id="clip0_744_11002">
<rect width="70" height="70" fill="white"/>
</clipPath>
</defs>
</svg>
