<svg width="70" height="70" viewBox="0 0 70 70" fill="none" xmlns="http://www.w3.org/2000/svg">
<g id="Frame" clip-path="url(#clip0_744_11045)">
<g id="Group">
<g id="Group_2">
<g id="Group_3">
<g id="Group_4">
<path id="Vector" d="M59.7059 59.7281C73.3661 46.0679 73.3661 23.9204 59.7059 10.2602C46.0457 -3.40004 23.8981 -3.40004 10.2379 10.2602C-3.42231 23.9204 -3.42231 46.0679 10.2379 59.7281C23.8981 73.3883 46.0457 73.3883 59.7059 59.7281Z" fill="#FFD05D"/>
</g>
<g id="Group_5">
<path id="Vector_2" d="M53.2497 5.09082C56.7394 10.5102 58.7922 16.997 58.7922 23.9354C58.8333 43.2726 43.1911 58.9559 23.8538 58.997C17.1617 58.997 10.8802 57.1495 5.54297 53.865C11.7834 63.5542 22.6632 69.9589 35.062 69.9589C54.3993 69.9178 70.0415 54.2345 70.0004 34.8973C69.9594 22.2521 63.2673 11.2081 53.2497 5.09082Z" fill="#FDC453"/>
</g>
<g id="Group_6">
<path id="Vector_3" d="M4.76222 38.7562C4.72116 20.8149 19.2549 6.24009 37.1962 6.19903C47.6654 6.15798 57.0261 11.1257 62.9792 18.8442C57.3546 9.07293 46.8033 2.54507 34.7739 2.58613C16.8326 2.62719 2.29887 17.202 2.33993 35.1433C2.33993 42.6155 4.88539 49.4718 9.11412 54.9322C6.36339 50.1697 4.76222 44.6272 4.76222 38.7562Z" fill="#FFD77F"/>
</g>
</g>
</g>
<g id="Group_7">
<path id="Vector_4" d="M34.9788 54.0707C38.4707 54.0707 41.3014 49.2732 41.3014 43.3552C41.3014 37.4372 38.4707 32.6396 34.9788 32.6396C31.487 32.6396 28.6562 37.4372 28.6562 43.3552C28.6562 49.2732 31.487 54.0707 34.9788 54.0707Z" fill="#695342"/>
<path id="Vector_5" d="M40.3169 49.0619C35.7187 46.5165 31.9416 47.9534 29.7656 49.3904C30.9152 52.1822 32.8037 54.0297 34.9797 54.0297C37.2378 54.0297 39.2084 52.059 40.3169 49.0619Z" fill="#F06669"/>
</g>
<g id="Group_8">
<g id="Group_9">
<path id="Vector_6" d="M24.1809 28.041L14.9844 33.912L15.2307 63.8416C17.9814 65.7302 20.9785 67.2082 24.2219 68.2756V28.041H24.1809Z" fill="#7CC4E8"/>
<path id="Vector_7" d="M45.8184 28.041L55.0149 33.912L54.7685 63.8416C52.0178 65.7302 49.0207 67.2082 45.7773 68.2756V28.041H45.8184Z" fill="#7CC4E8"/>
</g>
<g id="Group_10">
<g id="Group_11">
<path id="Vector_8" d="M16.1344 34.9387C15.6828 34.9387 15.2723 34.7334 14.9438 34.3639C14.4511 33.707 14.5743 32.8038 15.1901 32.2701L20.24 28.3287L15.0259 25.2496C14.328 24.839 14.0816 23.9358 14.4922 23.2378C14.9027 22.5399 15.806 22.2935 16.5039 22.7041L23.6066 26.8918C24.0171 27.1381 24.3045 27.5897 24.3456 28.0824C24.3866 28.5751 24.1813 29.0267 23.7708 29.3551L17.0376 34.6103C16.7503 34.8566 16.4218 34.9387 16.1344 34.9387Z" fill="#303030"/>
</g>
<g id="Group_12">
<path id="Vector_9" d="M53.866 34.9387C53.5376 34.9387 53.2091 34.8566 52.9628 34.6103L46.1886 29.3551C45.8191 29.0677 45.5728 28.5751 45.6138 28.0824C45.6549 27.5897 45.9012 27.1381 46.3528 26.8918L53.4555 22.7041C54.1534 22.2935 55.0567 22.5399 55.4672 23.2378C55.8778 23.9358 55.6314 24.839 54.9335 25.2496L49.7194 28.3287L54.7693 32.2701C55.4262 32.7628 55.5493 33.707 55.0156 34.3639C54.7693 34.7334 54.3176 34.9387 53.866 34.9387Z" fill="#303030"/>
</g>
</g>
</g>
</g>
</g>
<defs>
<clipPath id="clip0_744_11045">
<rect width="70" height="70" fill="white"/>
</clipPath>
</defs>
</svg>
