<svg width="70" height="70" viewBox="0 0 70 70" fill="none" xmlns="http://www.w3.org/2000/svg">
<g id="Frame" clip-path="url(#clip0_744_11166)">
<g id="Group">
<g id="Group_2">
<g id="Group_3">
<g id="Group_4">
<g id="Group_5">
<path id="Vector" d="M59.7059 59.7281C73.3661 46.0679 73.3661 23.9204 59.7059 10.2602C46.0457 -3.40004 23.8981 -3.40004 10.2379 10.2602C-3.42231 23.9204 -3.42231 46.0679 10.2379 59.7281C23.8981 73.3883 46.0457 73.3883 59.7059 59.7281Z" fill="#FFD05D"/>
</g>
<g id="Group_6">
<path id="Vector_2" d="M53.2889 5.13184C56.7786 10.5922 58.7903 17.038 58.7903 23.9764C58.7903 43.3137 43.107 58.9559 23.8109 58.9559C17.1188 58.9559 10.8372 57.0673 5.5 53.7829C11.6994 63.472 22.6202 69.9178 34.978 69.9178C54.3152 69.9178 69.9575 54.2345 69.9575 34.9383C69.9985 22.3342 63.3064 11.2902 53.2889 5.13184Z" fill="#FDC453"/>
</g>
<g id="Group_7">
<path id="Vector_3" d="M4.76213 38.6749C4.76213 20.7335 19.2959 6.19982 37.2372 6.19982C47.7064 6.19982 57.0671 11.1676 62.9791 18.886C57.3956 9.15583 46.8853 2.58691 34.8149 2.58691C16.8736 2.58691 2.33984 17.1206 2.33984 35.062C2.33984 42.5341 4.84424 49.3904 9.07298 54.8508C6.32225 50.1294 4.76213 44.5869 4.76213 38.6749Z" fill="#FFD77F"/>
</g>
</g>
<g id="Group_8">
<g id="Group_9">
<path id="Vector_4" d="M16.1344 35.5539C15.6828 35.5539 15.2723 35.3487 14.9438 34.9792C14.4511 34.3223 14.5743 33.419 15.1901 32.8853L20.24 28.944L15.0259 25.8648C14.328 25.4542 14.0816 24.551 14.4922 23.8531C14.9027 23.1551 15.806 22.9088 16.5039 23.3193L23.6476 27.507C24.0582 27.7534 24.3456 28.205 24.3866 28.6976C24.4277 29.1903 24.2224 29.6419 23.8118 29.9704L17.0376 35.2255C16.7503 35.4718 16.4218 35.5539 16.1344 35.5539Z" fill="#303030"/>
</g>
<g id="Group_10">
<path id="Vector_5" d="M53.866 35.5539C53.5376 35.5539 53.2091 35.4718 52.9628 35.2255L46.1886 29.9704C45.8191 29.683 45.5728 29.1903 45.6138 28.6976C45.6549 28.205 45.9012 27.7534 46.3528 27.507L53.4555 23.3193C54.1534 22.9088 55.0567 23.1551 55.4672 23.8531C55.8778 24.551 55.6314 25.4542 54.9335 25.8648L49.7194 28.944L54.7693 32.8853C55.4262 33.378 55.5493 34.3223 55.0156 34.9792C54.7693 35.3487 54.3176 35.5539 53.866 35.5539Z" fill="#303030"/>
</g>
</g>
</g>
</g>
<g id="Group_11">
<g id="Group_12">
<path id="Vector_6" d="M17.4883 40.3574C18.4736 47.1316 25.9458 52.3867 34.978 52.3867C44.0103 52.3867 51.4824 47.1316 52.4678 40.3574H17.4883Z" fill="#695342"/>
</g>
<g id="Group_13">
<path id="Vector_7" d="M24.5508 40.3574V53.9879C24.5508 59.7357 29.2311 64.4161 34.9789 64.4161C40.7267 64.4161 45.4071 59.7357 45.4071 53.9879V40.3574H24.5508Z" fill="#F06669"/>
<path id="Vector_8" d="M34.9794 55.9175C34.4457 55.9175 34.0352 55.507 34.0352 54.9733V40.3574H35.8827V54.9733C35.9237 55.507 35.5132 55.9175 34.9794 55.9175Z" fill="#C64F58"/>
<path id="Vector_9" d="M34.978 64.4572C40.6436 64.4572 45.2829 59.859 45.4061 54.2344C38.7551 60.7212 31.6524 61.5423 27.5469 61.337C29.4354 63.2256 32.1041 64.4572 34.978 64.4572Z" fill="#E05F65"/>
</g>
</g>
</g>
</g>
<defs>
<clipPath id="clip0_744_11166">
<rect width="70" height="70" fill="white"/>
</clipPath>
</defs>
</svg>
