<svg width="70" height="70" viewBox="0 0 70 70" fill="none" xmlns="http://www.w3.org/2000/svg">
<g id="Frame" clip-path="url(#clip0_744_11067)">
<g id="Group">
<g id="Group_2">
<g id="Group_3">
<g id="Group_4">
<path id="Vector" d="M59.7059 59.7281C73.3661 46.0679 73.3661 23.9204 59.7059 10.2602C46.0457 -3.40005 23.8981 -3.40005 10.2379 10.2602C-3.42231 23.9204 -3.42231 46.0679 10.2379 59.7281C23.8981 73.3883 46.0457 73.3883 59.7059 59.7281Z" fill="#FFD05D"/>
</g>
<g id="Group_5">
<path id="Vector_2" d="M53.2889 5.13184C56.7786 10.5922 58.7903 17.038 58.7903 23.9764C58.7903 43.3137 43.107 58.9559 23.8109 58.9559C17.1188 58.9559 10.8372 57.0673 5.5 53.7829C11.6994 63.472 22.6202 69.9178 34.978 69.9178C54.3152 69.9178 69.9575 54.2345 69.9575 34.9383C69.9985 22.3342 63.3065 11.2902 53.2889 5.13184Z" fill="#FDC453"/>
</g>
<g id="Group_6">
<path id="Vector_3" d="M4.76213 38.6749C4.76213 20.7335 19.2959 6.19982 37.2372 6.19982C47.7064 6.19982 57.0671 11.1676 62.9791 18.886C57.3956 9.15583 46.8853 2.58691 34.8149 2.58691C16.8736 2.58691 2.33984 17.1206 2.33984 35.062C2.33984 42.5341 4.84424 49.3904 9.07298 54.8508C6.32225 50.1294 4.76213 44.5869 4.76213 38.6749Z" fill="#FFD77F"/>
</g>
</g>
<g id="Group_7">
<g id="Group_8">
<g id="Group_9">
<path id="Vector_4" d="M24.673 26.5218C24.673 28.9031 23.5235 30.8737 22.0865 30.8737C20.6496 30.8737 19.5 28.9441 19.5 26.5218C19.5 24.1406 20.6496 22.1699 22.0865 22.1699C23.5235 22.1699 24.673 24.0995 24.673 26.5218Z" fill="#303030"/>
</g>
<g id="Group_10">
<path id="Vector_5" d="M50.4543 26.5218C50.4543 28.9031 49.3047 30.8737 47.8678 30.8737C46.4308 30.8737 45.2812 28.9441 45.2812 26.5218C45.2812 24.1406 46.4308 22.1699 47.8678 22.1699C49.3047 22.1699 50.4543 24.0995 50.4543 26.5218Z" fill="#303030"/>
</g>
</g>
</g>
</g>
<g id="Group_11">
<path id="Vector_6" d="M44.6251 12.6043C44.9946 12.7275 45.3641 12.8096 45.7336 12.9328C46.5136 13.1381 47.2526 13.3433 47.9916 13.5897C49.0591 13.9592 50.0444 14.3697 50.9477 14.8624C51.8919 15.3551 52.7952 15.9298 53.6163 16.5867C54.5195 17.2847 55.3817 18.1058 56.1617 18.9269C56.2028 18.968 56.2849 18.968 56.326 18.968C56.367 18.9269 56.4081 18.8859 56.4081 18.8037C56.367 17.6131 55.8744 16.3815 55.0532 15.2319C54.2732 14.2055 53.2468 13.3433 52.0972 12.7275C50.9887 12.1527 49.757 11.7832 48.5254 11.7011C48.4843 11.7011 48.4433 11.7011 48.3612 11.7011C46.9653 11.619 45.7336 11.8653 44.6251 12.358C44.584 12.3991 44.543 12.4401 44.543 12.5222C44.543 12.5633 44.584 12.6043 44.6251 12.6043Z" fill="#414042"/>
<path id="Vector_7" d="M25.3299 12.6043C24.9604 12.7275 24.5909 12.8096 24.2214 12.9328C23.4413 13.1381 22.7023 13.3433 21.9633 13.5897C20.8958 13.9592 19.9105 14.3697 19.0073 14.8624C18.063 15.3551 17.1598 15.9298 16.3387 16.5867C15.4354 17.2847 14.5733 18.1058 13.7932 18.9269C13.7522 18.968 13.67 18.968 13.629 18.968C13.5879 18.9269 13.5469 18.8859 13.5469 18.8037C13.5879 17.6131 14.0806 16.3815 14.9017 15.2319C15.6818 14.2055 16.7082 13.3433 17.8577 12.7275C18.9662 12.1527 20.1979 11.7832 21.4296 11.7011C21.4706 11.7011 21.5117 11.7011 21.5938 11.7011C22.9897 11.619 24.2214 11.8653 25.3299 12.358C25.3709 12.3991 25.412 12.4401 25.412 12.5222C25.453 12.5633 25.412 12.6043 25.3299 12.6043Z" fill="#414042"/>
</g>
<g id="Group_12">
<g id="Group_13">
<path id="Vector_8" d="M47.8689 50.4987C47.1299 42.7803 41.6285 36.7861 34.9364 36.7861C28.2854 36.7861 22.7839 42.8213 22.0859 50.5398L47.8689 50.4987Z" fill="#695342"/>
</g>
<path id="Vector_9" d="M22.0859 50.54C22.0859 50.54 32.9246 39.6603 47.8689 50.499L22.0859 50.54Z" fill="#F06669"/>
</g>
</g>
</g>
<defs>
<clipPath id="clip0_744_11067">
<rect width="70" height="70" fill="white"/>
</clipPath>
</defs>
</svg>
