<svg width="70" height="70" viewBox="0 0 70 70" fill="none" xmlns="http://www.w3.org/2000/svg">
<g id="Frame" clip-path="url(#clip0_744_11131)">
<g id="Group">
<g id="Group_2">
<g id="Group_3">
<g id="Group_4">
<path id="Vector" d="M59.7059 59.7281C73.3661 46.0679 73.3661 23.9204 59.7059 10.2602C46.0457 -3.40004 23.8981 -3.40004 10.2379 10.2602C-3.42231 23.9204 -3.42231 46.0679 10.2379 59.7281C23.8981 73.3883 46.0457 73.3883 59.7059 59.7281Z" fill="#FFD05D"/>
</g>
<g id="Group_5">
<path id="Vector_2" d="M53.2889 5.13184C56.7786 10.5922 58.7903 17.038 58.7903 23.9764C58.7903 43.3137 43.107 58.9559 23.8109 58.9559C17.1188 58.9559 10.8372 57.0673 5.5 53.7829C11.6994 63.472 22.6202 69.9178 34.978 69.9178C54.3152 69.9178 69.9575 54.2345 69.9575 34.9383C69.9985 22.3342 63.3064 11.2902 53.2889 5.13184Z" fill="#FDC453"/>
</g>
<g id="Group_6">
<path id="Vector_3" d="M4.76213 38.6749C4.76213 20.7335 19.2959 6.19982 37.2372 6.19982C47.7064 6.19982 57.0671 11.1676 62.9791 18.886C57.3956 9.15583 46.8853 2.58691 34.8149 2.58691C16.8736 2.58691 2.33984 17.1206 2.33984 35.062C2.33984 42.5341 4.84424 49.3904 9.07298 54.8508C6.32225 50.1294 4.76213 44.5869 4.76213 38.6749Z" fill="#FFD77F"/>
</g>
</g>
<path id="Vector_4" d="M20.65 42.3281C19.7468 41.466 18.3099 42.4102 18.7615 43.6009C21.348 50.0466 27.6706 54.6449 35.0606 54.6449C42.3275 54.6449 48.5679 50.2519 51.1955 43.9293C51.6882 42.7797 50.2102 41.7944 49.348 42.6566C44.216 47.6243 33.3363 54.6859 20.65 42.3281Z" fill="#5E4939"/>
</g>
<g id="Group_7">
<path id="Vector_5" d="M59.695 21.7187L45.4897 22.9093C45.3255 22.9093 45.1612 22.9093 44.997 22.9504C44.8738 22.9504 40.2756 23.5251 35.1847 23.8125C35.0615 23.8125 34.9384 23.8125 34.8152 23.8125C29.7243 23.5251 25.1261 22.9504 25.0029 22.9504C24.8387 22.9504 24.6744 22.9093 24.5102 22.9093L10.3049 21.7187C7.51315 21.6776 5.95303 23.0325 6.11725 25.4548C6.11725 25.5369 7.10259 31.0794 7.10259 31.0794C7.43104 32.9679 7.80054 34.5281 8.9501 36.2524C9.56593 37.1556 10.4692 37.8125 11.4134 38.3052C11.9061 38.5515 12.4398 38.7568 12.9736 38.88C13.4252 39.0031 13.9178 38.9621 14.4105 39.0031C14.8211 39.0442 15.519 39.0442 15.9296 39.0442H19.173C20.0762 39.0442 20.4046 39.0442 20.5278 39.0442C22.0469 39.0442 23.5659 38.6747 24.9208 38.0178C27.0146 36.9504 28.2463 35.226 29.1495 33.0911C29.9706 31.0794 31.6129 29.5603 33.3783 28.4108C34.4046 27.7539 35.6774 27.7539 36.7038 28.4108C37.648 29.0266 38.5513 29.7656 39.2903 30.6278C39.8651 31.2436 40.3167 32.0237 40.7683 32.7627C41.302 33.5838 41.6304 34.5281 42.1642 35.3492C42.6979 36.1703 43.3137 36.8682 44.1348 37.443C45.5307 38.3873 47.214 38.921 48.8973 39.0442C49.1026 39.0442 49.3079 39.0852 49.5131 39.0852C49.6363 39.0852 49.9648 39.0852 50.868 39.0852H54.1114C54.5219 39.0852 55.2199 39.0442 55.6304 39.0442C56.1231 39.0031 56.6158 39.0031 57.0674 38.921C57.6011 38.7979 58.1348 38.5926 58.6275 38.3462C59.5718 37.8536 60.475 37.1967 61.0909 36.2935C62.2404 34.5691 62.6099 33.009 62.9384 31.1204C62.9384 31.1204 63.9237 25.5779 63.9237 25.4958C64.0469 23.0325 62.4868 21.6776 59.695 21.7187Z" fill="#2D292A"/>
<g id="Group_8">
<path id="Vector_6" d="M49.4719 39.0855C49.5951 39.0855 49.9235 39.0855 50.8267 39.0855H54.0701C54.4807 39.0855 55.1786 39.0444 55.5892 39.0444C56.0819 39.0034 56.5745 39.0034 57.0261 38.9213C57.5599 38.7981 58.0936 38.5928 58.5863 38.3465C59.5305 37.8538 60.4338 37.1969 61.0496 36.2937C62.1992 34.5694 62.5687 33.0092 62.8971 31.1207C62.8971 31.1207 63.8824 25.5782 63.8824 25.496C63.8824 25.1676 63.8824 24.8391 63.8414 24.5518C57.3135 34.6925 49.3487 37.1559 44.2578 37.6075C45.6127 38.5107 47.2549 39.0034 48.8561 39.0855C49.0613 39.0855 49.2666 39.0855 49.4719 39.0855Z" fill="#414042"/>
<path id="Vector_7" d="M11.415 38.3467C11.9077 38.593 12.4414 38.7983 12.9751 38.9215C13.4268 39.0446 13.9194 39.0036 14.4121 39.0446C14.8226 39.0857 15.5206 39.0857 15.9312 39.0857H19.1746C20.0778 39.0857 20.4062 39.0857 20.5294 39.0857C22.0485 39.0857 23.5675 38.7162 24.9224 38.0593C27.0162 36.9918 28.2479 35.2675 29.1511 33.1326C29.6027 32.0652 30.2596 31.1619 31.0807 30.3408C21.5558 36.6223 13.6731 37.6077 10.4297 37.7308C10.7171 37.9361 11.0866 38.1414 11.415 38.3467Z" fill="#414042"/>
</g>
</g>
</g>
</g>
<defs>
<clipPath id="clip0_744_11131">
<rect width="70" height="70" fill="white"/>
</clipPath>
</defs>
</svg>
