<svg width="70" height="70" viewBox="0 0 70 70" fill="none" xmlns="http://www.w3.org/2000/svg">
<g id="Frame" clip-path="url(#clip0_744_10989)">
<g id="Group">
<g id="Group_2">
<g id="Group_3">
<path id="Vector" d="M59.7059 59.7281C73.3661 46.0679 73.3661 23.9204 59.7059 10.2602C46.0457 -3.40005 23.8981 -3.40005 10.2379 10.2602C-3.42231 23.9204 -3.42231 46.0679 10.2379 59.7281C23.8981 73.3883 46.0457 73.3883 59.7059 59.7281Z" fill="#FFD05D"/>
</g>
</g>
<g id="Group_4">
<g id="Group_5">
<g id="Group_6">
<path id="Vector_2" d="M24.673 26.5218C24.673 28.9031 23.5235 30.8737 22.0865 30.8737C20.6496 30.8737 19.5 28.9441 19.5 26.5218C19.5 24.1406 20.6496 22.1699 22.0865 22.1699C23.5235 22.1699 24.673 24.0995 24.673 26.5218Z" fill="#303030"/>
</g>
<g id="Group_7">
<path id="Vector_3" d="M50.4543 26.5218C50.4543 28.9031 49.3047 30.8737 47.8678 30.8737C46.4308 30.8737 45.2812 28.9441 45.2812 26.5218C45.2812 24.1406 46.4308 22.1699 47.8678 22.1699C49.3047 22.1699 50.4543 24.0995 50.4543 26.5218Z" fill="#303030"/>
</g>
</g>
</g>
<path id="Vector_4" d="M11.4961 38.3047C12.8099 50.1287 22.8275 59.2842 35.021 59.2842C47.1735 59.2842 57.1911 50.0877 58.546 38.3047H11.4961Z" fill="#695342"/>
<path id="Vector_5" d="M18.7617 52.8388C22.9905 56.8623 28.6972 59.2846 35.0198 59.2846C41.055 59.2846 46.5154 57.0265 50.7031 53.3315L50.4978 52.8388C34.6913 45.1204 18.967 52.7157 18.7617 52.8388Z" fill="#F06669"/>
</g>
</g>
<defs>
<clipPath id="clip0_744_10989">
<rect width="70" height="70" fill="white"/>
</clipPath>
</defs>
</svg>
