<svg width="70" height="70" viewBox="0 0 70 70" fill="none" xmlns="http://www.w3.org/2000/svg">
<g id="Frame" clip-path="url(#clip0_744_11147)">
<g id="Group">
<g id="Group_2">
<g id="Group_3">
<path id="Vector" d="M69.5078 40.6108C72.6027 21.5414 59.6527 3.57373 40.5833 0.478883C21.5139 -2.61596 3.54621 10.334 0.451367 29.4034C-2.64348 48.4728 10.3065 66.4405 29.3759 69.5354C48.4453 72.6302 66.413 59.6802 69.5078 40.6108Z" fill="#F16D24"/>
</g>
<g id="Group_4">
<path id="Vector_2" d="M53.2928 5.13184C56.7825 10.5922 58.7942 17.038 58.7942 23.9764C58.7942 43.3137 43.1109 58.9559 23.8148 58.9559C17.1227 58.9559 10.8411 57.0673 5.50391 53.7829C11.7033 63.472 22.6241 69.9178 34.9819 69.9178C54.3192 69.9178 69.9614 54.2345 69.9614 34.9383C70.0024 22.3342 63.3104 11.2902 53.2928 5.13184Z" fill="#EF6421"/>
</g>
<g id="Group_5">
<path id="Vector_3" d="M4.76213 38.6749C4.76213 20.7335 19.2959 6.19982 37.2372 6.19982C47.7064 6.19982 57.0671 11.1676 62.9791 18.886C57.3956 9.15583 46.8853 2.58691 34.8149 2.58691C16.8736 2.58691 2.33984 17.1206 2.33984 35.062C2.33984 42.5341 4.84424 49.3904 9.07298 54.8508C6.32225 50.1294 4.76213 44.5869 4.76213 38.6749Z" fill="#F2824E"/>
</g>
</g>
<g id="Group_6">
<g id="Group_7">
<g id="Group_8">
<path id="Vector_4" d="M22.0904 32.8444C23.5189 32.8444 24.6769 30.896 24.6769 28.4925C24.6769 26.089 23.5189 24.1406 22.0904 24.1406C20.6619 24.1406 19.5039 26.089 19.5039 28.4925C19.5039 30.896 20.6619 32.8444 22.0904 32.8444Z" fill="#303030"/>
</g>
<g id="Group_9">
<path id="Vector_5" d="M50.4582 28.4925C50.4582 30.8738 49.3086 32.8444 47.8717 32.8444C46.4347 32.8444 45.2852 30.9148 45.2852 28.4925C45.2852 26.0702 46.4347 24.1406 47.8717 24.1406C49.3086 24.1406 50.4582 26.0702 50.4582 28.4925Z" fill="#303030"/>
</g>
</g>
</g>
<path id="Vector_6" d="M49.3507 50.5394C50.2539 51.4015 51.6908 50.4573 51.2392 49.2666C48.6527 42.8209 42.3301 38.2227 34.9401 38.2227C27.6732 38.2227 21.4328 42.6156 18.8052 48.9382C18.3125 50.0878 19.7905 51.0731 20.6527 50.2109C25.7847 45.2842 36.6234 38.2227 49.3507 50.5394Z" fill="#5E4939"/>
<g id="Group_10">
<path id="Vector_7" d="M21.5507 14.6056L19.1992 16.957L27.0375 24.7953L29.3889 22.4438L21.5507 14.6056Z" fill="#303030"/>
<path id="Vector_8" d="M50.7968 16.9648L48.4453 14.6133L40.6071 22.4515L42.9585 24.803L50.7968 16.9648Z" fill="#303030"/>
</g>
</g>
</g>
<defs>
<clipPath id="clip0_744_11147">
<rect width="70" height="70" fill="white"/>
</clipPath>
</defs>
</svg>
