<svg width="70" height="70" viewBox="0 0 70 70" fill="none" xmlns="http://www.w3.org/2000/svg">
<g id="Frame" clip-path="url(#clip0_744_11090)">
<g id="Group">
<g id="Group_2">
<g id="Group_3">
<path id="Vector" d="M59.7059 59.7281C73.3661 46.0679 73.3661 23.9204 59.7059 10.2602C46.0457 -3.40005 23.8981 -3.40005 10.2379 10.2602C-3.42231 23.9204 -3.42231 46.0679 10.2379 59.7281C23.8981 73.3883 46.0457 73.3883 59.7059 59.7281Z" fill="#FFD05D"/>
</g>
<g id="Group_4">
<path id="Vector_2" d="M53.2889 5.13184C56.7786 10.5922 58.7903 17.038 58.7903 23.9764C58.7903 43.3137 43.107 58.9559 23.8109 58.9559C17.1188 58.9559 10.8372 57.0673 5.5 53.7829C11.6994 63.472 22.6202 69.9178 34.978 69.9178C54.3152 69.9178 69.9575 54.2345 69.9575 34.9383C69.9985 22.3342 63.3064 11.2902 53.2889 5.13184Z" fill="#FDC453"/>
</g>
<g id="Group_5">
<path id="Vector_3" d="M4.76213 38.6749C4.76213 20.7335 19.2959 6.19982 37.2372 6.19982C47.7064 6.19982 57.0671 11.1676 62.9791 18.886C57.3956 9.15583 46.8853 2.58691 34.8149 2.58691C16.8736 2.58691 2.33984 17.1206 2.33984 35.062C2.33984 42.5341 4.84424 49.3904 9.07298 54.8508C6.32225 50.1294 4.76213 44.5869 4.76213 38.6749Z" fill="#FFD77F"/>
</g>
</g>
<path id="Vector_4" d="M20.65 38.5928C19.7468 37.7306 18.3099 38.6749 18.7615 39.8655C21.348 46.3113 27.6706 50.9095 35.0606 50.9095C42.3275 50.9095 48.5679 46.5165 51.1955 40.194C51.6882 39.0444 50.2102 38.0591 49.348 38.9212C44.216 43.889 33.3363 50.9506 20.65 38.5928Z" fill="#5E4939"/>
<g id="Group_6">
<path id="Vector_5" d="M44.009 27.3432C44.9943 29.8065 47.3755 31.4077 50.0442 31.4077C52.6717 31.4077 55.0119 29.8476 55.9972 27.4663C56.2025 27.0147 56.0383 26.481 55.6277 26.1936C55.2172 25.9062 54.6835 25.9473 54.314 26.3168C52.3843 28.2053 49.3052 29.7244 45.6923 26.2347C45.487 26.0294 45.2406 25.9473 44.9533 25.9473C44.748 25.9473 44.5427 25.9883 44.3785 26.1115C44.009 26.3578 43.8447 26.8915 44.009 27.3432Z" fill="#303030"/>
<path id="Vector_6" d="M13.9571 27.3432C14.9424 29.8065 17.3237 31.4077 19.9923 31.4077C22.6199 31.4077 24.96 29.8476 25.9454 27.4663C26.1506 27.0147 25.9864 26.481 25.5759 26.1936C25.1653 25.9062 24.6316 25.9473 24.2621 26.3168C22.3325 28.2053 19.2533 29.7244 15.6404 26.2347C15.4351 26.0294 15.1888 25.9473 14.9014 25.9473C14.6961 25.9473 14.4908 25.9883 14.3266 26.1115C13.916 26.3578 13.7929 26.8915 13.9571 27.3432Z" fill="#303030"/>
</g>
<g id="Group_7">
<path id="Vector_7" d="M9.27746 45.9827C12.656 45.9827 15.3948 43.2438 15.3948 39.8653C15.3948 36.4869 12.656 33.748 9.27746 33.748C5.89897 33.748 3.16016 36.4869 3.16016 39.8653C3.16016 43.2438 5.89897 45.9827 9.27746 45.9827Z" fill="#F5A6AC"/>
<path id="Vector_8" d="M60.7189 45.9827C64.0974 45.9827 66.8362 43.2438 66.8362 39.8653C66.8362 36.4869 64.0974 33.748 60.7189 33.748C57.3404 33.748 54.6016 36.4869 54.6016 39.8653C54.6016 43.2438 57.3404 45.9827 60.7189 45.9827Z" fill="#F5A6AC"/>
</g>
</g>
</g>
<defs>
<clipPath id="clip0_744_11090">
<rect width="70" height="70" fill="white"/>
</clipPath>
</defs>
</svg>
