<svg width="70" height="70" viewBox="0 0 70 70" fill="none" xmlns="http://www.w3.org/2000/svg">
<g id="Frame" clip-path="url(#clip0_744_11116)">
<g id="Group">
<g id="Group_2">
<g id="Group_3">
<path id="Vector" d="M69.5078 40.6108C72.6027 21.5414 59.6527 3.57373 40.5833 0.478883C21.5139 -2.61596 3.54621 10.334 0.451367 29.4034C-2.64348 48.4728 10.3065 66.4405 29.3759 69.5354C48.4453 72.6302 66.413 59.6802 69.5078 40.6108Z" fill="#FFD05D"/>
</g>
<g id="Group_4">
<path id="Vector_2" d="M53.2928 5.13184C56.7825 10.5922 58.7942 17.038 58.7942 23.9764C58.7942 43.3137 43.1109 58.9559 23.8148 58.9559C17.1227 58.9559 10.8411 57.0673 5.50391 53.7829C11.7033 63.472 22.6241 69.9178 34.9819 69.9178C54.3192 69.9178 69.9614 54.2345 69.9614 34.9383C70.0024 22.3342 63.3104 11.2902 53.2928 5.13184Z" fill="#FDC453"/>
</g>
<g id="Group_5">
<path id="Vector_3" d="M4.76213 38.6749C4.76213 20.7335 19.2959 6.19982 37.2372 6.19982C47.7064 6.19982 57.0671 11.1676 62.9791 18.886C57.3956 9.15583 46.8853 2.58691 34.8149 2.58691C16.8736 2.58691 2.33984 17.1206 2.33984 35.062C2.33984 42.5341 4.84424 49.3904 9.07298 54.8508C6.32225 50.1294 4.76213 44.5869 4.76213 38.6749Z" fill="#FFD77F"/>
</g>
</g>
<g id="Group_6">
<path id="Vector_4" d="M20.1172 42.1641C20.9794 49.6362 27.3019 55.4251 34.9794 55.4251C42.6568 55.4251 49.0204 49.6362 49.8415 42.1641H20.1172Z" fill="#695342"/>
<path id="Vector_5" d="M24.7148 51.3607C27.3835 53.9061 30.9964 55.4662 34.9788 55.4662C38.797 55.4662 42.2456 54.0293 44.9143 51.6891L44.7911 51.3607C34.7735 46.475 24.838 51.2785 24.7148 51.3607Z" fill="#F06669"/>
</g>
<g id="Group_7">
<path id="XMLID_2_" d="M30.1774 24.8391V24.798C30.1774 21.5546 27.8372 18.5986 24.3065 18.5986C21.5147 18.5986 19.9135 20.6104 19.3387 22.4989C18.805 20.6104 17.1628 18.5986 14.371 18.5986C10.8402 18.5986 8.5 21.5546 8.5 24.798V24.8391C8.5 25.537 8.5 32.6807 19.2977 38.5107C30.1774 32.6807 30.1774 25.537 30.1774 24.8391Z" fill="#E62728"/>
<path id="XMLID_1_" d="M61.4626 24.8391V24.798C61.4626 21.5546 59.1224 18.5986 55.5916 18.5986C52.7998 18.5986 51.1986 20.6104 50.6239 22.4989C50.0901 20.6104 48.4479 18.5986 45.6561 18.5986C42.1253 18.5986 39.7852 21.5546 39.7852 24.798V24.8391C39.7852 25.537 39.7852 32.6807 50.5828 38.5107C61.4626 32.6807 61.4626 25.537 61.4626 24.8391Z" fill="#E62728"/>
</g>
</g>
</g>
<defs>
<clipPath id="clip0_744_11116">
<rect width="70" height="70" fill="white"/>
</clipPath>
</defs>
</svg>
