<svg width="70" height="70" viewBox="0 0 70 70" fill="none" xmlns="http://www.w3.org/2000/svg">
<g id="Frame" clip-path="url(#clip0_744_11106)">
<g id="Group">
<g id="Group_2">
<g id="Group_3">
<path id="Vector" d="M59.7059 59.7281C73.3661 46.0679 73.3661 23.9204 59.7059 10.2602C46.0457 -3.40005 23.8981 -3.40005 10.2379 10.2602C-3.42231 23.9204 -3.42231 46.0679 10.2379 59.7281C23.8981 73.3883 46.0457 73.3883 59.7059 59.7281Z" fill="#F94343"/>
</g>
<g id="Group_4">
<path id="Vector_2" d="M53.2889 5.13184C56.7786 10.5922 58.7903 17.038 58.7903 23.9764C58.7903 43.3137 43.107 58.9559 23.8108 58.9559C17.1188 58.9559 10.8372 57.0673 5.5 53.7829C11.6994 63.472 22.6202 69.9178 34.978 69.9178C54.3152 69.9178 69.9575 54.2345 69.9575 34.9383C69.9985 22.3342 63.3065 11.2902 53.2889 5.13184Z" fill="#E53939"/>
</g>
<g id="Group_5">
<path id="Vector_3" d="M4.76213 38.6749C4.76213 20.7335 19.2959 6.19982 37.2372 6.19982C47.7064 6.19982 57.0671 11.1676 62.9791 18.886C57.3956 9.15583 46.8853 2.58691 34.8149 2.58691C16.8736 2.58691 2.33984 17.1206 2.33984 35.062C2.33984 42.5341 4.84424 49.3904 9.07298 54.8508C6.32225 50.1294 4.76213 44.5869 4.76213 38.6749Z" fill="#F76363"/>
</g>
</g>
<path id="XMLID_1_" d="M55.5903 30.9149C55.5903 30.8739 55.5903 30.8328 55.5903 30.8328C55.5903 24.6744 51.1563 19.0498 44.4642 19.0498C39.1269 19.0498 36.0478 22.868 35.0214 26.4398C33.9539 22.868 30.8747 19.0498 25.5785 19.0498C18.8865 19.0498 14.4524 24.6744 14.4524 30.8328C14.4524 30.8739 14.4524 30.9149 14.4524 30.9149C14.4114 32.2697 14.4524 45.8592 35.0214 56.9853C55.5903 45.9002 55.6313 32.2697 55.5903 30.9149Z" fill="white"/>
</g>
</g>
<defs>
<clipPath id="clip0_744_11106">
<rect width="70" height="70" fill="white"/>
</clipPath>
</defs>
</svg>
