<svg width="70" height="70" viewBox="0 0 70 70" fill="none" xmlns="http://www.w3.org/2000/svg">
<g id="Frame" clip-path="url(#clip0_744_11236)">
<g id="Group">
<g id="Group_2">
<g id="Group_3">
<path id="Vector" d="M69.5078 40.6108C72.6027 21.5414 59.6527 3.57372 40.5833 0.478876C21.5139 -2.61597 3.54621 10.334 0.451368 29.4034C-2.64348 48.4728 10.3065 66.4405 29.3759 69.5354C48.4453 72.6302 66.413 59.6802 69.5078 40.6108Z" fill="#4A85D3"/>
</g>
<g id="Group_4">
<path id="Vector_2" d="M53.2928 5.13184C56.7825 10.5922 58.7942 17.038 58.7942 23.9764C58.7942 43.3137 43.1109 58.9559 23.8148 58.9559C17.1227 58.9559 10.8411 57.0673 5.50391 53.7829C11.7033 63.472 22.6241 69.9178 34.9819 69.9178C54.3192 69.9178 69.9614 54.2345 69.9614 34.9383C70.0024 22.3342 63.3104 11.2902 53.2928 5.13184Z" fill="#407EC1"/>
</g>
<g id="Group_5">
<path id="Vector_3" d="M4.76213 38.6749C4.76213 20.7335 19.2959 6.19982 37.2372 6.19982C47.7064 6.19982 57.0671 11.1676 62.9791 18.886C57.3956 9.15583 46.8853 2.58691 34.8149 2.58691C16.8736 2.58691 2.33984 17.1206 2.33984 35.062C2.33984 42.5341 4.84424 49.3904 9.07298 54.8508C6.32225 50.1294 4.76213 44.5869 4.76213 38.6749Z" fill="#5B9ADD"/>
</g>
</g>
<g id="Group_6">
<path id="Vector_4" d="M55.1807 26.7274H49.5972H47.3391H43.0282C42.6998 26.7274 42.4945 26.44 42.5766 26.1526C43.0693 24.3872 43.1103 22.4987 43.1103 20.6922C43.1103 19.7069 43.1514 18.5573 43.0282 17.4899C42.9051 16.3814 42.6587 15.3139 42.0018 14.4928C41.2628 13.5485 40.1954 12.8506 39.0048 12.8506C36.213 12.8506 35.8024 15.5603 35.515 17.7773C35.2277 20.3638 35.1045 22.9913 33.9549 25.3726C33.1749 27.0148 32.0253 28.4518 30.2599 29.1497C28.9051 29.6834 27.9197 30.094 26.4828 30.3814C26.2775 30.4224 26.1133 30.6277 26.1133 30.833V48.8154C26.1133 49.0617 26.3186 49.3081 26.606 49.3081H31.5737C31.7379 49.3081 31.8611 49.3902 31.9432 49.5133C32.9285 50.8271 34.4886 51.6893 36.254 51.6893H43.9725H49.5972H51.8142C54.0722 51.6893 55.9608 49.8418 55.9608 47.5427C55.9608 46.9679 55.8376 46.3931 55.5502 45.9004C55.4681 45.6952 55.5092 45.4488 55.6734 45.3257C56.5356 44.6688 57.0693 43.1086 57.0693 41.9591V41.4664C57.0693 40.8916 56.9461 40.3169 56.6587 39.8242C56.5766 39.6189 56.6177 39.3726 56.7819 39.2494C57.6441 38.5925 58.1778 37.5661 58.1778 36.3755V35.8828C58.1778 35.3081 58.0546 34.7333 57.7672 34.2406C57.6851 34.0353 57.7262 33.789 57.8904 33.6658C58.7526 33.0089 59.2863 31.9826 59.2863 30.7919C59.2863 28.5749 57.4388 26.7274 55.1807 26.7274Z" fill="white"/>
<path id="Vector_5" d="M22.4575 51.115H15.1085C14.4927 51.115 14 50.6223 14 50.0065V29.4786C14 28.8628 14.4927 28.3701 15.1085 28.3701H22.4575C23.0733 28.3701 23.566 28.8628 23.566 29.4786V50.0065C23.566 50.6223 23.0733 51.115 22.4575 51.115Z" fill="white"/>
</g>
</g>
</g>
<defs>
<clipPath id="clip0_744_11236">
<rect width="70" height="70" fill="white"/>
</clipPath>
</defs>
</svg>
